SplineFontDB: 3.0
FontName: mnicmpStar-Regular
FullName: mnicmp Star Regular
FamilyName: mnicmp Star
Weight: Regular
Copyright: Copyright (c) 2017, Stewart C. Russell - @scruss
UComments: "2017-2-4: Created with FontForge (http://fontforge.org)"
Version: 001.000
ItalicAngle: 0
UnderlinePosition: -100
UnderlineWidth: 50
Ascent: 800
Descent: 200
InvalidEm: 0
LayerCount: 2
Layer: 0 0 "Back" 1
Layer: 1 0 "Fore" 0
XUID: [1021 979 -1766368808 2260999]
StyleMap: 0x0040
FSType: 0
OS2Version: 0
OS2_WeightWidthSlopeOnly: 0
OS2_UseTypoMetrics: 1
CreationTime: 1486248755
ModificationTime: 1486416487
PfmFamily: 49
TTFWeight: 400
TTFWidth: 5
LineGap: 90
VLineGap: 0
OS2TypoAscent: 0
OS2TypoAOffset: 1
OS2TypoDescent: 0
OS2TypoDOffset: 1
OS2TypoLinegap: 90
OS2WinAscent: 0
OS2WinAOffset: 1
OS2WinDescent: 0
OS2WinDOffset: 1
HheadAscent: 0
HheadAOffset: 1
HheadDescent: 0
HheadDOffset: 1
OS2Vendor: 'PfEd'
MarkAttachClasses: 1
DEI: 91125

StartChar: glyph0
Encoding: 8593 8593 0
Width: 600
VWidth: 0
UnlinkRmOvrlpSave: 1
Flags: W
HStem: 210 21G<275.471 296.619 299.381 320.529> 210 21G<275.471 296.619 299.381 320.529> 613 20G<131.714 144.286 291.714 304.286 451.714 464.286> 780 20G<291.714 304.286>
LayerCount: 2
Back
Fore
SplineSet
298 300 m 1x70
 309 265 l 1
 346 265 l 1
 316 244 l 1
 327 210 l 1
 298 231 l 1
 269 210 l 1
 280 244 l 1
 250 265 l 1
 287 265 l 1
 298 300 l 1x70
298 383 m 1
 309 348 l 1
 346 348 l 1
 316 327 l 1
 327 293 l 1
 298 314 l 1
 269 293 l 1
 280 327 l 1
 250 348 l 1
 287 348 l 1
 298 383 l 1
298 467 m 1
 309 432 l 1
 346 432 l 1
 316 411 l 1
 327 377 l 1
 298 398 l 1
 269 377 l 1
 280 411 l 1
 250 432 l 1
 287 432 l 1
 298 467 l 1
298 550 m 1
 309 515 l 1
 346 515 l 1
 316 494 l 1
 327 460 l 1
 298 481 l 1
 269 460 l 1
 280 494 l 1
 250 515 l 1
 287 515 l 1
 298 550 l 1
458 633 m 1
 469 598 l 1
 506 598 l 1
 476 577 l 1
 487 543 l 1
 458 564 l 1
 429 543 l 1
 440 577 l 1
 410 598 l 1
 447 598 l 1
 458 633 l 1
298 633 m 1
 309 598 l 1
 346 598 l 1
 316 577 l 1
 327 543 l 1
 298 564 l 1
 269 543 l 1
 280 577 l 1
 250 598 l 1
 287 598 l 1
 298 633 l 1
138 633 m 1
 149 598 l 1
 186 598 l 1
 156 577 l 1
 167 543 l 1
 138 564 l 1
 109 543 l 1
 120 577 l 1
 90 598 l 1
 127 598 l 1
 138 633 l 1
405 717 m 1
 416 682 l 1
 453 682 l 1
 423 661 l 1
 434 627 l 1
 405 648 l 1
 376 627 l 1
 387 661 l 1
 357 682 l 1
 394 682 l 1
 405 717 l 1
298 717 m 1
 309 682 l 1
 346 682 l 1
 316 661 l 1
 327 627 l 1
 298 648 l 1
 269 627 l 1
 280 661 l 1
 250 682 l 1
 287 682 l 1
 298 717 l 1
191 717 m 1
 202 682 l 1
 239 682 l 1
 209 661 l 1
 220 627 l 1
 191 648 l 1
 162 627 l 1
 173 661 l 1
 143 682 l 1
 180 682 l 1
 191 717 l 1
298 800 m 1
 309 765 l 1
 346 765 l 1
 316 744 l 1
 327 710 l 1
 298 731 l 1
 269 710 l 1
 280 744 l 1
 250 765 l 1
 287 765 l 1
 298 800 l 1
EndSplineSet
EndChar

StartChar: glyph1
Encoding: 8216 8216 1
Width: 600
VWidth: 0
UnlinkRmOvrlpSave: 1
Flags: W
HStem: 543 257 613 20G<185.714 198.286>
VStem: 90 150
LayerCount: 2
Back
Fore
SplineSet
192 633 m 1x60
 203 598 l 1
 240 598 l 1
 210 577 l 1
 221 543 l 1
 192 564 l 1
 163 543 l 1xa0
 174 577 l 1
 144 598 l 1
 181 598 l 1
 192 633 l 1x60
138 717 m 1
 149 682 l 1
 186 682 l 1
 156 661 l 1
 167 627 l 1
 138 648 l 1
 109 627 l 1
 120 661 l 1
 90 682 l 1
 127 682 l 1
 138 717 l 1
138 800 m 1
 149 765 l 1
 186 765 l 1
 156 744 l 1
 167 710 l 1
 138 731 l 1
 109 710 l 1
 120 744 l 1
 90 765 l 1
 127 765 l 1
 138 800 l 1
EndSplineSet
EndChar

StartChar: glyph2
Encoding: 8220 8220 2
Width: 600
VWidth: 0
UnlinkRmOvrlpSave: 1
Flags: W
HStem: 543 257 613 20G<184.714 197.286 344.714 357.286>
VStem: 90 309
LayerCount: 2
Back
Fore
SplineSet
351 633 m 1x60
 362 598 l 1
 399 598 l 1
 369 577 l 1
 380 543 l 1
 351 564 l 1
 322 543 l 1xa0
 333 577 l 1
 303 598 l 1
 340 598 l 1
 351 633 l 1x60
191 633 m 1x60
 202 598 l 1
 239 598 l 1
 209 577 l 1
 220 543 l 1
 191 564 l 1
 162 543 l 1xa0
 173 577 l 1
 143 598 l 1
 180 598 l 1
 191 633 l 1x60
298 717 m 1
 309 682 l 1
 346 682 l 1
 316 661 l 1
 327 627 l 1
 298 648 l 1
 269 627 l 1
 280 661 l 1
 250 682 l 1
 287 682 l 1
 298 717 l 1
138 717 m 1
 149 682 l 1
 186 682 l 1
 156 661 l 1
 167 627 l 1
 138 648 l 1
 109 627 l 1
 120 661 l 1
 90 682 l 1
 127 682 l 1
 138 717 l 1
298 800 m 1
 309 765 l 1
 346 765 l 1
 316 744 l 1
 327 710 l 1
 298 731 l 1
 269 710 l 1
 280 744 l 1
 250 765 l 1
 287 765 l 1
 298 800 l 1
138 800 m 1
 149 765 l 1
 186 765 l 1
 156 744 l 1
 167 710 l 1
 138 731 l 1
 109 710 l 1
 120 744 l 1
 90 765 l 1
 127 765 l 1
 138 800 l 1
EndSplineSet
EndChar

StartChar: dollar
Encoding: 36 36 4
Width: 600
VWidth: 0
UnlinkRmOvrlpSave: 1
Flags: W
HStem: 210 21G<275.471 296.619 299.381 320.529> 210 21G<275.471 296.619 299.381 320.529> 613 20G<131.714 144.286 291.714 304.286> 780 20G<291.714 304.286>
LayerCount: 2
Back
Fore
SplineSet
298 300 m 1x70
 309 265 l 1
 346 265 l 1
 316 244 l 1
 327 210 l 1
 298 231 l 1
 269 210 l 1
 280 244 l 1
 250 265 l 1
 287 265 l 1
 298 300 l 1x70
405 383 m 1
 416 348 l 1
 453 348 l 1
 423 327 l 1
 434 293 l 1
 405 314 l 1
 376 293 l 1
 387 327 l 1
 357 348 l 1
 394 348 l 1
 405 383 l 1
298 383 m 1
 309 348 l 1
 346 348 l 1
 316 327 l 1
 327 293 l 1
 298 314 l 1
 269 293 l 1
 280 327 l 1
 250 348 l 1
 287 348 l 1
 298 383 l 1
191 383 m 1
 202 348 l 1
 239 348 l 1
 209 327 l 1
 220 293 l 1
 191 314 l 1
 162 293 l 1
 173 327 l 1
 143 348 l 1
 180 348 l 1
 191 383 l 1
458 467 m 1
 469 432 l 1
 506 432 l 1
 476 411 l 1
 487 377 l 1
 458 398 l 1
 429 377 l 1
 440 411 l 1
 410 432 l 1
 447 432 l 1
 458 467 l 1
298 467 m 1
 309 432 l 1
 346 432 l 1
 316 411 l 1
 327 377 l 1
 298 398 l 1
 269 377 l 1
 280 411 l 1
 250 432 l 1
 287 432 l 1
 298 467 l 1
405 550 m 1
 416 515 l 1
 453 515 l 1
 423 494 l 1
 434 460 l 1
 405 481 l 1
 376 460 l 1
 387 494 l 1
 357 515 l 1
 394 515 l 1
 405 550 l 1
298 550 m 1
 309 515 l 1
 346 515 l 1
 316 494 l 1
 327 460 l 1
 298 481 l 1
 269 460 l 1
 280 494 l 1
 250 515 l 1
 287 515 l 1
 298 550 l 1
191 550 m 1
 202 515 l 1
 239 515 l 1
 209 494 l 1
 220 460 l 1
 191 481 l 1
 162 460 l 1
 173 494 l 1
 143 515 l 1
 180 515 l 1
 191 550 l 1
298 633 m 1
 309 598 l 1
 346 598 l 1
 316 577 l 1
 327 543 l 1
 298 564 l 1
 269 543 l 1
 280 577 l 1
 250 598 l 1
 287 598 l 1
 298 633 l 1
138 633 m 1
 149 598 l 1
 186 598 l 1
 156 577 l 1
 167 543 l 1
 138 564 l 1
 109 543 l 1
 120 577 l 1
 90 598 l 1
 127 598 l 1
 138 633 l 1
405 717 m 1
 416 682 l 1
 453 682 l 1
 423 661 l 1
 434 627 l 1
 405 648 l 1
 376 627 l 1
 387 661 l 1
 357 682 l 1
 394 682 l 1
 405 717 l 1
298 717 m 1
 309 682 l 1
 346 682 l 1
 316 661 l 1
 327 627 l 1
 298 648 l 1
 269 627 l 1
 280 661 l 1
 250 682 l 1
 287 682 l 1
 298 717 l 1
191 717 m 1
 202 682 l 1
 239 682 l 1
 209 661 l 1
 220 627 l 1
 191 648 l 1
 162 627 l 1
 173 661 l 1
 143 682 l 1
 180 682 l 1
 191 717 l 1
298 800 m 1
 309 765 l 1
 346 765 l 1
 316 744 l 1
 327 710 l 1
 298 731 l 1
 269 710 l 1
 280 744 l 1
 250 765 l 1
 287 765 l 1
 298 800 l 1
EndSplineSet
EndChar

StartChar: section
Encoding: 167 167 5
Width: 600
VWidth: 0
UnlinkRmOvrlpSave: 1
Flags: W
HStem: 210 21G<115.471 136.619 139.381 160.529 222.471 243.619 246.381 267.529> 210 21G<115.471 136.619 139.381 160.529 222.471 243.619 246.381 267.529> 613 20G<238.714 251.286 344.714 357.286> 780 20G<344.714 357.286 451.714 464.286>
LayerCount: 2
Back
Fore
SplineSet
245 300 m 1x70
 256 265 l 1
 293 265 l 1
 263 244 l 1
 274 210 l 1
 245 231 l 1
 216 210 l 1
 227 244 l 1
 197 265 l 1
 234 265 l 1
 245 300 l 1x70
138 300 m 1
 149 265 l 1
 186 265 l 1
 156 244 l 1
 167 210 l 1
 138 231 l 1
 109 210 l 1
 120 244 l 1
 90 265 l 1
 127 265 l 1
 138 300 l 1
298 383 m 1
 309 348 l 1
 346 348 l 1
 316 327 l 1
 327 293 l 1
 298 314 l 1
 269 293 l 1
 280 327 l 1
 250 348 l 1
 287 348 l 1
 298 383 l 1
351 467 m 1
 362 432 l 1
 399 432 l 1
 369 411 l 1
 380 377 l 1
 351 398 l 1
 322 377 l 1
 333 411 l 1
 303 432 l 1
 340 432 l 1
 351 467 l 1
245 467 m 1
 256 432 l 1
 293 432 l 1
 263 411 l 1
 274 377 l 1
 245 398 l 1
 216 377 l 1
 227 411 l 1
 197 432 l 1
 234 432 l 1
 245 467 l 1
405 550 m 1
 416 515 l 1
 453 515 l 1
 423 494 l 1
 434 460 l 1
 405 481 l 1
 376 460 l 1
 387 494 l 1
 357 515 l 1
 394 515 l 1
 405 550 l 1
191 550 m 1
 202 515 l 1
 239 515 l 1
 209 494 l 1
 220 460 l 1
 191 481 l 1
 162 460 l 1
 173 494 l 1
 143 515 l 1
 180 515 l 1
 191 550 l 1
351 633 m 1
 362 598 l 1
 399 598 l 1
 369 577 l 1
 380 543 l 1
 351 564 l 1
 322 543 l 1
 333 577 l 1
 303 598 l 1
 340 598 l 1
 351 633 l 1
245 633 m 1
 256 598 l 1
 293 598 l 1
 263 577 l 1
 274 543 l 1
 245 564 l 1
 216 543 l 1
 227 577 l 1
 197 598 l 1
 234 598 l 1
 245 633 l 1
298 717 m 1
 309 682 l 1
 346 682 l 1
 316 661 l 1
 327 627 l 1
 298 648 l 1
 269 627 l 1
 280 661 l 1
 250 682 l 1
 287 682 l 1
 298 717 l 1
458 800 m 1
 469 765 l 1
 506 765 l 1
 476 744 l 1
 487 710 l 1
 458 731 l 1
 429 710 l 1
 440 744 l 1
 410 765 l 1
 447 765 l 1
 458 800 l 1
351 800 m 1
 362 765 l 1
 399 765 l 1
 369 744 l 1
 380 710 l 1
 351 731 l 1
 322 710 l 1
 333 744 l 1
 303 765 l 1
 340 765 l 1
 351 800 l 1
EndSplineSet
EndChar

StartChar: parenleft
Encoding: 40 40 6
Width: 600
VWidth: 0
UnlinkRmOvrlpSave: 1
Flags: W
HStem: 210 21G<221.471 242.619 245.381 266.529> 210 21G<221.471 242.619 245.381 266.529> 613 20G<131.714 144.286> 780 20G<237.714 250.286>
VStem: 90 202
LayerCount: 2
Back
Fore
SplineSet
244 300 m 1x78
 255 265 l 1
 292 265 l 1
 262 244 l 1
 273 210 l 1
 244 231 l 1
 215 210 l 1
 226 244 l 1
 196 265 l 1
 233 265 l 1
 244 300 l 1x78
191 383 m 1
 202 348 l 1
 239 348 l 1
 209 327 l 1
 220 293 l 1
 191 314 l 1
 162 293 l 1
 173 327 l 1
 143 348 l 1
 180 348 l 1
 191 383 l 1
138 467 m 1
 149 432 l 1
 186 432 l 1
 156 411 l 1
 167 377 l 1
 138 398 l 1
 109 377 l 1
 120 411 l 1
 90 432 l 1
 127 432 l 1
 138 467 l 1
138 550 m 1
 149 515 l 1
 186 515 l 1
 156 494 l 1
 167 460 l 1
 138 481 l 1
 109 460 l 1
 120 494 l 1
 90 515 l 1
 127 515 l 1
 138 550 l 1
138 633 m 1
 149 598 l 1
 186 598 l 1
 156 577 l 1
 167 543 l 1
 138 564 l 1
 109 543 l 1
 120 577 l 1
 90 598 l 1
 127 598 l 1
 138 633 l 1
191 717 m 1
 202 682 l 1
 239 682 l 1
 209 661 l 1
 220 627 l 1
 191 648 l 1
 162 627 l 1
 173 661 l 1
 143 682 l 1
 180 682 l 1
 191 717 l 1
244 800 m 1
 255 765 l 1
 292 765 l 1
 262 744 l 1
 273 710 l 1
 244 731 l 1
 215 710 l 1
 226 744 l 1
 196 765 l 1
 233 765 l 1
 244 800 l 1
EndSplineSet
EndChar

StartChar: comma
Encoding: 44 44 7
Width: 600
VWidth: 0
UnlinkRmOvrlpSave: 1
Flags: W
HStem: 210 21G<115.471 136.619 139.381 160.529> 210 21G<115.471 136.619 139.381 160.529>
VStem: 90 202
LayerCount: 2
Back
Fore
SplineSet
138 300 m 1x60
 149 265 l 1
 186 265 l 1
 156 244 l 1
 167 210 l 1
 138 231 l 1
 109 210 l 1
 120 244 l 1
 90 265 l 1
 127 265 l 1
 138 300 l 1x60
191 383 m 1
 202 348 l 1
 239 348 l 1
 209 327 l 1
 220 293 l 1
 191 314 l 1
 162 293 l 1
 173 327 l 1
 143 348 l 1
 180 348 l 1
 191 383 l 1
244 467 m 1
 255 432 l 1
 292 432 l 1
 262 411 l 1
 273 377 l 1
 244 398 l 1
 215 377 l 1
 226 411 l 1
 196 432 l 1
 233 432 l 1
 244 467 l 1
138 467 m 1
 149 432 l 1
 186 432 l 1
 156 411 l 1
 167 377 l 1
 138 398 l 1
 109 377 l 1
 120 411 l 1
 90 432 l 1
 127 432 l 1
 138 467 l 1
244 550 m 1
 255 515 l 1
 292 515 l 1
 262 494 l 1
 273 460 l 1
 244 481 l 1
 215 460 l 1
 226 494 l 1
 196 515 l 1
 233 515 l 1
 244 550 l 1
138 550 m 1
 149 515 l 1
 186 515 l 1
 156 494 l 1
 167 460 l 1
 138 481 l 1
 109 460 l 1
 120 494 l 1
 90 515 l 1
 127 515 l 1
 138 550 l 1
EndSplineSet
EndChar

StartChar: zero
Encoding: 48 48 8
Width: 600
VWidth: 0
UnlinkRmOvrlpSave: 1
Flags: W
HStem: 210 21G<222.471 243.619 246.381 267.529 328.471 349.619 352.381 373.529> 210 21G<222.471 243.619 246.381 267.529 328.471 349.619 352.381 373.529> 613 20G<131.714 144.286 451.714 464.286> 780 20G<238.714 251.286 344.714 357.286>
LayerCount: 2
Back
Fore
SplineSet
351 300 m 1x70
 362 265 l 1
 399 265 l 1
 369 244 l 1
 380 210 l 1
 351 231 l 1
 322 210 l 1
 333 244 l 1
 303 265 l 1
 340 265 l 1
 351 300 l 1x70
245 300 m 1
 256 265 l 1
 293 265 l 1
 263 244 l 1
 274 210 l 1
 245 231 l 1
 216 210 l 1
 227 244 l 1
 197 265 l 1
 234 265 l 1
 245 300 l 1
405 383 m 1
 416 348 l 1
 453 348 l 1
 423 327 l 1
 434 293 l 1
 405 314 l 1
 376 293 l 1
 387 327 l 1
 357 348 l 1
 394 348 l 1
 405 383 l 1
191 383 m 1
 202 348 l 1
 239 348 l 1
 209 327 l 1
 220 293 l 1
 191 314 l 1
 162 293 l 1
 173 327 l 1
 143 348 l 1
 180 348 l 1
 191 383 l 1
458 467 m 1
 469 432 l 1
 506 432 l 1
 476 411 l 1
 487 377 l 1
 458 398 l 1
 429 377 l 1
 440 411 l 1
 410 432 l 1
 447 432 l 1
 458 467 l 1
138 467 m 1
 149 432 l 1
 186 432 l 1
 156 411 l 1
 167 377 l 1
 138 398 l 1
 109 377 l 1
 120 411 l 1
 90 432 l 1
 127 432 l 1
 138 467 l 1
458 550 m 1
 469 515 l 1
 506 515 l 1
 476 494 l 1
 487 460 l 1
 458 481 l 1
 429 460 l 1
 440 494 l 1
 410 515 l 1
 447 515 l 1
 458 550 l 1
138 550 m 1
 149 515 l 1
 186 515 l 1
 156 494 l 1
 167 460 l 1
 138 481 l 1
 109 460 l 1
 120 494 l 1
 90 515 l 1
 127 515 l 1
 138 550 l 1
458 633 m 1
 469 598 l 1
 506 598 l 1
 476 577 l 1
 487 543 l 1
 458 564 l 1
 429 543 l 1
 440 577 l 1
 410 598 l 1
 447 598 l 1
 458 633 l 1
138 633 m 1
 149 598 l 1
 186 598 l 1
 156 577 l 1
 167 543 l 1
 138 564 l 1
 109 543 l 1
 120 577 l 1
 90 598 l 1
 127 598 l 1
 138 633 l 1
405 717 m 1
 416 682 l 1
 453 682 l 1
 423 661 l 1
 434 627 l 1
 405 648 l 1
 376 627 l 1
 387 661 l 1
 357 682 l 1
 394 682 l 1
 405 717 l 1
191 717 m 1
 202 682 l 1
 239 682 l 1
 209 661 l 1
 220 627 l 1
 191 648 l 1
 162 627 l 1
 173 661 l 1
 143 682 l 1
 180 682 l 1
 191 717 l 1
351 800 m 1
 362 765 l 1
 399 765 l 1
 369 744 l 1
 380 710 l 1
 351 731 l 1
 322 710 l 1
 333 744 l 1
 303 765 l 1
 340 765 l 1
 351 800 l 1
245 800 m 1
 256 765 l 1
 293 765 l 1
 263 744 l 1
 274 710 l 1
 245 731 l 1
 216 710 l 1
 227 744 l 1
 197 765 l 1
 234 765 l 1
 245 800 l 1
EndSplineSet
EndChar

StartChar: glyph9
Encoding: 9785 9785 9
Width: 600
VWidth: 0
UnlinkRmOvrlpSave: 1
Flags: W
LayerCount: 2
Back
Fore
SplineSet
458 383 m 1
 469 348 l 1
 506 348 l 1
 476 327 l 1
 487 293 l 1
 458 314 l 1
 429 293 l 1
 440 327 l 1
 410 348 l 1
 447 348 l 1
 458 383 l 1
138 383 m 1
 149 348 l 1
 186 348 l 1
 156 327 l 1
 167 293 l 1
 138 314 l 1
 109 293 l 1
 120 327 l 1
 90 348 l 1
 127 348 l 1
 138 383 l 1
405 467 m 1
 416 432 l 1
 453 432 l 1
 423 411 l 1
 434 377 l 1
 405 398 l 1
 376 377 l 1
 387 411 l 1
 357 432 l 1
 394 432 l 1
 405 467 l 1
298 467 m 1
 309 432 l 1
 346 432 l 1
 316 411 l 1
 327 377 l 1
 298 398 l 1
 269 377 l 1
 280 411 l 1
 250 432 l 1
 287 432 l 1
 298 467 l 1
191 467 m 1
 202 432 l 1
 239 432 l 1
 209 411 l 1
 220 377 l 1
 191 398 l 1
 162 377 l 1
 173 411 l 1
 143 432 l 1
 180 432 l 1
 191 467 l 1
405 717 m 1
 416 682 l 1
 453 682 l 1
 423 661 l 1
 434 627 l 1
 405 648 l 1
 376 627 l 1
 387 661 l 1
 357 682 l 1
 394 682 l 1
 405 717 l 1
191 717 m 1
 202 682 l 1
 239 682 l 1
 209 661 l 1
 220 627 l 1
 191 648 l 1
 162 627 l 1
 173 661 l 1
 143 682 l 1
 180 682 l 1
 191 717 l 1
EndSplineSet
EndChar

StartChar: four
Encoding: 52 52 10
Width: 600
VWidth: 0
UnlinkRmOvrlpSave: 1
Flags: W
HStem: 210 21G<382.471 403.619 406.381 427.529> 210 21G<382.471 403.619 406.381 427.529> 613 20G<238.714 251.286 398.714 411.286> 780 20G<344.714 357.286>
LayerCount: 2
Back
Fore
SplineSet
405 300 m 1x70
 416 265 l 1
 453 265 l 1
 423 244 l 1
 434 210 l 1
 405 231 l 1
 376 210 l 1
 387 244 l 1
 357 265 l 1
 394 265 l 1
 405 300 l 1x70
405 383 m 1
 416 348 l 1
 453 348 l 1
 423 327 l 1
 434 293 l 1
 405 314 l 1
 376 293 l 1
 387 327 l 1
 357 348 l 1
 394 348 l 1
 405 383 l 1
458 467 m 1
 469 432 l 1
 506 432 l 1
 476 411 l 1
 487 377 l 1
 458 398 l 1
 429 377 l 1
 440 411 l 1
 410 432 l 1
 447 432 l 1
 458 467 l 1
351 467 m 1
 362 432 l 1
 399 432 l 1
 369 411 l 1
 380 377 l 1
 351 398 l 1
 322 377 l 1
 333 411 l 1
 303 432 l 1
 340 432 l 1
 351 467 l 1
245 467 m 1
 256 432 l 1
 293 432 l 1
 263 411 l 1
 274 377 l 1
 245 398 l 1
 216 377 l 1
 227 411 l 1
 197 432 l 1
 234 432 l 1
 245 467 l 1
138 467 m 1
 149 432 l 1
 186 432 l 1
 156 411 l 1
 167 377 l 1
 138 398 l 1
 109 377 l 1
 120 411 l 1
 90 432 l 1
 127 432 l 1
 138 467 l 1
405 550 m 1
 416 515 l 1
 453 515 l 1
 423 494 l 1
 434 460 l 1
 405 481 l 1
 376 460 l 1
 387 494 l 1
 357 515 l 1
 394 515 l 1
 405 550 l 1
191 550 m 1
 202 515 l 1
 239 515 l 1
 209 494 l 1
 220 460 l 1
 191 481 l 1
 162 460 l 1
 173 494 l 1
 143 515 l 1
 180 515 l 1
 191 550 l 1
405 633 m 1
 416 598 l 1
 453 598 l 1
 423 577 l 1
 434 543 l 1
 405 564 l 1
 376 543 l 1
 387 577 l 1
 357 598 l 1
 394 598 l 1
 405 633 l 1
245 633 m 1
 256 598 l 1
 293 598 l 1
 263 577 l 1
 274 543 l 1
 245 564 l 1
 216 543 l 1
 227 577 l 1
 197 598 l 1
 234 598 l 1
 245 633 l 1
405 717 m 1
 416 682 l 1
 453 682 l 1
 423 661 l 1
 434 627 l 1
 405 648 l 1
 376 627 l 1
 387 661 l 1
 357 682 l 1
 394 682 l 1
 405 717 l 1
298 717 m 1
 309 682 l 1
 346 682 l 1
 316 661 l 1
 327 627 l 1
 298 648 l 1
 269 627 l 1
 280 661 l 1
 250 682 l 1
 287 682 l 1
 298 717 l 1
351 800 m 1
 362 765 l 1
 399 765 l 1
 369 744 l 1
 380 710 l 1
 351 731 l 1
 322 710 l 1
 333 744 l 1
 303 765 l 1
 340 765 l 1
 351 800 l 1
EndSplineSet
EndChar

StartChar: periodcentered
Encoding: 183 183 11
Width: 600
VWidth: 0
UnlinkRmOvrlpSave: 1
Flags: W
HStem: 377 256
VStem: 90 310
LayerCount: 2
Back
Fore
SplineSet
298 467 m 1
 309 432 l 1
 346 432 l 1
 316 411 l 1
 327 377 l 1
 298 398 l 1
 269 377 l 1
 280 411 l 1
 250 432 l 1
 287 432 l 1
 298 467 l 1
192 467 m 1
 203 432 l 1
 240 432 l 1
 210 411 l 1
 221 377 l 1
 192 398 l 1
 163 377 l 1
 174 411 l 1
 144 432 l 1
 181 432 l 1
 192 467 l 1
352 550 m 1
 363 515 l 1
 400 515 l 1
 370 494 l 1
 381 460 l 1
 352 481 l 1
 323 460 l 1
 334 494 l 1
 304 515 l 1
 341 515 l 1
 352 550 l 1
245 550 m 1
 256 515 l 1
 293 515 l 1
 263 494 l 1
 274 460 l 1
 245 481 l 1
 216 460 l 1
 227 494 l 1
 197 515 l 1
 234 515 l 1
 245 550 l 1
138 550 m 1
 149 515 l 1
 186 515 l 1
 156 494 l 1
 167 460 l 1
 138 481 l 1
 109 460 l 1
 120 494 l 1
 90 515 l 1
 127 515 l 1
 138 550 l 1
298 633 m 1
 309 598 l 1
 346 598 l 1
 316 577 l 1
 327 543 l 1
 298 564 l 1
 269 543 l 1
 280 577 l 1
 250 598 l 1
 287 598 l 1
 298 633 l 1
192 633 m 1
 203 598 l 1
 240 598 l 1
 210 577 l 1
 221 543 l 1
 192 564 l 1
 163 543 l 1
 174 577 l 1
 144 598 l 1
 181 598 l 1
 192 633 l 1
EndSplineSet
EndChar

StartChar: eight
Encoding: 56 56 12
Width: 600
VWidth: 0
UnlinkRmOvrlpSave: 1
Flags: W
HStem: 210 21G<168.471 189.619 192.381 213.529 275.471 296.619 299.381 320.529 382.471 403.619 406.381 427.529> 210 21G<168.471 189.619 192.381 213.529 275.471 296.619 299.381 320.529 382.471 403.619 406.381 427.529> 613 20G<131.714 144.286 451.714 464.286> 780 20G<184.714 197.286 291.714 304.286 398.714 411.286>
LayerCount: 2
Back
Fore
SplineSet
405 300 m 1x70
 416 265 l 1
 453 265 l 1
 423 244 l 1
 434 210 l 1
 405 231 l 1
 376 210 l 1
 387 244 l 1
 357 265 l 1
 394 265 l 1
 405 300 l 1x70
298 300 m 1
 309 265 l 1
 346 265 l 1
 316 244 l 1
 327 210 l 1
 298 231 l 1
 269 210 l 1
 280 244 l 1
 250 265 l 1
 287 265 l 1
 298 300 l 1
191 300 m 1
 202 265 l 1
 239 265 l 1
 209 244 l 1
 220 210 l 1
 191 231 l 1
 162 210 l 1
 173 244 l 1
 143 265 l 1
 180 265 l 1
 191 300 l 1
458 383 m 1
 469 348 l 1
 506 348 l 1
 476 327 l 1
 487 293 l 1
 458 314 l 1
 429 293 l 1
 440 327 l 1
 410 348 l 1
 447 348 l 1
 458 383 l 1
138 383 m 1
 149 348 l 1
 186 348 l 1
 156 327 l 1
 167 293 l 1
 138 314 l 1
 109 293 l 1
 120 327 l 1
 90 348 l 1
 127 348 l 1
 138 383 l 1
458 467 m 1
 469 432 l 1
 506 432 l 1
 476 411 l 1
 487 377 l 1
 458 398 l 1
 429 377 l 1
 440 411 l 1
 410 432 l 1
 447 432 l 1
 458 467 l 1
138 467 m 1
 149 432 l 1
 186 432 l 1
 156 411 l 1
 167 377 l 1
 138 398 l 1
 109 377 l 1
 120 411 l 1
 90 432 l 1
 127 432 l 1
 138 467 l 1
405 550 m 1
 416 515 l 1
 453 515 l 1
 423 494 l 1
 434 460 l 1
 405 481 l 1
 376 460 l 1
 387 494 l 1
 357 515 l 1
 394 515 l 1
 405 550 l 1
298 550 m 1
 309 515 l 1
 346 515 l 1
 316 494 l 1
 327 460 l 1
 298 481 l 1
 269 460 l 1
 280 494 l 1
 250 515 l 1
 287 515 l 1
 298 550 l 1
191 550 m 1
 202 515 l 1
 239 515 l 1
 209 494 l 1
 220 460 l 1
 191 481 l 1
 162 460 l 1
 173 494 l 1
 143 515 l 1
 180 515 l 1
 191 550 l 1
458 633 m 1
 469 598 l 1
 506 598 l 1
 476 577 l 1
 487 543 l 1
 458 564 l 1
 429 543 l 1
 440 577 l 1
 410 598 l 1
 447 598 l 1
 458 633 l 1
138 633 m 1
 149 598 l 1
 186 598 l 1
 156 577 l 1
 167 543 l 1
 138 564 l 1
 109 543 l 1
 120 577 l 1
 90 598 l 1
 127 598 l 1
 138 633 l 1
458 717 m 1
 469 682 l 1
 506 682 l 1
 476 661 l 1
 487 627 l 1
 458 648 l 1
 429 627 l 1
 440 661 l 1
 410 682 l 1
 447 682 l 1
 458 717 l 1
138 717 m 1
 149 682 l 1
 186 682 l 1
 156 661 l 1
 167 627 l 1
 138 648 l 1
 109 627 l 1
 120 661 l 1
 90 682 l 1
 127 682 l 1
 138 717 l 1
405 800 m 1
 416 765 l 1
 453 765 l 1
 423 744 l 1
 434 710 l 1
 405 731 l 1
 376 710 l 1
 387 744 l 1
 357 765 l 1
 394 765 l 1
 405 800 l 1
298 800 m 1
 309 765 l 1
 346 765 l 1
 316 744 l 1
 327 710 l 1
 298 731 l 1
 269 710 l 1
 280 744 l 1
 250 765 l 1
 287 765 l 1
 298 800 l 1
191 800 m 1
 202 765 l 1
 239 765 l 1
 209 744 l 1
 220 710 l 1
 191 731 l 1
 162 710 l 1
 173 744 l 1
 143 765 l 1
 180 765 l 1
 191 800 l 1
EndSplineSet
EndChar

StartChar: less
Encoding: 60 60 13
Width: 600
VWidth: 0
UnlinkRmOvrlpSave: 1
Flags: W
HStem: 210 21G<435.471 456.619 459.381 480.529> 210 21G<435.471 456.619 459.381 480.529> 613 20G<238.714 251.286> 780 20G<451.714 464.286>
LayerCount: 2
Back
Fore
SplineSet
458 300 m 1x70
 469 265 l 1
 506 265 l 1
 476 244 l 1
 487 210 l 1
 458 231 l 1
 429 210 l 1
 440 244 l 1
 410 265 l 1
 447 265 l 1
 458 300 l 1x70
351 383 m 1
 362 348 l 1
 399 348 l 1
 369 327 l 1
 380 293 l 1
 351 314 l 1
 322 293 l 1
 333 327 l 1
 303 348 l 1
 340 348 l 1
 351 383 l 1
245 467 m 1
 256 432 l 1
 293 432 l 1
 263 411 l 1
 274 377 l 1
 245 398 l 1
 216 377 l 1
 227 411 l 1
 197 432 l 1
 234 432 l 1
 245 467 l 1
138 550 m 1
 149 515 l 1
 186 515 l 1
 156 494 l 1
 167 460 l 1
 138 481 l 1
 109 460 l 1
 120 494 l 1
 90 515 l 1
 127 515 l 1
 138 550 l 1
245 633 m 1
 256 598 l 1
 293 598 l 1
 263 577 l 1
 274 543 l 1
 245 564 l 1
 216 543 l 1
 227 577 l 1
 197 598 l 1
 234 598 l 1
 245 633 l 1
351 717 m 1
 362 682 l 1
 399 682 l 1
 369 661 l 1
 380 627 l 1
 351 648 l 1
 322 627 l 1
 333 661 l 1
 303 682 l 1
 340 682 l 1
 351 717 l 1
458 800 m 1
 469 765 l 1
 506 765 l 1
 476 744 l 1
 487 710 l 1
 458 731 l 1
 429 710 l 1
 440 744 l 1
 410 765 l 1
 447 765 l 1
 458 800 l 1
EndSplineSet
EndChar

StartChar: at
Encoding: 64 64 14
Width: 600
VWidth: 0
UnlinkRmOvrlpSave: 1
Flags: W
HStem: 210 21G<168.471 189.619 192.381 213.529 275.471 296.619 299.381 320.529 382.471 403.619 406.381 427.529> 210 21G<168.471 189.619 192.381 213.529 275.471 296.619 299.381 320.529 382.471 403.619 406.381 427.529> 613 20G<131.714 144.286 344.714 357.286 451.714 464.286> 780 20G<184.714 197.286 291.714 304.286 398.714 411.286>
LayerCount: 2
Back
Fore
SplineSet
405 300 m 1x70
 416 265 l 1
 453 265 l 1
 423 244 l 1
 434 210 l 1
 405 231 l 1
 376 210 l 1
 387 244 l 1
 357 265 l 1
 394 265 l 1
 405 300 l 1x70
298 300 m 1
 309 265 l 1
 346 265 l 1
 316 244 l 1
 327 210 l 1
 298 231 l 1
 269 210 l 1
 280 244 l 1
 250 265 l 1
 287 265 l 1
 298 300 l 1
191 300 m 1
 202 265 l 1
 239 265 l 1
 209 244 l 1
 220 210 l 1
 191 231 l 1
 162 210 l 1
 173 244 l 1
 143 265 l 1
 180 265 l 1
 191 300 l 1
138 383 m 1
 149 348 l 1
 186 348 l 1
 156 327 l 1
 167 293 l 1
 138 314 l 1
 109 293 l 1
 120 327 l 1
 90 348 l 1
 127 348 l 1
 138 383 l 1
405 467 m 1
 416 432 l 1
 453 432 l 1
 423 411 l 1
 434 377 l 1
 405 398 l 1
 376 377 l 1
 387 411 l 1
 357 432 l 1
 394 432 l 1
 405 467 l 1
298 467 m 1
 309 432 l 1
 346 432 l 1
 316 411 l 1
 327 377 l 1
 298 398 l 1
 269 377 l 1
 280 411 l 1
 250 432 l 1
 287 432 l 1
 298 467 l 1
138 467 m 1
 149 432 l 1
 186 432 l 1
 156 411 l 1
 167 377 l 1
 138 398 l 1
 109 377 l 1
 120 411 l 1
 90 432 l 1
 127 432 l 1
 138 467 l 1
458 550 m 1
 469 515 l 1
 506 515 l 1
 476 494 l 1
 487 460 l 1
 458 481 l 1
 429 460 l 1
 440 494 l 1
 410 515 l 1
 447 515 l 1
 458 550 l 1
298 550 m 1
 309 515 l 1
 346 515 l 1
 316 494 l 1
 327 460 l 1
 298 481 l 1
 269 460 l 1
 280 494 l 1
 250 515 l 1
 287 515 l 1
 298 550 l 1
138 550 m 1
 149 515 l 1
 186 515 l 1
 156 494 l 1
 167 460 l 1
 138 481 l 1
 109 460 l 1
 120 494 l 1
 90 515 l 1
 127 515 l 1
 138 550 l 1
458 633 m 1
 469 598 l 1
 506 598 l 1
 476 577 l 1
 487 543 l 1
 458 564 l 1
 429 543 l 1
 440 577 l 1
 410 598 l 1
 447 598 l 1
 458 633 l 1
351 633 m 1
 362 598 l 1
 399 598 l 1
 369 577 l 1
 380 543 l 1
 351 564 l 1
 322 543 l 1
 333 577 l 1
 303 598 l 1
 340 598 l 1
 351 633 l 1
138 633 m 1
 149 598 l 1
 186 598 l 1
 156 577 l 1
 167 543 l 1
 138 564 l 1
 109 543 l 1
 120 577 l 1
 90 598 l 1
 127 598 l 1
 138 633 l 1
458 717 m 1
 469 682 l 1
 506 682 l 1
 476 661 l 1
 487 627 l 1
 458 648 l 1
 429 627 l 1
 440 661 l 1
 410 682 l 1
 447 682 l 1
 458 717 l 1
138 717 m 1
 149 682 l 1
 186 682 l 1
 156 661 l 1
 167 627 l 1
 138 648 l 1
 109 627 l 1
 120 661 l 1
 90 682 l 1
 127 682 l 1
 138 717 l 1
405 800 m 1
 416 765 l 1
 453 765 l 1
 423 744 l 1
 434 710 l 1
 405 731 l 1
 376 710 l 1
 387 744 l 1
 357 765 l 1
 394 765 l 1
 405 800 l 1
298 800 m 1
 309 765 l 1
 346 765 l 1
 316 744 l 1
 327 710 l 1
 298 731 l 1
 269 710 l 1
 280 744 l 1
 250 765 l 1
 287 765 l 1
 298 800 l 1
191 800 m 1
 202 765 l 1
 239 765 l 1
 209 744 l 1
 220 710 l 1
 191 731 l 1
 162 710 l 1
 173 744 l 1
 143 765 l 1
 180 765 l 1
 191 800 l 1
EndSplineSet
EndChar

StartChar: D
Encoding: 68 68 15
Width: 600
VWidth: 0
UnlinkRmOvrlpSave: 1
Flags: W
HStem: 210 21G<115.471 136.619 139.381 160.529 222.471 243.619 246.381 267.529 328.471 349.619 352.381 373.529> 210 21G<115.471 136.619 139.381 160.529 222.471 243.619 246.381 267.529 328.471 349.619 352.381 373.529> 613 20G<184.714 197.286 451.714 464.286> 780 20G<131.714 144.286 238.714 251.286 344.714 357.286>
LayerCount: 2
Back
Fore
SplineSet
351 300 m 1x70
 362 265 l 1
 399 265 l 1
 369 244 l 1
 380 210 l 1
 351 231 l 1
 322 210 l 1
 333 244 l 1
 303 265 l 1
 340 265 l 1
 351 300 l 1x70
245 300 m 1
 256 265 l 1
 293 265 l 1
 263 244 l 1
 274 210 l 1
 245 231 l 1
 216 210 l 1
 227 244 l 1
 197 265 l 1
 234 265 l 1
 245 300 l 1
138 300 m 1
 149 265 l 1
 186 265 l 1
 156 244 l 1
 167 210 l 1
 138 231 l 1
 109 210 l 1
 120 244 l 1
 90 265 l 1
 127 265 l 1
 138 300 l 1
458 383 m 1
 469 348 l 1
 506 348 l 1
 476 327 l 1
 487 293 l 1
 458 314 l 1
 429 293 l 1
 440 327 l 1
 410 348 l 1
 447 348 l 1
 458 383 l 1
191 383 m 1
 202 348 l 1
 239 348 l 1
 209 327 l 1
 220 293 l 1
 191 314 l 1
 162 293 l 1
 173 327 l 1
 143 348 l 1
 180 348 l 1
 191 383 l 1
458 467 m 1
 469 432 l 1
 506 432 l 1
 476 411 l 1
 487 377 l 1
 458 398 l 1
 429 377 l 1
 440 411 l 1
 410 432 l 1
 447 432 l 1
 458 467 l 1
191 467 m 1
 202 432 l 1
 239 432 l 1
 209 411 l 1
 220 377 l 1
 191 398 l 1
 162 377 l 1
 173 411 l 1
 143 432 l 1
 180 432 l 1
 191 467 l 1
458 550 m 1
 469 515 l 1
 506 515 l 1
 476 494 l 1
 487 460 l 1
 458 481 l 1
 429 460 l 1
 440 494 l 1
 410 515 l 1
 447 515 l 1
 458 550 l 1
191 550 m 1
 202 515 l 1
 239 515 l 1
 209 494 l 1
 220 460 l 1
 191 481 l 1
 162 460 l 1
 173 494 l 1
 143 515 l 1
 180 515 l 1
 191 550 l 1
458 633 m 1
 469 598 l 1
 506 598 l 1
 476 577 l 1
 487 543 l 1
 458 564 l 1
 429 543 l 1
 440 577 l 1
 410 598 l 1
 447 598 l 1
 458 633 l 1
191 633 m 1
 202 598 l 1
 239 598 l 1
 209 577 l 1
 220 543 l 1
 191 564 l 1
 162 543 l 1
 173 577 l 1
 143 598 l 1
 180 598 l 1
 191 633 l 1
458 717 m 1
 469 682 l 1
 506 682 l 1
 476 661 l 1
 487 627 l 1
 458 648 l 1
 429 627 l 1
 440 661 l 1
 410 682 l 1
 447 682 l 1
 458 717 l 1
191 717 m 1
 202 682 l 1
 239 682 l 1
 209 661 l 1
 220 627 l 1
 191 648 l 1
 162 627 l 1
 173 661 l 1
 143 682 l 1
 180 682 l 1
 191 717 l 1
351 800 m 1
 362 765 l 1
 399 765 l 1
 369 744 l 1
 380 710 l 1
 351 731 l 1
 322 710 l 1
 333 744 l 1
 303 765 l 1
 340 765 l 1
 351 800 l 1
245 800 m 1
 256 765 l 1
 293 765 l 1
 263 744 l 1
 274 710 l 1
 245 731 l 1
 216 710 l 1
 227 744 l 1
 197 765 l 1
 234 765 l 1
 245 800 l 1
138 800 m 1
 149 765 l 1
 186 765 l 1
 156 744 l 1
 167 710 l 1
 138 731 l 1
 109 710 l 1
 120 744 l 1
 90 765 l 1
 127 765 l 1
 138 800 l 1
EndSplineSet
EndChar

StartChar: Ccedilla
Encoding: 199 199 16
Width: 600
VWidth: 0
UnlinkRmOvrlpSave: 1
Flags: W
HStem: 210 21G<275.471 296.619 299.381 320.529> 210 21G<275.471 296.619 299.381 320.529> 613 20G<131.714 144.286> 780 20G<184.714 197.286 291.714 304.286 398.714 411.286>
LayerCount: 2
Back
Fore
SplineSet
298 300 m 1x70
 309 265 l 1
 346 265 l 1
 316 244 l 1
 327 210 l 1
 298 231 l 1
 269 210 l 1
 280 244 l 1
 250 265 l 1
 287 265 l 1
 298 300 l 1x70
405 383 m 1
 416 348 l 1
 453 348 l 1
 423 327 l 1
 434 293 l 1
 405 314 l 1
 376 293 l 1
 387 327 l 1
 357 348 l 1
 394 348 l 1
 405 383 l 1
298 383 m 1
 309 348 l 1
 346 348 l 1
 316 327 l 1
 327 293 l 1
 298 314 l 1
 269 293 l 1
 280 327 l 1
 250 348 l 1
 287 348 l 1
 298 383 l 1
191 383 m 1
 202 348 l 1
 239 348 l 1
 209 327 l 1
 220 293 l 1
 191 314 l 1
 162 293 l 1
 173 327 l 1
 143 348 l 1
 180 348 l 1
 191 383 l 1
458 467 m 1
 469 432 l 1
 506 432 l 1
 476 411 l 1
 487 377 l 1
 458 398 l 1
 429 377 l 1
 440 411 l 1
 410 432 l 1
 447 432 l 1
 458 467 l 1
138 467 m 1
 149 432 l 1
 186 432 l 1
 156 411 l 1
 167 377 l 1
 138 398 l 1
 109 377 l 1
 120 411 l 1
 90 432 l 1
 127 432 l 1
 138 467 l 1
138 550 m 1
 149 515 l 1
 186 515 l 1
 156 494 l 1
 167 460 l 1
 138 481 l 1
 109 460 l 1
 120 494 l 1
 90 515 l 1
 127 515 l 1
 138 550 l 1
138 633 m 1
 149 598 l 1
 186 598 l 1
 156 577 l 1
 167 543 l 1
 138 564 l 1
 109 543 l 1
 120 577 l 1
 90 598 l 1
 127 598 l 1
 138 633 l 1
458 717 m 1
 469 682 l 1
 506 682 l 1
 476 661 l 1
 487 627 l 1
 458 648 l 1
 429 627 l 1
 440 661 l 1
 410 682 l 1
 447 682 l 1
 458 717 l 1
138 717 m 1
 149 682 l 1
 186 682 l 1
 156 661 l 1
 167 627 l 1
 138 648 l 1
 109 627 l 1
 120 661 l 1
 90 682 l 1
 127 682 l 1
 138 717 l 1
405 800 m 1
 416 765 l 1
 453 765 l 1
 423 744 l 1
 434 710 l 1
 405 731 l 1
 376 710 l 1
 387 744 l 1
 357 765 l 1
 394 765 l 1
 405 800 l 1
298 800 m 1
 309 765 l 1
 346 765 l 1
 316 744 l 1
 327 710 l 1
 298 731 l 1
 269 710 l 1
 280 744 l 1
 250 765 l 1
 287 765 l 1
 298 800 l 1
191 800 m 1
 202 765 l 1
 239 765 l 1
 209 744 l 1
 220 710 l 1
 191 731 l 1
 162 710 l 1
 173 744 l 1
 143 765 l 1
 180 765 l 1
 191 800 l 1
EndSplineSet
EndChar

StartChar: H
Encoding: 72 72 17
Width: 600
VWidth: 0
UnlinkRmOvrlpSave: 1
Flags: W
HStem: 210 21G<115.471 136.619 139.381 160.529 435.471 456.619 459.381 480.529> 210 21G<115.471 136.619 139.381 160.529 435.471 456.619 459.381 480.529> 613 20G<131.714 144.286 451.714 464.286> 780 20G<131.714 144.286 451.714 464.286>
LayerCount: 2
Back
Fore
SplineSet
458 300 m 1x70
 469 265 l 1
 506 265 l 1
 476 244 l 1
 487 210 l 1
 458 231 l 1
 429 210 l 1
 440 244 l 1
 410 265 l 1
 447 265 l 1
 458 300 l 1x70
138 300 m 1
 149 265 l 1
 186 265 l 1
 156 244 l 1
 167 210 l 1
 138 231 l 1
 109 210 l 1
 120 244 l 1
 90 265 l 1
 127 265 l 1
 138 300 l 1
458 383 m 1
 469 348 l 1
 506 348 l 1
 476 327 l 1
 487 293 l 1
 458 314 l 1
 429 293 l 1
 440 327 l 1
 410 348 l 1
 447 348 l 1
 458 383 l 1
138 383 m 1
 149 348 l 1
 186 348 l 1
 156 327 l 1
 167 293 l 1
 138 314 l 1
 109 293 l 1
 120 327 l 1
 90 348 l 1
 127 348 l 1
 138 383 l 1
458 467 m 1
 469 432 l 1
 506 432 l 1
 476 411 l 1
 487 377 l 1
 458 398 l 1
 429 377 l 1
 440 411 l 1
 410 432 l 1
 447 432 l 1
 458 467 l 1
138 467 m 1
 149 432 l 1
 186 432 l 1
 156 411 l 1
 167 377 l 1
 138 398 l 1
 109 377 l 1
 120 411 l 1
 90 432 l 1
 127 432 l 1
 138 467 l 1
458 550 m 1
 469 515 l 1
 506 515 l 1
 476 494 l 1
 487 460 l 1
 458 481 l 1
 429 460 l 1
 440 494 l 1
 410 515 l 1
 447 515 l 1
 458 550 l 1
351 550 m 1
 362 515 l 1
 399 515 l 1
 369 494 l 1
 380 460 l 1
 351 481 l 1
 322 460 l 1
 333 494 l 1
 303 515 l 1
 340 515 l 1
 351 550 l 1
245 550 m 1
 256 515 l 1
 293 515 l 1
 263 494 l 1
 274 460 l 1
 245 481 l 1
 216 460 l 1
 227 494 l 1
 197 515 l 1
 234 515 l 1
 245 550 l 1
138 550 m 1
 149 515 l 1
 186 515 l 1
 156 494 l 1
 167 460 l 1
 138 481 l 1
 109 460 l 1
 120 494 l 1
 90 515 l 1
 127 515 l 1
 138 550 l 1
458 633 m 1
 469 598 l 1
 506 598 l 1
 476 577 l 1
 487 543 l 1
 458 564 l 1
 429 543 l 1
 440 577 l 1
 410 598 l 1
 447 598 l 1
 458 633 l 1
138 633 m 1
 149 598 l 1
 186 598 l 1
 156 577 l 1
 167 543 l 1
 138 564 l 1
 109 543 l 1
 120 577 l 1
 90 598 l 1
 127 598 l 1
 138 633 l 1
458 717 m 1
 469 682 l 1
 506 682 l 1
 476 661 l 1
 487 627 l 1
 458 648 l 1
 429 627 l 1
 440 661 l 1
 410 682 l 1
 447 682 l 1
 458 717 l 1
138 717 m 1
 149 682 l 1
 186 682 l 1
 156 661 l 1
 167 627 l 1
 138 648 l 1
 109 627 l 1
 120 661 l 1
 90 682 l 1
 127 682 l 1
 138 717 l 1
458 800 m 1
 469 765 l 1
 506 765 l 1
 476 744 l 1
 487 710 l 1
 458 731 l 1
 429 710 l 1
 440 744 l 1
 410 765 l 1
 447 765 l 1
 458 800 l 1
138 800 m 1
 149 765 l 1
 186 765 l 1
 156 744 l 1
 167 710 l 1
 138 731 l 1
 109 710 l 1
 120 744 l 1
 90 765 l 1
 127 765 l 1
 138 800 l 1
EndSplineSet
EndChar

StartChar: Edieresis
Encoding: 203 203 18
Width: 600
VWidth: 0
UnlinkRmOvrlpSave: 1
Flags: W
HStem: 210 21G<115.471 136.619 139.381 160.529 222.471 243.619 246.381 267.529 328.471 349.619 352.381 373.529 435.471 456.619 459.381 480.529> 210 21G<115.471 136.619 139.381 160.529 222.471 243.619 246.381 267.529 328.471 349.619 352.381 373.529 435.471 456.619 459.381 480.529> 613 20G<131.714 144.286 238.714 251.286 344.714 357.286 451.714 464.286> 780 20G<184.714 197.286 398.714 411.286>
LayerCount: 2
Back
Fore
SplineSet
458 300 m 1x70
 469 265 l 1
 506 265 l 1
 476 244 l 1
 487 210 l 1
 458 231 l 1
 429 210 l 1
 440 244 l 1
 410 265 l 1
 447 265 l 1
 458 300 l 1x70
351 300 m 1
 362 265 l 1
 399 265 l 1
 369 244 l 1
 380 210 l 1
 351 231 l 1
 322 210 l 1
 333 244 l 1
 303 265 l 1
 340 265 l 1
 351 300 l 1
245 300 m 1
 256 265 l 1
 293 265 l 1
 263 244 l 1
 274 210 l 1
 245 231 l 1
 216 210 l 1
 227 244 l 1
 197 265 l 1
 234 265 l 1
 245 300 l 1
138 300 m 1
 149 265 l 1
 186 265 l 1
 156 244 l 1
 167 210 l 1
 138 231 l 1
 109 210 l 1
 120 244 l 1
 90 265 l 1
 127 265 l 1
 138 300 l 1
138 383 m 1
 149 348 l 1
 186 348 l 1
 156 327 l 1
 167 293 l 1
 138 314 l 1
 109 293 l 1
 120 327 l 1
 90 348 l 1
 127 348 l 1
 138 383 l 1
351 467 m 1
 362 432 l 1
 399 432 l 1
 369 411 l 1
 380 377 l 1
 351 398 l 1
 322 377 l 1
 333 411 l 1
 303 432 l 1
 340 432 l 1
 351 467 l 1
245 467 m 1
 256 432 l 1
 293 432 l 1
 263 411 l 1
 274 377 l 1
 245 398 l 1
 216 377 l 1
 227 411 l 1
 197 432 l 1
 234 432 l 1
 245 467 l 1
138 467 m 1
 149 432 l 1
 186 432 l 1
 156 411 l 1
 167 377 l 1
 138 398 l 1
 109 377 l 1
 120 411 l 1
 90 432 l 1
 127 432 l 1
 138 467 l 1
138 550 m 1
 149 515 l 1
 186 515 l 1
 156 494 l 1
 167 460 l 1
 138 481 l 1
 109 460 l 1
 120 494 l 1
 90 515 l 1
 127 515 l 1
 138 550 l 1
458 633 m 1
 469 598 l 1
 506 598 l 1
 476 577 l 1
 487 543 l 1
 458 564 l 1
 429 543 l 1
 440 577 l 1
 410 598 l 1
 447 598 l 1
 458 633 l 1
351 633 m 1
 362 598 l 1
 399 598 l 1
 369 577 l 1
 380 543 l 1
 351 564 l 1
 322 543 l 1
 333 577 l 1
 303 598 l 1
 340 598 l 1
 351 633 l 1
245 633 m 1
 256 598 l 1
 293 598 l 1
 263 577 l 1
 274 543 l 1
 245 564 l 1
 216 543 l 1
 227 577 l 1
 197 598 l 1
 234 598 l 1
 245 633 l 1
138 633 m 1
 149 598 l 1
 186 598 l 1
 156 577 l 1
 167 543 l 1
 138 564 l 1
 109 543 l 1
 120 577 l 1
 90 598 l 1
 127 598 l 1
 138 633 l 1
405 800 m 1
 416 765 l 1
 453 765 l 1
 423 744 l 1
 434 710 l 1
 405 731 l 1
 376 710 l 1
 387 744 l 1
 357 765 l 1
 394 765 l 1
 405 800 l 1
191 800 m 1
 202 765 l 1
 239 765 l 1
 209 744 l 1
 220 710 l 1
 191 731 l 1
 162 710 l 1
 173 744 l 1
 143 765 l 1
 180 765 l 1
 191 800 l 1
EndSplineSet
EndChar

StartChar: L
Encoding: 76 76 19
Width: 600
VWidth: 0
UnlinkRmOvrlpSave: 1
Flags: W
HStem: 210 21G<115.471 136.619 139.381 160.529 222.471 243.619 246.381 267.529 328.471 349.619 352.381 373.529 435.471 456.619 459.381 480.529> 210 21G<115.471 136.619 139.381 160.529 222.471 243.619 246.381 267.529 328.471 349.619 352.381 373.529 435.471 456.619 459.381 480.529> 613 20G<131.714 144.286> 780 20G<131.714 144.286>
LayerCount: 2
Back
Fore
SplineSet
458 300 m 1x70
 469 265 l 1
 506 265 l 1
 476 244 l 1
 487 210 l 1
 458 231 l 1
 429 210 l 1
 440 244 l 1
 410 265 l 1
 447 265 l 1
 458 300 l 1x70
351 300 m 1
 362 265 l 1
 399 265 l 1
 369 244 l 1
 380 210 l 1
 351 231 l 1
 322 210 l 1
 333 244 l 1
 303 265 l 1
 340 265 l 1
 351 300 l 1
245 300 m 1
 256 265 l 1
 293 265 l 1
 263 244 l 1
 274 210 l 1
 245 231 l 1
 216 210 l 1
 227 244 l 1
 197 265 l 1
 234 265 l 1
 245 300 l 1
138 300 m 1
 149 265 l 1
 186 265 l 1
 156 244 l 1
 167 210 l 1
 138 231 l 1
 109 210 l 1
 120 244 l 1
 90 265 l 1
 127 265 l 1
 138 300 l 1
138 383 m 1
 149 348 l 1
 186 348 l 1
 156 327 l 1
 167 293 l 1
 138 314 l 1
 109 293 l 1
 120 327 l 1
 90 348 l 1
 127 348 l 1
 138 383 l 1
138 467 m 1
 149 432 l 1
 186 432 l 1
 156 411 l 1
 167 377 l 1
 138 398 l 1
 109 377 l 1
 120 411 l 1
 90 432 l 1
 127 432 l 1
 138 467 l 1
138 550 m 1
 149 515 l 1
 186 515 l 1
 156 494 l 1
 167 460 l 1
 138 481 l 1
 109 460 l 1
 120 494 l 1
 90 515 l 1
 127 515 l 1
 138 550 l 1
138 633 m 1
 149 598 l 1
 186 598 l 1
 156 577 l 1
 167 543 l 1
 138 564 l 1
 109 543 l 1
 120 577 l 1
 90 598 l 1
 127 598 l 1
 138 633 l 1
138 717 m 1
 149 682 l 1
 186 682 l 1
 156 661 l 1
 167 627 l 1
 138 648 l 1
 109 627 l 1
 120 661 l 1
 90 682 l 1
 127 682 l 1
 138 717 l 1
138 800 m 1
 149 765 l 1
 186 765 l 1
 156 744 l 1
 167 710 l 1
 138 731 l 1
 109 710 l 1
 120 744 l 1
 90 765 l 1
 127 765 l 1
 138 800 l 1
EndSplineSet
EndChar

StartChar: P
Encoding: 80 80 20
Width: 600
VWidth: 0
UnlinkRmOvrlpSave: 1
Flags: W
HStem: 210 21G<115.471 136.619 139.381 160.529> 210 21G<115.471 136.619 139.381 160.529> 613 20G<131.714 144.286 451.714 464.286> 780 20G<131.714 144.286 238.714 251.286 344.714 357.286>
LayerCount: 2
Back
Fore
SplineSet
138 300 m 1x70
 149 265 l 1
 186 265 l 1
 156 244 l 1
 167 210 l 1
 138 231 l 1
 109 210 l 1
 120 244 l 1
 90 265 l 1
 127 265 l 1
 138 300 l 1x70
138 383 m 1
 149 348 l 1
 186 348 l 1
 156 327 l 1
 167 293 l 1
 138 314 l 1
 109 293 l 1
 120 327 l 1
 90 348 l 1
 127 348 l 1
 138 383 l 1
138 467 m 1
 149 432 l 1
 186 432 l 1
 156 411 l 1
 167 377 l 1
 138 398 l 1
 109 377 l 1
 120 411 l 1
 90 432 l 1
 127 432 l 1
 138 467 l 1
351 550 m 1
 362 515 l 1
 399 515 l 1
 369 494 l 1
 380 460 l 1
 351 481 l 1
 322 460 l 1
 333 494 l 1
 303 515 l 1
 340 515 l 1
 351 550 l 1
245 550 m 1
 256 515 l 1
 293 515 l 1
 263 494 l 1
 274 460 l 1
 245 481 l 1
 216 460 l 1
 227 494 l 1
 197 515 l 1
 234 515 l 1
 245 550 l 1
138 550 m 1
 149 515 l 1
 186 515 l 1
 156 494 l 1
 167 460 l 1
 138 481 l 1
 109 460 l 1
 120 494 l 1
 90 515 l 1
 127 515 l 1
 138 550 l 1
458 633 m 1
 469 598 l 1
 506 598 l 1
 476 577 l 1
 487 543 l 1
 458 564 l 1
 429 543 l 1
 440 577 l 1
 410 598 l 1
 447 598 l 1
 458 633 l 1
138 633 m 1
 149 598 l 1
 186 598 l 1
 156 577 l 1
 167 543 l 1
 138 564 l 1
 109 543 l 1
 120 577 l 1
 90 598 l 1
 127 598 l 1
 138 633 l 1
458 717 m 1
 469 682 l 1
 506 682 l 1
 476 661 l 1
 487 627 l 1
 458 648 l 1
 429 627 l 1
 440 661 l 1
 410 682 l 1
 447 682 l 1
 458 717 l 1
138 717 m 1
 149 682 l 1
 186 682 l 1
 156 661 l 1
 167 627 l 1
 138 648 l 1
 109 627 l 1
 120 661 l 1
 90 682 l 1
 127 682 l 1
 138 717 l 1
351 800 m 1
 362 765 l 1
 399 765 l 1
 369 744 l 1
 380 710 l 1
 351 731 l 1
 322 710 l 1
 333 744 l 1
 303 765 l 1
 340 765 l 1
 351 800 l 1
245 800 m 1
 256 765 l 1
 293 765 l 1
 263 744 l 1
 274 710 l 1
 245 731 l 1
 216 710 l 1
 227 744 l 1
 197 765 l 1
 234 765 l 1
 245 800 l 1
138 800 m 1
 149 765 l 1
 186 765 l 1
 156 744 l 1
 167 710 l 1
 138 731 l 1
 109 710 l 1
 120 744 l 1
 90 765 l 1
 127 765 l 1
 138 800 l 1
EndSplineSet
EndChar

StartChar: T
Encoding: 84 84 21
Width: 600
VWidth: 0
UnlinkRmOvrlpSave: 1
Flags: W
HStem: 210 21G<275.471 296.619 299.381 320.529> 210 21G<275.471 296.619 299.381 320.529> 613 20G<291.714 304.286> 780 20G<131.714 144.286 238.714 251.286 344.714 357.286 451.714 464.286>
LayerCount: 2
Back
Fore
SplineSet
298 300 m 1x70
 309 265 l 1
 346 265 l 1
 316 244 l 1
 327 210 l 1
 298 231 l 1
 269 210 l 1
 280 244 l 1
 250 265 l 1
 287 265 l 1
 298 300 l 1x70
298 383 m 1
 309 348 l 1
 346 348 l 1
 316 327 l 1
 327 293 l 1
 298 314 l 1
 269 293 l 1
 280 327 l 1
 250 348 l 1
 287 348 l 1
 298 383 l 1
298 467 m 1
 309 432 l 1
 346 432 l 1
 316 411 l 1
 327 377 l 1
 298 398 l 1
 269 377 l 1
 280 411 l 1
 250 432 l 1
 287 432 l 1
 298 467 l 1
298 550 m 1
 309 515 l 1
 346 515 l 1
 316 494 l 1
 327 460 l 1
 298 481 l 1
 269 460 l 1
 280 494 l 1
 250 515 l 1
 287 515 l 1
 298 550 l 1
298 633 m 1
 309 598 l 1
 346 598 l 1
 316 577 l 1
 327 543 l 1
 298 564 l 1
 269 543 l 1
 280 577 l 1
 250 598 l 1
 287 598 l 1
 298 633 l 1
298 717 m 1
 309 682 l 1
 346 682 l 1
 316 661 l 1
 327 627 l 1
 298 648 l 1
 269 627 l 1
 280 661 l 1
 250 682 l 1
 287 682 l 1
 298 717 l 1
458 800 m 1
 469 765 l 1
 506 765 l 1
 476 744 l 1
 487 710 l 1
 458 731 l 1
 429 710 l 1
 440 744 l 1
 410 765 l 1
 447 765 l 1
 458 800 l 1
351 800 m 1
 362 765 l 1
 399 765 l 1
 369 744 l 1
 380 710 l 1
 351 731 l 1
 322 710 l 1
 333 744 l 1
 303 765 l 1
 340 765 l 1
 351 800 l 1
245 800 m 1
 256 765 l 1
 293 765 l 1
 263 744 l 1
 274 710 l 1
 245 731 l 1
 216 710 l 1
 227 744 l 1
 197 765 l 1
 234 765 l 1
 245 800 l 1
138 800 m 1
 149 765 l 1
 186 765 l 1
 156 744 l 1
 167 710 l 1
 138 731 l 1
 109 710 l 1
 120 744 l 1
 90 765 l 1
 127 765 l 1
 138 800 l 1
EndSplineSet
EndChar

StartChar: multiply
Encoding: 215 215 22
Width: 600
VWidth: 0
UnlinkRmOvrlpSave: 1
Flags: W
HStem: 613 20G<185.714 198.286 291.714 304.286>
VStem: 90 310
LayerCount: 2
Back
Fore
SplineSet
352 383 m 1
 363 348 l 1
 400 348 l 1
 370 327 l 1
 381 293 l 1
 352 314 l 1
 323 293 l 1
 334 327 l 1
 304 348 l 1
 341 348 l 1
 352 383 l 1
138 383 m 1
 149 348 l 1
 186 348 l 1
 156 327 l 1
 167 293 l 1
 138 314 l 1
 109 293 l 1
 120 327 l 1
 90 348 l 1
 127 348 l 1
 138 383 l 1
298 467 m 1
 309 432 l 1
 346 432 l 1
 316 411 l 1
 327 377 l 1
 298 398 l 1
 269 377 l 1
 280 411 l 1
 250 432 l 1
 287 432 l 1
 298 467 l 1
192 467 m 1
 203 432 l 1
 240 432 l 1
 210 411 l 1
 221 377 l 1
 192 398 l 1
 163 377 l 1
 174 411 l 1
 144 432 l 1
 181 432 l 1
 192 467 l 1
245 550 m 1
 256 515 l 1
 293 515 l 1
 263 494 l 1
 274 460 l 1
 245 481 l 1
 216 460 l 1
 227 494 l 1
 197 515 l 1
 234 515 l 1
 245 550 l 1
298 633 m 1
 309 598 l 1
 346 598 l 1
 316 577 l 1
 327 543 l 1
 298 564 l 1
 269 543 l 1
 280 577 l 1
 250 598 l 1
 287 598 l 1
 298 633 l 1
192 633 m 1
 203 598 l 1
 240 598 l 1
 210 577 l 1
 221 543 l 1
 192 564 l 1
 163 543 l 1
 174 577 l 1
 144 598 l 1
 181 598 l 1
 192 633 l 1
352 717 m 1
 363 682 l 1
 400 682 l 1
 370 661 l 1
 381 627 l 1
 352 648 l 1
 323 627 l 1
 334 661 l 1
 304 682 l 1
 341 682 l 1
 352 717 l 1
138 717 m 1
 149 682 l 1
 186 682 l 1
 156 661 l 1
 167 627 l 1
 138 648 l 1
 109 627 l 1
 120 661 l 1
 90 682 l 1
 127 682 l 1
 138 717 l 1
EndSplineSet
EndChar

StartChar: X
Encoding: 88 88 23
Width: 600
VWidth: 0
UnlinkRmOvrlpSave: 1
Flags: W
HStem: 210 21G<115.471 136.619 139.381 160.529 435.471 456.619 459.381 480.529> 210 21G<115.471 136.619 139.381 160.529 435.471 456.619 459.381 480.529> 613 20G<238.714 251.286 344.714 357.286> 780 20G<131.714 144.286 451.714 464.286>
LayerCount: 2
Back
Fore
SplineSet
458 300 m 1x70
 469 265 l 1
 506 265 l 1
 476 244 l 1
 487 210 l 1
 458 231 l 1
 429 210 l 1
 440 244 l 1
 410 265 l 1
 447 265 l 1
 458 300 l 1x70
138 300 m 1
 149 265 l 1
 186 265 l 1
 156 244 l 1
 167 210 l 1
 138 231 l 1
 109 210 l 1
 120 244 l 1
 90 265 l 1
 127 265 l 1
 138 300 l 1
405 383 m 1
 416 348 l 1
 453 348 l 1
 423 327 l 1
 434 293 l 1
 405 314 l 1
 376 293 l 1
 387 327 l 1
 357 348 l 1
 394 348 l 1
 405 383 l 1
191 383 m 1
 202 348 l 1
 239 348 l 1
 209 327 l 1
 220 293 l 1
 191 314 l 1
 162 293 l 1
 173 327 l 1
 143 348 l 1
 180 348 l 1
 191 383 l 1
351 467 m 1
 362 432 l 1
 399 432 l 1
 369 411 l 1
 380 377 l 1
 351 398 l 1
 322 377 l 1
 333 411 l 1
 303 432 l 1
 340 432 l 1
 351 467 l 1
245 467 m 1
 256 432 l 1
 293 432 l 1
 263 411 l 1
 274 377 l 1
 245 398 l 1
 216 377 l 1
 227 411 l 1
 197 432 l 1
 234 432 l 1
 245 467 l 1
298 550 m 1
 309 515 l 1
 346 515 l 1
 316 494 l 1
 327 460 l 1
 298 481 l 1
 269 460 l 1
 280 494 l 1
 250 515 l 1
 287 515 l 1
 298 550 l 1
351 633 m 1
 362 598 l 1
 399 598 l 1
 369 577 l 1
 380 543 l 1
 351 564 l 1
 322 543 l 1
 333 577 l 1
 303 598 l 1
 340 598 l 1
 351 633 l 1
245 633 m 1
 256 598 l 1
 293 598 l 1
 263 577 l 1
 274 543 l 1
 245 564 l 1
 216 543 l 1
 227 577 l 1
 197 598 l 1
 234 598 l 1
 245 633 l 1
405 717 m 1
 416 682 l 1
 453 682 l 1
 423 661 l 1
 434 627 l 1
 405 648 l 1
 376 627 l 1
 387 661 l 1
 357 682 l 1
 394 682 l 1
 405 717 l 1
191 717 m 1
 202 682 l 1
 239 682 l 1
 209 661 l 1
 220 627 l 1
 191 648 l 1
 162 627 l 1
 173 661 l 1
 143 682 l 1
 180 682 l 1
 191 717 l 1
458 800 m 1
 469 765 l 1
 506 765 l 1
 476 744 l 1
 487 710 l 1
 458 731 l 1
 429 710 l 1
 440 744 l 1
 410 765 l 1
 447 765 l 1
 458 800 l 1
138 800 m 1
 149 765 l 1
 186 765 l 1
 156 744 l 1
 167 710 l 1
 138 731 l 1
 109 710 l 1
 120 744 l 1
 90 765 l 1
 127 765 l 1
 138 800 l 1
EndSplineSet
EndChar

StartChar: backslash
Encoding: 92 92 24
Width: 600
VWidth: 0
UnlinkRmOvrlpSave: 1
Flags: W
HStem: 210 21G<435.471 456.619 459.381 480.529> 210 21G<435.471 456.619 459.381 480.529> 613 20G<238.714 251.286> 780 20G<131.714 144.286>
LayerCount: 2
Back
Fore
SplineSet
458 300 m 1x70
 469 265 l 1
 506 265 l 1
 476 244 l 1
 487 210 l 1
 458 231 l 1
 429 210 l 1
 440 244 l 1
 410 265 l 1
 447 265 l 1
 458 300 l 1x70
405 383 m 1
 416 348 l 1
 453 348 l 1
 423 327 l 1
 434 293 l 1
 405 314 l 1
 376 293 l 1
 387 327 l 1
 357 348 l 1
 394 348 l 1
 405 383 l 1
351 467 m 1
 362 432 l 1
 399 432 l 1
 369 411 l 1
 380 377 l 1
 351 398 l 1
 322 377 l 1
 333 411 l 1
 303 432 l 1
 340 432 l 1
 351 467 l 1
298 550 m 1
 309 515 l 1
 346 515 l 1
 316 494 l 1
 327 460 l 1
 298 481 l 1
 269 460 l 1
 280 494 l 1
 250 515 l 1
 287 515 l 1
 298 550 l 1
245 633 m 1
 256 598 l 1
 293 598 l 1
 263 577 l 1
 274 543 l 1
 245 564 l 1
 216 543 l 1
 227 577 l 1
 197 598 l 1
 234 598 l 1
 245 633 l 1
191 717 m 1
 202 682 l 1
 239 682 l 1
 209 661 l 1
 220 627 l 1
 191 648 l 1
 162 627 l 1
 173 661 l 1
 143 682 l 1
 180 682 l 1
 191 717 l 1
138 800 m 1
 149 765 l 1
 186 765 l 1
 156 744 l 1
 167 710 l 1
 138 731 l 1
 109 710 l 1
 120 744 l 1
 90 765 l 1
 127 765 l 1
 138 800 l 1
EndSplineSet
EndChar

StartChar: germandbls
Encoding: 223 223 25
Width: 600
VWidth: 0
UnlinkRmOvrlpSave: 1
Flags: W
HStem: 210 21G<115.471 136.619 139.381 160.529 275.471 296.619 299.381 320.529 382.471 403.619 406.381 427.529> 210 21G<115.471 136.619 139.381 160.529 275.471 296.619 299.381 320.529 382.471 403.619 406.381 427.529> 613 20G<131.714 144.286 291.714 304.286> 780 20G<184.714 197.286 291.714 304.286>
LayerCount: 2
Back
Fore
SplineSet
405 300 m 1x70
 416 265 l 1
 453 265 l 1
 423 244 l 1
 434 210 l 1
 405 231 l 1
 376 210 l 1
 387 244 l 1
 357 265 l 1
 394 265 l 1
 405 300 l 1x70
298 300 m 1
 309 265 l 1
 346 265 l 1
 316 244 l 1
 327 210 l 1
 298 231 l 1
 269 210 l 1
 280 244 l 1
 250 265 l 1
 287 265 l 1
 298 300 l 1
138 300 m 1
 149 265 l 1
 186 265 l 1
 156 244 l 1
 167 210 l 1
 138 231 l 1
 109 210 l 1
 120 244 l 1
 90 265 l 1
 127 265 l 1
 138 300 l 1
458 383 m 1
 469 348 l 1
 506 348 l 1
 476 327 l 1
 487 293 l 1
 458 314 l 1
 429 293 l 1
 440 327 l 1
 410 348 l 1
 447 348 l 1
 458 383 l 1
138 383 m 1
 149 348 l 1
 186 348 l 1
 156 327 l 1
 167 293 l 1
 138 314 l 1
 109 293 l 1
 120 327 l 1
 90 348 l 1
 127 348 l 1
 138 383 l 1
458 467 m 1
 469 432 l 1
 506 432 l 1
 476 411 l 1
 487 377 l 1
 458 398 l 1
 429 377 l 1
 440 411 l 1
 410 432 l 1
 447 432 l 1
 458 467 l 1
138 467 m 1
 149 432 l 1
 186 432 l 1
 156 411 l 1
 167 377 l 1
 138 398 l 1
 109 377 l 1
 120 411 l 1
 90 432 l 1
 127 432 l 1
 138 467 l 1
351 550 m 1
 362 515 l 1
 399 515 l 1
 369 494 l 1
 380 460 l 1
 351 481 l 1
 322 460 l 1
 333 494 l 1
 303 515 l 1
 340 515 l 1
 351 550 l 1
245 550 m 1
 256 515 l 1
 293 515 l 1
 263 494 l 1
 274 460 l 1
 245 481 l 1
 216 460 l 1
 227 494 l 1
 197 515 l 1
 234 515 l 1
 245 550 l 1
138 550 m 1
 149 515 l 1
 186 515 l 1
 156 494 l 1
 167 460 l 1
 138 481 l 1
 109 460 l 1
 120 494 l 1
 90 515 l 1
 127 515 l 1
 138 550 l 1
298 633 m 1
 309 598 l 1
 346 598 l 1
 316 577 l 1
 327 543 l 1
 298 564 l 1
 269 543 l 1
 280 577 l 1
 250 598 l 1
 287 598 l 1
 298 633 l 1
138 633 m 1
 149 598 l 1
 186 598 l 1
 156 577 l 1
 167 543 l 1
 138 564 l 1
 109 543 l 1
 120 577 l 1
 90 598 l 1
 127 598 l 1
 138 633 l 1
351 717 m 1
 362 682 l 1
 399 682 l 1
 369 661 l 1
 380 627 l 1
 351 648 l 1
 322 627 l 1
 333 661 l 1
 303 682 l 1
 340 682 l 1
 351 717 l 1
138 717 m 1
 149 682 l 1
 186 682 l 1
 156 661 l 1
 167 627 l 1
 138 648 l 1
 109 627 l 1
 120 661 l 1
 90 682 l 1
 127 682 l 1
 138 717 l 1
298 800 m 1
 309 765 l 1
 346 765 l 1
 316 744 l 1
 327 710 l 1
 298 731 l 1
 269 710 l 1
 280 744 l 1
 250 765 l 1
 287 765 l 1
 298 800 l 1
191 800 m 1
 202 765 l 1
 239 765 l 1
 209 744 l 1
 220 710 l 1
 191 731 l 1
 162 710 l 1
 173 744 l 1
 143 765 l 1
 180 765 l 1
 191 800 l 1
EndSplineSet
EndChar

StartChar: grave
Encoding: 96 96 26
Width: 600
VWidth: 0
UnlinkRmOvrlpSave: 1
Flags: W
HStem: 543 257 613 20G<237.714 250.286>
VStem: 90 202
LayerCount: 2
Back
Fore
SplineSet
244 633 m 1x60
 255 598 l 1
 292 598 l 1
 262 577 l 1
 273 543 l 1
 244 564 l 1
 215 543 l 1xa0
 226 577 l 1
 196 598 l 1
 233 598 l 1
 244 633 l 1x60
191 717 m 1
 202 682 l 1
 239 682 l 1
 209 661 l 1
 220 627 l 1
 191 648 l 1
 162 627 l 1
 173 661 l 1
 143 682 l 1
 180 682 l 1
 191 717 l 1
138 800 m 1
 149 765 l 1
 186 765 l 1
 156 744 l 1
 167 710 l 1
 138 731 l 1
 109 710 l 1
 120 744 l 1
 90 765 l 1
 127 765 l 1
 138 800 l 1
EndSplineSet
EndChar

StartChar: d
Encoding: 100 100 27
Width: 600
VWidth: 0
UnlinkRmOvrlpSave: 1
Flags: W
HStem: 210 21G<222.471 243.619 246.381 267.529 328.471 349.619 352.381 373.529 435.471 456.619 459.381 480.529> 210 21G<222.471 243.619 246.381 267.529 328.471 349.619 352.381 373.529 435.471 456.619 459.381 480.529> 613 20G<184.714 197.286 291.714 304.286 398.714 411.286> 780 20G<451.714 464.286>
LayerCount: 2
Back
Fore
SplineSet
458 300 m 1x70
 469 265 l 1
 506 265 l 1
 476 244 l 1
 487 210 l 1
 458 231 l 1
 429 210 l 1
 440 244 l 1
 410 265 l 1
 447 265 l 1
 458 300 l 1x70
351 300 m 1
 362 265 l 1
 399 265 l 1
 369 244 l 1
 380 210 l 1
 351 231 l 1
 322 210 l 1
 333 244 l 1
 303 265 l 1
 340 265 l 1
 351 300 l 1
245 300 m 1
 256 265 l 1
 293 265 l 1
 263 244 l 1
 274 210 l 1
 245 231 l 1
 216 210 l 1
 227 244 l 1
 197 265 l 1
 234 265 l 1
 245 300 l 1
458 383 m 1
 469 348 l 1
 506 348 l 1
 476 327 l 1
 487 293 l 1
 458 314 l 1
 429 293 l 1
 440 327 l 1
 410 348 l 1
 447 348 l 1
 458 383 l 1
138 383 m 1
 149 348 l 1
 186 348 l 1
 156 327 l 1
 167 293 l 1
 138 314 l 1
 109 293 l 1
 120 327 l 1
 90 348 l 1
 127 348 l 1
 138 383 l 1
458 467 m 1
 469 432 l 1
 506 432 l 1
 476 411 l 1
 487 377 l 1
 458 398 l 1
 429 377 l 1
 440 411 l 1
 410 432 l 1
 447 432 l 1
 458 467 l 1
138 467 m 1
 149 432 l 1
 186 432 l 1
 156 411 l 1
 167 377 l 1
 138 398 l 1
 109 377 l 1
 120 411 l 1
 90 432 l 1
 127 432 l 1
 138 467 l 1
458 550 m 1
 469 515 l 1
 506 515 l 1
 476 494 l 1
 487 460 l 1
 458 481 l 1
 429 460 l 1
 440 494 l 1
 410 515 l 1
 447 515 l 1
 458 550 l 1
138 550 m 1
 149 515 l 1
 186 515 l 1
 156 494 l 1
 167 460 l 1
 138 481 l 1
 109 460 l 1
 120 494 l 1
 90 515 l 1
 127 515 l 1
 138 550 l 1
405 633 m 1
 416 598 l 1
 453 598 l 1
 423 577 l 1
 434 543 l 1
 405 564 l 1
 376 543 l 1
 387 577 l 1
 357 598 l 1
 394 598 l 1
 405 633 l 1
298 633 m 1
 309 598 l 1
 346 598 l 1
 316 577 l 1
 327 543 l 1
 298 564 l 1
 269 543 l 1
 280 577 l 1
 250 598 l 1
 287 598 l 1
 298 633 l 1
191 633 m 1
 202 598 l 1
 239 598 l 1
 209 577 l 1
 220 543 l 1
 191 564 l 1
 162 543 l 1
 173 577 l 1
 143 598 l 1
 180 598 l 1
 191 633 l 1
458 717 m 1
 469 682 l 1
 506 682 l 1
 476 661 l 1
 487 627 l 1
 458 648 l 1
 429 627 l 1
 440 661 l 1
 410 682 l 1
 447 682 l 1
 458 717 l 1
458 800 m 1
 469 765 l 1
 506 765 l 1
 476 744 l 1
 487 710 l 1
 458 731 l 1
 429 710 l 1
 440 744 l 1
 410 765 l 1
 447 765 l 1
 458 800 l 1
EndSplineSet
EndChar

StartChar: ccedilla
Encoding: 231 231 28
Width: 600
VWidth: 0
UnlinkRmOvrlpSave: 1
Flags: W
HStem: 210 21G<275.471 296.619 299.381 320.529> 210 21G<275.471 296.619 299.381 320.529> 613 20G<131.714 144.286 451.714 464.286>
LayerCount: 2
Back
Fore
SplineSet
298 300 m 1x60
 309 265 l 1
 346 265 l 1
 316 244 l 1
 327 210 l 1
 298 231 l 1
 269 210 l 1
 280 244 l 1
 250 265 l 1
 287 265 l 1
 298 300 l 1x60
405 383 m 1
 416 348 l 1
 453 348 l 1
 423 327 l 1
 434 293 l 1
 405 314 l 1
 376 293 l 1
 387 327 l 1
 357 348 l 1
 394 348 l 1
 405 383 l 1
298 383 m 1
 309 348 l 1
 346 348 l 1
 316 327 l 1
 327 293 l 1
 298 314 l 1
 269 293 l 1
 280 327 l 1
 250 348 l 1
 287 348 l 1
 298 383 l 1
191 383 m 1
 202 348 l 1
 239 348 l 1
 209 327 l 1
 220 293 l 1
 191 314 l 1
 162 293 l 1
 173 327 l 1
 143 348 l 1
 180 348 l 1
 191 383 l 1
138 467 m 1
 149 432 l 1
 186 432 l 1
 156 411 l 1
 167 377 l 1
 138 398 l 1
 109 377 l 1
 120 411 l 1
 90 432 l 1
 127 432 l 1
 138 467 l 1
138 550 m 1
 149 515 l 1
 186 515 l 1
 156 494 l 1
 167 460 l 1
 138 481 l 1
 109 460 l 1
 120 494 l 1
 90 515 l 1
 127 515 l 1
 138 550 l 1
458 633 m 1
 469 598 l 1
 506 598 l 1
 476 577 l 1
 487 543 l 1
 458 564 l 1
 429 543 l 1
 440 577 l 1
 410 598 l 1
 447 598 l 1
 458 633 l 1
138 633 m 1
 149 598 l 1
 186 598 l 1
 156 577 l 1
 167 543 l 1
 138 564 l 1
 109 543 l 1
 120 577 l 1
 90 598 l 1
 127 598 l 1
 138 633 l 1
405 717 m 1
 416 682 l 1
 453 682 l 1
 423 661 l 1
 434 627 l 1
 405 648 l 1
 376 627 l 1
 387 661 l 1
 357 682 l 1
 394 682 l 1
 405 717 l 1
298 717 m 1
 309 682 l 1
 346 682 l 1
 316 661 l 1
 327 627 l 1
 298 648 l 1
 269 627 l 1
 280 661 l 1
 250 682 l 1
 287 682 l 1
 298 717 l 1
191 717 m 1
 202 682 l 1
 239 682 l 1
 209 661 l 1
 220 627 l 1
 191 648 l 1
 162 627 l 1
 173 661 l 1
 143 682 l 1
 180 682 l 1
 191 717 l 1
EndSplineSet
EndChar

StartChar: h
Encoding: 104 104 29
Width: 600
VWidth: 0
UnlinkRmOvrlpSave: 1
Flags: W
HStem: 210 21G<115.471 136.619 139.381 160.529 435.471 456.619 459.381 480.529> 210 21G<115.471 136.619 139.381 160.529 435.471 456.619 459.381 480.529> 613 20G<184.714 197.286 291.714 304.286 398.714 411.286> 780 20G<131.714 144.286>
LayerCount: 2
Back
Fore
SplineSet
458 300 m 1x70
 469 265 l 1
 506 265 l 1
 476 244 l 1
 487 210 l 1
 458 231 l 1
 429 210 l 1
 440 244 l 1
 410 265 l 1
 447 265 l 1
 458 300 l 1x70
138 300 m 1
 149 265 l 1
 186 265 l 1
 156 244 l 1
 167 210 l 1
 138 231 l 1
 109 210 l 1
 120 244 l 1
 90 265 l 1
 127 265 l 1
 138 300 l 1
458 383 m 1
 469 348 l 1
 506 348 l 1
 476 327 l 1
 487 293 l 1
 458 314 l 1
 429 293 l 1
 440 327 l 1
 410 348 l 1
 447 348 l 1
 458 383 l 1
138 383 m 1
 149 348 l 1
 186 348 l 1
 156 327 l 1
 167 293 l 1
 138 314 l 1
 109 293 l 1
 120 327 l 1
 90 348 l 1
 127 348 l 1
 138 383 l 1
458 467 m 1
 469 432 l 1
 506 432 l 1
 476 411 l 1
 487 377 l 1
 458 398 l 1
 429 377 l 1
 440 411 l 1
 410 432 l 1
 447 432 l 1
 458 467 l 1
138 467 m 1
 149 432 l 1
 186 432 l 1
 156 411 l 1
 167 377 l 1
 138 398 l 1
 109 377 l 1
 120 411 l 1
 90 432 l 1
 127 432 l 1
 138 467 l 1
458 550 m 1
 469 515 l 1
 506 515 l 1
 476 494 l 1
 487 460 l 1
 458 481 l 1
 429 460 l 1
 440 494 l 1
 410 515 l 1
 447 515 l 1
 458 550 l 1
138 550 m 1
 149 515 l 1
 186 515 l 1
 156 494 l 1
 167 460 l 1
 138 481 l 1
 109 460 l 1
 120 494 l 1
 90 515 l 1
 127 515 l 1
 138 550 l 1
405 633 m 1
 416 598 l 1
 453 598 l 1
 423 577 l 1
 434 543 l 1
 405 564 l 1
 376 543 l 1
 387 577 l 1
 357 598 l 1
 394 598 l 1
 405 633 l 1
298 633 m 1
 309 598 l 1
 346 598 l 1
 316 577 l 1
 327 543 l 1
 298 564 l 1
 269 543 l 1
 280 577 l 1
 250 598 l 1
 287 598 l 1
 298 633 l 1
191 633 m 1
 202 598 l 1
 239 598 l 1
 209 577 l 1
 220 543 l 1
 191 564 l 1
 162 543 l 1
 173 577 l 1
 143 598 l 1
 180 598 l 1
 191 633 l 1
138 717 m 1
 149 682 l 1
 186 682 l 1
 156 661 l 1
 167 627 l 1
 138 648 l 1
 109 627 l 1
 120 661 l 1
 90 682 l 1
 127 682 l 1
 138 717 l 1
138 800 m 1
 149 765 l 1
 186 765 l 1
 156 744 l 1
 167 710 l 1
 138 731 l 1
 109 710 l 1
 120 744 l 1
 90 765 l 1
 127 765 l 1
 138 800 l 1
EndSplineSet
EndChar

StartChar: edieresis
Encoding: 235 235 30
Width: 600
VWidth: 0
UnlinkRmOvrlpSave: 1
Flags: W
HStem: 210 21G<168.471 189.619 192.381 213.529 275.471 296.619 299.381 320.529 382.471 403.619 406.381 427.529> 210 21G<168.471 189.619 192.381 213.529 275.471 296.619 299.381 320.529 382.471 403.619 406.381 427.529> 613 20G<184.714 197.286 291.714 304.286 398.714 411.286> 780 20G<184.714 197.286 398.714 411.286>
LayerCount: 2
Back
Fore
SplineSet
405 300 m 1x70
 416 265 l 1
 453 265 l 1
 423 244 l 1
 434 210 l 1
 405 231 l 1
 376 210 l 1
 387 244 l 1
 357 265 l 1
 394 265 l 1
 405 300 l 1x70
298 300 m 1
 309 265 l 1
 346 265 l 1
 316 244 l 1
 327 210 l 1
 298 231 l 1
 269 210 l 1
 280 244 l 1
 250 265 l 1
 287 265 l 1
 298 300 l 1
191 300 m 1
 202 265 l 1
 239 265 l 1
 209 244 l 1
 220 210 l 1
 191 231 l 1
 162 210 l 1
 173 244 l 1
 143 265 l 1
 180 265 l 1
 191 300 l 1
138 383 m 1
 149 348 l 1
 186 348 l 1
 156 327 l 1
 167 293 l 1
 138 314 l 1
 109 293 l 1
 120 327 l 1
 90 348 l 1
 127 348 l 1
 138 383 l 1
458 467 m 1
 469 432 l 1
 506 432 l 1
 476 411 l 1
 487 377 l 1
 458 398 l 1
 429 377 l 1
 440 411 l 1
 410 432 l 1
 447 432 l 1
 458 467 l 1
351 467 m 1
 362 432 l 1
 399 432 l 1
 369 411 l 1
 380 377 l 1
 351 398 l 1
 322 377 l 1
 333 411 l 1
 303 432 l 1
 340 432 l 1
 351 467 l 1
245 467 m 1
 256 432 l 1
 293 432 l 1
 263 411 l 1
 274 377 l 1
 245 398 l 1
 216 377 l 1
 227 411 l 1
 197 432 l 1
 234 432 l 1
 245 467 l 1
138 467 m 1
 149 432 l 1
 186 432 l 1
 156 411 l 1
 167 377 l 1
 138 398 l 1
 109 377 l 1
 120 411 l 1
 90 432 l 1
 127 432 l 1
 138 467 l 1
458 550 m 1
 469 515 l 1
 506 515 l 1
 476 494 l 1
 487 460 l 1
 458 481 l 1
 429 460 l 1
 440 494 l 1
 410 515 l 1
 447 515 l 1
 458 550 l 1
138 550 m 1
 149 515 l 1
 186 515 l 1
 156 494 l 1
 167 460 l 1
 138 481 l 1
 109 460 l 1
 120 494 l 1
 90 515 l 1
 127 515 l 1
 138 550 l 1
405 633 m 1
 416 598 l 1
 453 598 l 1
 423 577 l 1
 434 543 l 1
 405 564 l 1
 376 543 l 1
 387 577 l 1
 357 598 l 1
 394 598 l 1
 405 633 l 1
298 633 m 1
 309 598 l 1
 346 598 l 1
 316 577 l 1
 327 543 l 1
 298 564 l 1
 269 543 l 1
 280 577 l 1
 250 598 l 1
 287 598 l 1
 298 633 l 1
191 633 m 1
 202 598 l 1
 239 598 l 1
 209 577 l 1
 220 543 l 1
 191 564 l 1
 162 543 l 1
 173 577 l 1
 143 598 l 1
 180 598 l 1
 191 633 l 1
405 800 m 1
 416 765 l 1
 453 765 l 1
 423 744 l 1
 434 710 l 1
 405 731 l 1
 376 710 l 1
 387 744 l 1
 357 765 l 1
 394 765 l 1
 405 800 l 1
191 800 m 1
 202 765 l 1
 239 765 l 1
 209 744 l 1
 220 710 l 1
 191 731 l 1
 162 710 l 1
 173 744 l 1
 143 765 l 1
 180 765 l 1
 191 800 l 1
EndSplineSet
EndChar

StartChar: l
Encoding: 108 108 31
Width: 600
VWidth: 0
UnlinkRmOvrlpSave: 1
Flags: W
HStem: 210 21G<115.471 136.619 139.381 160.529 222.471 243.619 246.381 267.529 329.471 350.619 353.381 374.529> 210 21G<115.471 136.619 139.381 160.529 222.471 243.619 246.381 267.529 329.471 350.619 353.381 374.529> 613 20G<238.714 251.286> 780 20G<131.714 144.286 238.714 251.286>
VStem: 90 310
LayerCount: 2
Back
Fore
SplineSet
352 300 m 1x78
 363 265 l 1
 400 265 l 1
 370 244 l 1
 381 210 l 1
 352 231 l 1
 323 210 l 1
 334 244 l 1
 304 265 l 1
 341 265 l 1
 352 300 l 1x78
245 300 m 1
 256 265 l 1
 293 265 l 1
 263 244 l 1
 274 210 l 1
 245 231 l 1
 216 210 l 1
 227 244 l 1
 197 265 l 1
 234 265 l 1
 245 300 l 1
138 300 m 1
 149 265 l 1
 186 265 l 1
 156 244 l 1
 167 210 l 1
 138 231 l 1
 109 210 l 1
 120 244 l 1
 90 265 l 1
 127 265 l 1
 138 300 l 1
245 383 m 1
 256 348 l 1
 293 348 l 1
 263 327 l 1
 274 293 l 1
 245 314 l 1
 216 293 l 1
 227 327 l 1
 197 348 l 1
 234 348 l 1
 245 383 l 1
245 467 m 1
 256 432 l 1
 293 432 l 1
 263 411 l 1
 274 377 l 1
 245 398 l 1
 216 377 l 1
 227 411 l 1
 197 432 l 1
 234 432 l 1
 245 467 l 1
245 550 m 1
 256 515 l 1
 293 515 l 1
 263 494 l 1
 274 460 l 1
 245 481 l 1
 216 460 l 1
 227 494 l 1
 197 515 l 1
 234 515 l 1
 245 550 l 1
245 633 m 1
 256 598 l 1
 293 598 l 1
 263 577 l 1
 274 543 l 1
 245 564 l 1
 216 543 l 1
 227 577 l 1
 197 598 l 1
 234 598 l 1
 245 633 l 1
245 717 m 1
 256 682 l 1
 293 682 l 1
 263 661 l 1
 274 627 l 1
 245 648 l 1
 216 627 l 1
 227 661 l 1
 197 682 l 1
 234 682 l 1
 245 717 l 1
245 800 m 1
 256 765 l 1
 293 765 l 1
 263 744 l 1
 274 710 l 1
 245 731 l 1
 216 710 l 1
 227 744 l 1
 197 765 l 1
 234 765 l 1
 245 800 l 1
138 800 m 1
 149 765 l 1
 186 765 l 1
 156 744 l 1
 167 710 l 1
 138 731 l 1
 109 710 l 1
 120 744 l 1
 90 765 l 1
 127 765 l 1
 138 800 l 1
EndSplineSet
EndChar

StartChar: p
Encoding: 112 112 32
Width: 600
VWidth: 0
UnlinkRmOvrlpSave: 1
Flags: W
HStem: 210 21G<115.471 136.619 139.381 160.529> 210 21G<115.471 136.619 139.381 160.529> 613 20G<131.714 144.286 238.714 251.286 344.714 357.286>
LayerCount: 2
Back
Fore
SplineSet
138 300 m 1x60
 149 265 l 1
 186 265 l 1
 156 244 l 1
 167 210 l 1
 138 231 l 1
 109 210 l 1
 120 244 l 1
 90 265 l 1
 127 265 l 1
 138 300 l 1x60
138 383 m 1
 149 348 l 1
 186 348 l 1
 156 327 l 1
 167 293 l 1
 138 314 l 1
 109 293 l 1
 120 327 l 1
 90 348 l 1
 127 348 l 1
 138 383 l 1
405 467 m 1
 416 432 l 1
 453 432 l 1
 423 411 l 1
 434 377 l 1
 405 398 l 1
 376 377 l 1
 387 411 l 1
 357 432 l 1
 394 432 l 1
 405 467 l 1
298 467 m 1
 309 432 l 1
 346 432 l 1
 316 411 l 1
 327 377 l 1
 298 398 l 1
 269 377 l 1
 280 411 l 1
 250 432 l 1
 287 432 l 1
 298 467 l 1
191 467 m 1
 202 432 l 1
 239 432 l 1
 209 411 l 1
 220 377 l 1
 191 398 l 1
 162 377 l 1
 173 411 l 1
 143 432 l 1
 180 432 l 1
 191 467 l 1
458 550 m 1
 469 515 l 1
 506 515 l 1
 476 494 l 1
 487 460 l 1
 458 481 l 1
 429 460 l 1
 440 494 l 1
 410 515 l 1
 447 515 l 1
 458 550 l 1
138 550 m 1
 149 515 l 1
 186 515 l 1
 156 494 l 1
 167 460 l 1
 138 481 l 1
 109 460 l 1
 120 494 l 1
 90 515 l 1
 127 515 l 1
 138 550 l 1
351 633 m 1
 362 598 l 1
 399 598 l 1
 369 577 l 1
 380 543 l 1
 351 564 l 1
 322 543 l 1
 333 577 l 1
 303 598 l 1
 340 598 l 1
 351 633 l 1
245 633 m 1
 256 598 l 1
 293 598 l 1
 263 577 l 1
 274 543 l 1
 245 564 l 1
 216 543 l 1
 227 577 l 1
 197 598 l 1
 234 598 l 1
 245 633 l 1
138 633 m 1
 149 598 l 1
 186 598 l 1
 156 577 l 1
 167 543 l 1
 138 564 l 1
 109 543 l 1
 120 577 l 1
 90 598 l 1
 127 598 l 1
 138 633 l 1
EndSplineSet
EndChar

StartChar: t
Encoding: 116 116 33
Width: 600
VWidth: 0
UnlinkRmOvrlpSave: 1
Flags: W
HStem: 210 21G<275.471 296.619 299.381 320.529 382.471 403.619 406.381 427.529> 210 21G<275.471 296.619 299.381 320.529 382.471 403.619 406.381 427.529> 613 20G<131.714 144.286 238.714 251.286 344.714 357.286> 780 20G<238.714 251.286>
LayerCount: 2
Back
Fore
SplineSet
405 300 m 1x70
 416 265 l 1
 453 265 l 1
 423 244 l 1
 434 210 l 1
 405 231 l 1
 376 210 l 1
 387 244 l 1
 357 265 l 1
 394 265 l 1
 405 300 l 1x70
298 300 m 1
 309 265 l 1
 346 265 l 1
 316 244 l 1
 327 210 l 1
 298 231 l 1
 269 210 l 1
 280 244 l 1
 250 265 l 1
 287 265 l 1
 298 300 l 1
458 383 m 1
 469 348 l 1
 506 348 l 1
 476 327 l 1
 487 293 l 1
 458 314 l 1
 429 293 l 1
 440 327 l 1
 410 348 l 1
 447 348 l 1
 458 383 l 1
245 383 m 1
 256 348 l 1
 293 348 l 1
 263 327 l 1
 274 293 l 1
 245 314 l 1
 216 293 l 1
 227 327 l 1
 197 348 l 1
 234 348 l 1
 245 383 l 1
245 467 m 1
 256 432 l 1
 293 432 l 1
 263 411 l 1
 274 377 l 1
 245 398 l 1
 216 377 l 1
 227 411 l 1
 197 432 l 1
 234 432 l 1
 245 467 l 1
245 550 m 1
 256 515 l 1
 293 515 l 1
 263 494 l 1
 274 460 l 1
 245 481 l 1
 216 460 l 1
 227 494 l 1
 197 515 l 1
 234 515 l 1
 245 550 l 1
351 633 m 1
 362 598 l 1
 399 598 l 1
 369 577 l 1
 380 543 l 1
 351 564 l 1
 322 543 l 1
 333 577 l 1
 303 598 l 1
 340 598 l 1
 351 633 l 1
245 633 m 1
 256 598 l 1
 293 598 l 1
 263 577 l 1
 274 543 l 1
 245 564 l 1
 216 543 l 1
 227 577 l 1
 197 598 l 1
 234 598 l 1
 245 633 l 1
138 633 m 1
 149 598 l 1
 186 598 l 1
 156 577 l 1
 167 543 l 1
 138 564 l 1
 109 543 l 1
 120 577 l 1
 90 598 l 1
 127 598 l 1
 138 633 l 1
245 717 m 1
 256 682 l 1
 293 682 l 1
 263 661 l 1
 274 627 l 1
 245 648 l 1
 216 627 l 1
 227 661 l 1
 197 682 l 1
 234 682 l 1
 245 717 l 1
245 800 m 1
 256 765 l 1
 293 765 l 1
 263 744 l 1
 274 710 l 1
 245 731 l 1
 216 710 l 1
 227 744 l 1
 197 765 l 1
 234 765 l 1
 245 800 l 1
EndSplineSet
EndChar

StartChar: divide
Encoding: 247 247 34
Width: 600
VWidth: 0
UnlinkRmOvrlpSave: 1
Flags: W
LayerCount: 2
Back
Fore
SplineSet
298 383 m 1
 309 348 l 1
 346 348 l 1
 316 327 l 1
 327 293 l 1
 298 314 l 1
 269 293 l 1
 280 327 l 1
 250 348 l 1
 287 348 l 1
 298 383 l 1
458 550 m 1
 469 515 l 1
 506 515 l 1
 476 494 l 1
 487 460 l 1
 458 481 l 1
 429 460 l 1
 440 494 l 1
 410 515 l 1
 447 515 l 1
 458 550 l 1
351 550 m 1
 362 515 l 1
 399 515 l 1
 369 494 l 1
 380 460 l 1
 351 481 l 1
 322 460 l 1
 333 494 l 1
 303 515 l 1
 340 515 l 1
 351 550 l 1
245 550 m 1
 256 515 l 1
 293 515 l 1
 263 494 l 1
 274 460 l 1
 245 481 l 1
 216 460 l 1
 227 494 l 1
 197 515 l 1
 234 515 l 1
 245 550 l 1
138 550 m 1
 149 515 l 1
 186 515 l 1
 156 494 l 1
 167 460 l 1
 138 481 l 1
 109 460 l 1
 120 494 l 1
 90 515 l 1
 127 515 l 1
 138 550 l 1
298 717 m 1
 309 682 l 1
 346 682 l 1
 316 661 l 1
 327 627 l 1
 298 648 l 1
 269 627 l 1
 280 661 l 1
 250 682 l 1
 287 682 l 1
 298 717 l 1
EndSplineSet
EndChar

StartChar: x
Encoding: 120 120 35
Width: 600
VWidth: 0
UnlinkRmOvrlpSave: 1
Flags: W
HStem: 210 21G<115.471 136.619 139.381 160.529 435.471 456.619 459.381 480.529> 210 21G<115.471 136.619 139.381 160.529 435.471 456.619 459.381 480.529> 613 20G<131.714 144.286 451.714 464.286>
LayerCount: 2
Back
Fore
SplineSet
458 300 m 1x60
 469 265 l 1
 506 265 l 1
 476 244 l 1
 487 210 l 1
 458 231 l 1
 429 210 l 1
 440 244 l 1
 410 265 l 1
 447 265 l 1
 458 300 l 1x60
138 300 m 1
 149 265 l 1
 186 265 l 1
 156 244 l 1
 167 210 l 1
 138 231 l 1
 109 210 l 1
 120 244 l 1
 90 265 l 1
 127 265 l 1
 138 300 l 1
405 383 m 1
 416 348 l 1
 453 348 l 1
 423 327 l 1
 434 293 l 1
 405 314 l 1
 376 293 l 1
 387 327 l 1
 357 348 l 1
 394 348 l 1
 405 383 l 1
191 383 m 1
 202 348 l 1
 239 348 l 1
 209 327 l 1
 220 293 l 1
 191 314 l 1
 162 293 l 1
 173 327 l 1
 143 348 l 1
 180 348 l 1
 191 383 l 1
298 467 m 1
 309 432 l 1
 346 432 l 1
 316 411 l 1
 327 377 l 1
 298 398 l 1
 269 377 l 1
 280 411 l 1
 250 432 l 1
 287 432 l 1
 298 467 l 1
405 550 m 1
 416 515 l 1
 453 515 l 1
 423 494 l 1
 434 460 l 1
 405 481 l 1
 376 460 l 1
 387 494 l 1
 357 515 l 1
 394 515 l 1
 405 550 l 1
191 550 m 1
 202 515 l 1
 239 515 l 1
 209 494 l 1
 220 460 l 1
 191 481 l 1
 162 460 l 1
 173 494 l 1
 143 515 l 1
 180 515 l 1
 191 550 l 1
458 633 m 1
 469 598 l 1
 506 598 l 1
 476 577 l 1
 487 543 l 1
 458 564 l 1
 429 543 l 1
 440 577 l 1
 410 598 l 1
 447 598 l 1
 458 633 l 1
138 633 m 1
 149 598 l 1
 186 598 l 1
 156 577 l 1
 167 543 l 1
 138 564 l 1
 109 543 l 1
 120 577 l 1
 90 598 l 1
 127 598 l 1
 138 633 l 1
EndSplineSet
EndChar

StartChar: bar
Encoding: 124 124 36
Width: 600
VWidth: 0
UnlinkRmOvrlpSave: 1
Flags: W
HStem: 210 21G<115.471 136.619 139.381 160.529> 210 21G<115.471 136.619 139.381 160.529> 613 20G<131.714 144.286> 780 20G<131.714 144.286>
VStem: 90 96
LayerCount: 2
Back
Fore
SplineSet
138 300 m 1x78
 149 265 l 1
 186 265 l 1
 156 244 l 1
 167 210 l 1
 138 231 l 1
 109 210 l 1
 120 244 l 1
 90 265 l 1
 127 265 l 1
 138 300 l 1x78
138 383 m 1
 149 348 l 1
 186 348 l 1
 156 327 l 1
 167 293 l 1
 138 314 l 1
 109 293 l 1
 120 327 l 1
 90 348 l 1
 127 348 l 1
 138 383 l 1
138 467 m 1
 149 432 l 1
 186 432 l 1
 156 411 l 1
 167 377 l 1
 138 398 l 1
 109 377 l 1
 120 411 l 1
 90 432 l 1
 127 432 l 1
 138 467 l 1
138 550 m 1
 149 515 l 1
 186 515 l 1
 156 494 l 1
 167 460 l 1
 138 481 l 1
 109 460 l 1
 120 494 l 1
 90 515 l 1
 127 515 l 1
 138 550 l 1
138 633 m 1
 149 598 l 1
 186 598 l 1
 156 577 l 1
 167 543 l 1
 138 564 l 1
 109 543 l 1
 120 577 l 1
 90 598 l 1
 127 598 l 1
 138 633 l 1
138 717 m 1
 149 682 l 1
 186 682 l 1
 156 661 l 1
 167 627 l 1
 138 648 l 1
 109 627 l 1
 120 661 l 1
 90 682 l 1
 127 682 l 1
 138 717 l 1
138 800 m 1
 149 765 l 1
 186 765 l 1
 156 744 l 1
 167 710 l 1
 138 731 l 1
 109 710 l 1
 120 744 l 1
 90 765 l 1
 127 765 l 1
 138 800 l 1
EndSplineSet
EndChar

StartChar: glyph37
Encoding: 769 769 37
Width: 600
VWidth: 0
UnlinkRmOvrlpSave: 1
Flags: W
HStem: 543 257 613 20G<131.714 144.286>
VStem: 90 202
LayerCount: 2
Back
Fore
SplineSet
138 633 m 1x60
 149 598 l 1
 186 598 l 1
 156 577 l 1
 167 543 l 1
 138 564 l 1
 109 543 l 1xa0
 120 577 l 1
 90 598 l 1
 127 598 l 1
 138 633 l 1x60
191 717 m 1
 202 682 l 1
 239 682 l 1
 209 661 l 1
 220 627 l 1
 191 648 l 1
 162 627 l 1
 173 661 l 1
 143 682 l 1
 180 682 l 1
 191 717 l 1
244 800 m 1
 255 765 l 1
 292 765 l 1
 262 744 l 1
 273 710 l 1
 244 731 l 1
 215 710 l 1
 226 744 l 1
 196 765 l 1
 233 765 l 1
 244 800 l 1
EndSplineSet
EndChar

StartChar: glyph38
Encoding: 8594 8594 38
Width: 600
VWidth: 0
UnlinkRmOvrlpSave: 1
Flags: W
HStem: 613 20G<398.714 411.286>
LayerCount: 2
Back
Fore
SplineSet
351 383 m 1
 362 348 l 1
 399 348 l 1
 369 327 l 1
 380 293 l 1
 351 314 l 1
 322 293 l 1
 333 327 l 1
 303 348 l 1
 340 348 l 1
 351 383 l 1
405 467 m 1
 416 432 l 1
 453 432 l 1
 423 411 l 1
 434 377 l 1
 405 398 l 1
 376 377 l 1
 387 411 l 1
 357 432 l 1
 394 432 l 1
 405 467 l 1
458 550 m 1
 469 515 l 1
 506 515 l 1
 476 494 l 1
 487 460 l 1
 458 481 l 1
 429 460 l 1
 440 494 l 1
 410 515 l 1
 447 515 l 1
 458 550 l 1
351 550 m 1
 362 515 l 1
 399 515 l 1
 369 494 l 1
 380 460 l 1
 351 481 l 1
 322 460 l 1
 333 494 l 1
 303 515 l 1
 340 515 l 1
 351 550 l 1
245 550 m 1
 256 515 l 1
 293 515 l 1
 263 494 l 1
 274 460 l 1
 245 481 l 1
 216 460 l 1
 227 494 l 1
 197 515 l 1
 234 515 l 1
 245 550 l 1
138 550 m 1
 149 515 l 1
 186 515 l 1
 156 494 l 1
 167 460 l 1
 138 481 l 1
 109 460 l 1
 120 494 l 1
 90 515 l 1
 127 515 l 1
 138 550 l 1
405 633 m 1
 416 598 l 1
 453 598 l 1
 423 577 l 1
 434 543 l 1
 405 564 l 1
 376 543 l 1
 387 577 l 1
 357 598 l 1
 394 598 l 1
 405 633 l 1
351 717 m 1
 362 682 l 1
 399 682 l 1
 369 661 l 1
 380 627 l 1
 351 648 l 1
 322 627 l 1
 333 661 l 1
 303 682 l 1
 340 682 l 1
 351 717 l 1
EndSplineSet
EndChar

StartChar: numbersign
Encoding: 35 35 39
Width: 600
VWidth: 0
UnlinkRmOvrlpSave: 1
Flags: W
HStem: 210 21G<222.471 243.619 246.381 267.529 328.471 349.619 352.381 373.529> 210 21G<222.471 243.619 246.381 267.529 328.471 349.619 352.381 373.529> 613 20G<131.714 144.286 238.714 251.286 344.714 357.286 451.714 464.286> 780 20G<238.714 251.286 344.714 357.286>
LayerCount: 2
Back
Fore
SplineSet
351 300 m 1x70
 362 265 l 1
 399 265 l 1
 369 244 l 1
 380 210 l 1
 351 231 l 1
 322 210 l 1
 333 244 l 1
 303 265 l 1
 340 265 l 1
 351 300 l 1x70
245 300 m 1
 256 265 l 1
 293 265 l 1
 263 244 l 1
 274 210 l 1
 245 231 l 1
 216 210 l 1
 227 244 l 1
 197 265 l 1
 234 265 l 1
 245 300 l 1
351 383 m 1
 362 348 l 1
 399 348 l 1
 369 327 l 1
 380 293 l 1
 351 314 l 1
 322 293 l 1
 333 327 l 1
 303 348 l 1
 340 348 l 1
 351 383 l 1
245 383 m 1
 256 348 l 1
 293 348 l 1
 263 327 l 1
 274 293 l 1
 245 314 l 1
 216 293 l 1
 227 327 l 1
 197 348 l 1
 234 348 l 1
 245 383 l 1
458 467 m 1
 469 432 l 1
 506 432 l 1
 476 411 l 1
 487 377 l 1
 458 398 l 1
 429 377 l 1
 440 411 l 1
 410 432 l 1
 447 432 l 1
 458 467 l 1
351 467 m 1
 362 432 l 1
 399 432 l 1
 369 411 l 1
 380 377 l 1
 351 398 l 1
 322 377 l 1
 333 411 l 1
 303 432 l 1
 340 432 l 1
 351 467 l 1
245 467 m 1
 256 432 l 1
 293 432 l 1
 263 411 l 1
 274 377 l 1
 245 398 l 1
 216 377 l 1
 227 411 l 1
 197 432 l 1
 234 432 l 1
 245 467 l 1
138 467 m 1
 149 432 l 1
 186 432 l 1
 156 411 l 1
 167 377 l 1
 138 398 l 1
 109 377 l 1
 120 411 l 1
 90 432 l 1
 127 432 l 1
 138 467 l 1
351 550 m 1
 362 515 l 1
 399 515 l 1
 369 494 l 1
 380 460 l 1
 351 481 l 1
 322 460 l 1
 333 494 l 1
 303 515 l 1
 340 515 l 1
 351 550 l 1
245 550 m 1
 256 515 l 1
 293 515 l 1
 263 494 l 1
 274 460 l 1
 245 481 l 1
 216 460 l 1
 227 494 l 1
 197 515 l 1
 234 515 l 1
 245 550 l 1
458 633 m 1
 469 598 l 1
 506 598 l 1
 476 577 l 1
 487 543 l 1
 458 564 l 1
 429 543 l 1
 440 577 l 1
 410 598 l 1
 447 598 l 1
 458 633 l 1
351 633 m 1
 362 598 l 1
 399 598 l 1
 369 577 l 1
 380 543 l 1
 351 564 l 1
 322 543 l 1
 333 577 l 1
 303 598 l 1
 340 598 l 1
 351 633 l 1
245 633 m 1
 256 598 l 1
 293 598 l 1
 263 577 l 1
 274 543 l 1
 245 564 l 1
 216 543 l 1
 227 577 l 1
 197 598 l 1
 234 598 l 1
 245 633 l 1
138 633 m 1
 149 598 l 1
 186 598 l 1
 156 577 l 1
 167 543 l 1
 138 564 l 1
 109 543 l 1
 120 577 l 1
 90 598 l 1
 127 598 l 1
 138 633 l 1
351 717 m 1
 362 682 l 1
 399 682 l 1
 369 661 l 1
 380 627 l 1
 351 648 l 1
 322 627 l 1
 333 661 l 1
 303 682 l 1
 340 682 l 1
 351 717 l 1
245 717 m 1
 256 682 l 1
 293 682 l 1
 263 661 l 1
 274 627 l 1
 245 648 l 1
 216 627 l 1
 227 661 l 1
 197 682 l 1
 234 682 l 1
 245 717 l 1
351 800 m 1
 362 765 l 1
 399 765 l 1
 369 744 l 1
 380 710 l 1
 351 731 l 1
 322 710 l 1
 333 744 l 1
 303 765 l 1
 340 765 l 1
 351 800 l 1
245 800 m 1
 256 765 l 1
 293 765 l 1
 263 744 l 1
 274 710 l 1
 245 731 l 1
 216 710 l 1
 227 744 l 1
 197 765 l 1
 234 765 l 1
 245 800 l 1
EndSplineSet
EndChar

StartChar: glyph40
Encoding: 8356 8356 40
Width: 600
VWidth: 0
UnlinkRmOvrlpSave: 1
Flags: W
HStem: 210 21G<115.471 136.619 139.381 160.529 222.471 243.619 246.381 267.529 328.471 349.619 352.381 373.529 435.471 456.619 459.381 480.529> 210 21G<115.471 136.619 139.381 160.529 222.471 243.619 246.381 267.529 328.471 349.619 352.381 373.529 435.471 456.619 459.381 480.529> 613 20G<131.714 144.286 238.714 251.286 344.714 357.286> 780 20G<291.714 304.286 398.714 411.286>
LayerCount: 2
Back
Fore
SplineSet
458 300 m 1x70
 469 265 l 1
 506 265 l 1
 476 244 l 1
 487 210 l 1
 458 231 l 1
 429 210 l 1
 440 244 l 1
 410 265 l 1
 447 265 l 1
 458 300 l 1x70
351 300 m 1
 362 265 l 1
 399 265 l 1
 369 244 l 1
 380 210 l 1
 351 231 l 1
 322 210 l 1
 333 244 l 1
 303 265 l 1
 340 265 l 1
 351 300 l 1
245 300 m 1
 256 265 l 1
 293 265 l 1
 263 244 l 1
 274 210 l 1
 245 231 l 1
 216 210 l 1
 227 244 l 1
 197 265 l 1
 234 265 l 1
 245 300 l 1
138 300 m 1
 149 265 l 1
 186 265 l 1
 156 244 l 1
 167 210 l 1
 138 231 l 1
 109 210 l 1
 120 244 l 1
 90 265 l 1
 127 265 l 1
 138 300 l 1
245 383 m 1
 256 348 l 1
 293 348 l 1
 263 327 l 1
 274 293 l 1
 245 314 l 1
 216 293 l 1
 227 327 l 1
 197 348 l 1
 234 348 l 1
 245 383 l 1
351 467 m 1
 362 432 l 1
 399 432 l 1
 369 411 l 1
 380 377 l 1
 351 398 l 1
 322 377 l 1
 333 411 l 1
 303 432 l 1
 340 432 l 1
 351 467 l 1
245 467 m 1
 256 432 l 1
 293 432 l 1
 263 411 l 1
 274 377 l 1
 245 398 l 1
 216 377 l 1
 227 411 l 1
 197 432 l 1
 234 432 l 1
 245 467 l 1
138 467 m 1
 149 432 l 1
 186 432 l 1
 156 411 l 1
 167 377 l 1
 138 398 l 1
 109 377 l 1
 120 411 l 1
 90 432 l 1
 127 432 l 1
 138 467 l 1
245 550 m 1
 256 515 l 1
 293 515 l 1
 263 494 l 1
 274 460 l 1
 245 481 l 1
 216 460 l 1
 227 494 l 1
 197 515 l 1
 234 515 l 1
 245 550 l 1
351 633 m 1
 362 598 l 1
 399 598 l 1
 369 577 l 1
 380 543 l 1
 351 564 l 1
 322 543 l 1
 333 577 l 1
 303 598 l 1
 340 598 l 1
 351 633 l 1
245 633 m 1
 256 598 l 1
 293 598 l 1
 263 577 l 1
 274 543 l 1
 245 564 l 1
 216 543 l 1
 227 577 l 1
 197 598 l 1
 234 598 l 1
 245 633 l 1
138 633 m 1
 149 598 l 1
 186 598 l 1
 156 577 l 1
 167 543 l 1
 138 564 l 1
 109 543 l 1
 120 577 l 1
 90 598 l 1
 127 598 l 1
 138 633 l 1
458 717 m 1
 469 682 l 1
 506 682 l 1
 476 661 l 1
 487 627 l 1
 458 648 l 1
 429 627 l 1
 440 661 l 1
 410 682 l 1
 447 682 l 1
 458 717 l 1
245 717 m 1
 256 682 l 1
 293 682 l 1
 263 661 l 1
 274 627 l 1
 245 648 l 1
 216 627 l 1
 227 661 l 1
 197 682 l 1
 234 682 l 1
 245 717 l 1
405 800 m 1
 416 765 l 1
 453 765 l 1
 423 744 l 1
 434 710 l 1
 405 731 l 1
 376 710 l 1
 387 744 l 1
 357 765 l 1
 394 765 l 1
 405 800 l 1
298 800 m 1
 309 765 l 1
 346 765 l 1
 316 744 l 1
 327 710 l 1
 298 731 l 1
 269 710 l 1
 280 744 l 1
 250 765 l 1
 287 765 l 1
 298 800 l 1
EndSplineSet
EndChar

StartChar: quotesingle
Encoding: 39 39 41
Width: 600
VWidth: 0
UnlinkRmOvrlpSave: 1
Flags: W
HStem: 543 257 613 20G<131.714 144.286>
VStem: 90 202
LayerCount: 2
Back
Fore
SplineSet
138 633 m 1x60
 149 598 l 1
 186 598 l 1
 156 577 l 1
 167 543 l 1
 138 564 l 1
 109 543 l 1xa0
 120 577 l 1
 90 598 l 1
 127 598 l 1
 138 633 l 1x60
191 717 m 1
 202 682 l 1
 239 682 l 1
 209 661 l 1
 220 627 l 1
 191 648 l 1
 162 627 l 1
 173 661 l 1
 143 682 l 1
 180 682 l 1
 191 717 l 1
244 800 m 1
 255 765 l 1
 292 765 l 1
 262 744 l 1
 273 710 l 1
 244 731 l 1
 215 710 l 1
 226 744 l 1
 196 765 l 1
 233 765 l 1
 244 800 l 1
EndSplineSet
EndChar

StartChar: plus
Encoding: 43 43 42
Width: 600
VWidth: 0
UnlinkRmOvrlpSave: 1
Flags: W
HStem: 210 21G<275.471 296.619 299.381 320.529> 210 21G<275.471 296.619 299.381 320.529> 613 20G<291.714 304.286> 780 20G<291.714 304.286>
LayerCount: 2
Back
Fore
SplineSet
298 300 m 1x70
 309 265 l 1
 346 265 l 1
 316 244 l 1
 327 210 l 1
 298 231 l 1
 269 210 l 1
 280 244 l 1
 250 265 l 1
 287 265 l 1
 298 300 l 1x70
298 383 m 1
 309 348 l 1
 346 348 l 1
 316 327 l 1
 327 293 l 1
 298 314 l 1
 269 293 l 1
 280 327 l 1
 250 348 l 1
 287 348 l 1
 298 383 l 1
298 467 m 1
 309 432 l 1
 346 432 l 1
 316 411 l 1
 327 377 l 1
 298 398 l 1
 269 377 l 1
 280 411 l 1
 250 432 l 1
 287 432 l 1
 298 467 l 1
458 550 m 1
 469 515 l 1
 506 515 l 1
 476 494 l 1
 487 460 l 1
 458 481 l 1
 429 460 l 1
 440 494 l 1
 410 515 l 1
 447 515 l 1
 458 550 l 1
351 550 m 1
 362 515 l 1
 399 515 l 1
 369 494 l 1
 380 460 l 1
 351 481 l 1
 322 460 l 1
 333 494 l 1
 303 515 l 1
 340 515 l 1
 351 550 l 1
245 550 m 1
 256 515 l 1
 293 515 l 1
 263 494 l 1
 274 460 l 1
 245 481 l 1
 216 460 l 1
 227 494 l 1
 197 515 l 1
 234 515 l 1
 245 550 l 1
138 550 m 1
 149 515 l 1
 186 515 l 1
 156 494 l 1
 167 460 l 1
 138 481 l 1
 109 460 l 1
 120 494 l 1
 90 515 l 1
 127 515 l 1
 138 550 l 1
298 633 m 1
 309 598 l 1
 346 598 l 1
 316 577 l 1
 327 543 l 1
 298 564 l 1
 269 543 l 1
 280 577 l 1
 250 598 l 1
 287 598 l 1
 298 633 l 1
298 717 m 1
 309 682 l 1
 346 682 l 1
 316 661 l 1
 327 627 l 1
 298 648 l 1
 269 627 l 1
 280 661 l 1
 250 682 l 1
 287 682 l 1
 298 717 l 1
298 800 m 1
 309 765 l 1
 346 765 l 1
 316 744 l 1
 327 710 l 1
 298 731 l 1
 269 710 l 1
 280 744 l 1
 250 765 l 1
 287 765 l 1
 298 800 l 1
EndSplineSet
EndChar

StartChar: glyph43
Encoding: 8364 8364 43
Width: 600
VWidth: 0
UnlinkRmOvrlpSave: 1
Flags: W
HStem: 210 21G<275.471 296.619 299.381 320.529 382.471 403.619 406.381 427.529> 210 21G<275.471 296.619 299.381 320.529 382.471 403.619 406.381 427.529> 613 20G<131.714 144.286 238.714 251.286 344.714 357.286> 780 20G<291.714 304.286 398.714 411.286>
LayerCount: 2
Back
Fore
SplineSet
405 300 m 1x70
 416 265 l 1
 453 265 l 1
 423 244 l 1
 434 210 l 1
 405 231 l 1
 376 210 l 1
 387 244 l 1
 357 265 l 1
 394 265 l 1
 405 300 l 1x70
298 300 m 1
 309 265 l 1
 346 265 l 1
 316 244 l 1
 327 210 l 1
 298 231 l 1
 269 210 l 1
 280 244 l 1
 250 265 l 1
 287 265 l 1
 298 300 l 1
458 383 m 1
 469 348 l 1
 506 348 l 1
 476 327 l 1
 487 293 l 1
 458 314 l 1
 429 293 l 1
 440 327 l 1
 410 348 l 1
 447 348 l 1
 458 383 l 1
245 383 m 1
 256 348 l 1
 293 348 l 1
 263 327 l 1
 274 293 l 1
 245 314 l 1
 216 293 l 1
 227 327 l 1
 197 348 l 1
 234 348 l 1
 245 383 l 1
351 467 m 1
 362 432 l 1
 399 432 l 1
 369 411 l 1
 380 377 l 1
 351 398 l 1
 322 377 l 1
 333 411 l 1
 303 432 l 1
 340 432 l 1
 351 467 l 1
245 467 m 1
 256 432 l 1
 293 432 l 1
 263 411 l 1
 274 377 l 1
 245 398 l 1
 216 377 l 1
 227 411 l 1
 197 432 l 1
 234 432 l 1
 245 467 l 1
138 467 m 1
 149 432 l 1
 186 432 l 1
 156 411 l 1
 167 377 l 1
 138 398 l 1
 109 377 l 1
 120 411 l 1
 90 432 l 1
 127 432 l 1
 138 467 l 1
245 550 m 1
 256 515 l 1
 293 515 l 1
 263 494 l 1
 274 460 l 1
 245 481 l 1
 216 460 l 1
 227 494 l 1
 197 515 l 1
 234 515 l 1
 245 550 l 1
351 633 m 1
 362 598 l 1
 399 598 l 1
 369 577 l 1
 380 543 l 1
 351 564 l 1
 322 543 l 1
 333 577 l 1
 303 598 l 1
 340 598 l 1
 351 633 l 1
245 633 m 1
 256 598 l 1
 293 598 l 1
 263 577 l 1
 274 543 l 1
 245 564 l 1
 216 543 l 1
 227 577 l 1
 197 598 l 1
 234 598 l 1
 245 633 l 1
138 633 m 1
 149 598 l 1
 186 598 l 1
 156 577 l 1
 167 543 l 1
 138 564 l 1
 109 543 l 1
 120 577 l 1
 90 598 l 1
 127 598 l 1
 138 633 l 1
458 717 m 1
 469 682 l 1
 506 682 l 1
 476 661 l 1
 487 627 l 1
 458 648 l 1
 429 627 l 1
 440 661 l 1
 410 682 l 1
 447 682 l 1
 458 717 l 1
245 717 m 1
 256 682 l 1
 293 682 l 1
 263 661 l 1
 274 627 l 1
 245 648 l 1
 216 627 l 1
 227 661 l 1
 197 682 l 1
 234 682 l 1
 245 717 l 1
405 800 m 1
 416 765 l 1
 453 765 l 1
 423 744 l 1
 434 710 l 1
 405 731 l 1
 376 710 l 1
 387 744 l 1
 357 765 l 1
 394 765 l 1
 405 800 l 1
298 800 m 1
 309 765 l 1
 346 765 l 1
 316 744 l 1
 327 710 l 1
 298 731 l 1
 269 710 l 1
 280 744 l 1
 250 765 l 1
 287 765 l 1
 298 800 l 1
EndSplineSet
EndChar

StartChar: slash
Encoding: 47 47 44
Width: 600
VWidth: 0
UnlinkRmOvrlpSave: 1
Flags: W
HStem: 210 21G<115.471 136.619 139.381 160.529> 210 21G<115.471 136.619 139.381 160.529> 613 20G<344.714 357.286> 780 20G<451.714 464.286>
LayerCount: 2
Back
Fore
SplineSet
138 300 m 1x70
 149 265 l 1
 186 265 l 1
 156 244 l 1
 167 210 l 1
 138 231 l 1
 109 210 l 1
 120 244 l 1
 90 265 l 1
 127 265 l 1
 138 300 l 1x70
191 383 m 1
 202 348 l 1
 239 348 l 1
 209 327 l 1
 220 293 l 1
 191 314 l 1
 162 293 l 1
 173 327 l 1
 143 348 l 1
 180 348 l 1
 191 383 l 1
245 467 m 1
 256 432 l 1
 293 432 l 1
 263 411 l 1
 274 377 l 1
 245 398 l 1
 216 377 l 1
 227 411 l 1
 197 432 l 1
 234 432 l 1
 245 467 l 1
298 550 m 1
 309 515 l 1
 346 515 l 1
 316 494 l 1
 327 460 l 1
 298 481 l 1
 269 460 l 1
 280 494 l 1
 250 515 l 1
 287 515 l 1
 298 550 l 1
351 633 m 1
 362 598 l 1
 399 598 l 1
 369 577 l 1
 380 543 l 1
 351 564 l 1
 322 543 l 1
 333 577 l 1
 303 598 l 1
 340 598 l 1
 351 633 l 1
405 717 m 1
 416 682 l 1
 453 682 l 1
 423 661 l 1
 434 627 l 1
 405 648 l 1
 376 627 l 1
 387 661 l 1
 357 682 l 1
 394 682 l 1
 405 717 l 1
458 800 m 1
 469 765 l 1
 506 765 l 1
 476 744 l 1
 487 710 l 1
 458 731 l 1
 429 710 l 1
 440 744 l 1
 410 765 l 1
 447 765 l 1
 458 800 l 1
EndSplineSet
EndChar

StartChar: glyph45
Encoding: 305 305 45
Width: 600
VWidth: 0
UnlinkRmOvrlpSave: 1
Flags: W
HStem: 210 21G<115.471 136.619 139.381 160.529 222.471 243.619 246.381 267.529 329.471 350.619 353.381 374.529> 210 21G<115.471 136.619 139.381 160.529 222.471 243.619 246.381 267.529 329.471 350.619 353.381 374.529> 613 20G<131.714 144.286 238.714 251.286>
VStem: 90 310
LayerCount: 2
Back
Fore
SplineSet
352 300 m 1x70
 363 265 l 1
 400 265 l 1
 370 244 l 1
 381 210 l 1
 352 231 l 1
 323 210 l 1
 334 244 l 1
 304 265 l 1
 341 265 l 1
 352 300 l 1x70
245 300 m 1
 256 265 l 1
 293 265 l 1
 263 244 l 1
 274 210 l 1
 245 231 l 1
 216 210 l 1
 227 244 l 1
 197 265 l 1
 234 265 l 1
 245 300 l 1
138 300 m 1
 149 265 l 1
 186 265 l 1
 156 244 l 1
 167 210 l 1
 138 231 l 1
 109 210 l 1
 120 244 l 1
 90 265 l 1
 127 265 l 1
 138 300 l 1
245 383 m 1
 256 348 l 1
 293 348 l 1
 263 327 l 1
 274 293 l 1
 245 314 l 1
 216 293 l 1
 227 327 l 1
 197 348 l 1
 234 348 l 1
 245 383 l 1
245 467 m 1
 256 432 l 1
 293 432 l 1
 263 411 l 1
 274 377 l 1
 245 398 l 1
 216 377 l 1
 227 411 l 1
 197 432 l 1
 234 432 l 1
 245 467 l 1
245 550 m 1
 256 515 l 1
 293 515 l 1
 263 494 l 1
 274 460 l 1
 245 481 l 1
 216 460 l 1
 227 494 l 1
 197 515 l 1
 234 515 l 1
 245 550 l 1
245 633 m 1
 256 598 l 1
 293 598 l 1
 263 577 l 1
 274 543 l 1
 245 564 l 1
 216 543 l 1
 227 577 l 1
 197 598 l 1
 234 598 l 1
 245 633 l 1
138 633 m 1
 149 598 l 1
 186 598 l 1
 156 577 l 1
 167 543 l 1
 138 564 l 1
 109 543 l 1
 120 577 l 1
 90 598 l 1
 127 598 l 1
 138 633 l 1
EndSplineSet
EndChar

StartChar: degree
Encoding: 176 176 46
Width: 600
VWidth: 0
UnlinkRmOvrlpSave: 1
Flags: W
HStem: 543 257 613 20G<185.714 198.286 291.714 304.286>
VStem: 90 310
LayerCount: 2
Back
Fore
SplineSet
298 633 m 1x60
 309 598 l 1
 346 598 l 1
 316 577 l 1
 327 543 l 1
 298 564 l 1
 269 543 l 1xa0
 280 577 l 1
 250 598 l 1
 287 598 l 1
 298 633 l 1x60
192 633 m 1x60
 203 598 l 1
 240 598 l 1
 210 577 l 1
 221 543 l 1
 192 564 l 1
 163 543 l 1xa0
 174 577 l 1
 144 598 l 1
 181 598 l 1
 192 633 l 1x60
352 717 m 1
 363 682 l 1
 400 682 l 1
 370 661 l 1
 381 627 l 1
 352 648 l 1
 323 627 l 1
 334 661 l 1
 304 682 l 1
 341 682 l 1
 352 717 l 1
138 717 m 1
 149 682 l 1
 186 682 l 1
 156 661 l 1
 167 627 l 1
 138 648 l 1
 109 627 l 1
 120 661 l 1
 90 682 l 1
 127 682 l 1
 138 717 l 1
298 800 m 1
 309 765 l 1
 346 765 l 1
 316 744 l 1
 327 710 l 1
 298 731 l 1
 269 710 l 1
 280 744 l 1
 250 765 l 1
 287 765 l 1
 298 800 l 1
192 800 m 1
 203 765 l 1
 240 765 l 1
 210 744 l 1
 221 710 l 1
 192 731 l 1
 163 710 l 1
 174 744 l 1
 144 765 l 1
 181 765 l 1
 192 800 l 1
EndSplineSet
EndChar

StartChar: three
Encoding: 51 51 47
Width: 600
VWidth: 0
UnlinkRmOvrlpSave: 1
Flags: W
HStem: 210 21G<168.471 189.619 192.381 213.529 275.471 296.619 299.381 320.529 382.471 403.619 406.381 427.529> 210 21G<168.471 189.619 192.381 213.529 275.471 296.619 299.381 320.529 382.471 403.619 406.381 427.529> 613 20G<344.714 357.286> 780 20G<131.714 144.286 238.714 251.286 344.714 357.286 451.714 464.286>
LayerCount: 2
Back
Fore
SplineSet
405 300 m 1x70
 416 265 l 1
 453 265 l 1
 423 244 l 1
 434 210 l 1
 405 231 l 1
 376 210 l 1
 387 244 l 1
 357 265 l 1
 394 265 l 1
 405 300 l 1x70
298 300 m 1
 309 265 l 1
 346 265 l 1
 316 244 l 1
 327 210 l 1
 298 231 l 1
 269 210 l 1
 280 244 l 1
 250 265 l 1
 287 265 l 1
 298 300 l 1
191 300 m 1
 202 265 l 1
 239 265 l 1
 209 244 l 1
 220 210 l 1
 191 231 l 1
 162 210 l 1
 173 244 l 1
 143 265 l 1
 180 265 l 1
 191 300 l 1
458 383 m 1
 469 348 l 1
 506 348 l 1
 476 327 l 1
 487 293 l 1
 458 314 l 1
 429 293 l 1
 440 327 l 1
 410 348 l 1
 447 348 l 1
 458 383 l 1
138 383 m 1
 149 348 l 1
 186 348 l 1
 156 327 l 1
 167 293 l 1
 138 314 l 1
 109 293 l 1
 120 327 l 1
 90 348 l 1
 127 348 l 1
 138 383 l 1
458 467 m 1
 469 432 l 1
 506 432 l 1
 476 411 l 1
 487 377 l 1
 458 398 l 1
 429 377 l 1
 440 411 l 1
 410 432 l 1
 447 432 l 1
 458 467 l 1
405 550 m 1
 416 515 l 1
 453 515 l 1
 423 494 l 1
 434 460 l 1
 405 481 l 1
 376 460 l 1
 387 494 l 1
 357 515 l 1
 394 515 l 1
 405 550 l 1
298 550 m 1
 309 515 l 1
 346 515 l 1
 316 494 l 1
 327 460 l 1
 298 481 l 1
 269 460 l 1
 280 494 l 1
 250 515 l 1
 287 515 l 1
 298 550 l 1
351 633 m 1
 362 598 l 1
 399 598 l 1
 369 577 l 1
 380 543 l 1
 351 564 l 1
 322 543 l 1
 333 577 l 1
 303 598 l 1
 340 598 l 1
 351 633 l 1
405 717 m 1
 416 682 l 1
 453 682 l 1
 423 661 l 1
 434 627 l 1
 405 648 l 1
 376 627 l 1
 387 661 l 1
 357 682 l 1
 394 682 l 1
 405 717 l 1
458 800 m 1
 469 765 l 1
 506 765 l 1
 476 744 l 1
 487 710 l 1
 458 731 l 1
 429 710 l 1
 440 744 l 1
 410 765 l 1
 447 765 l 1
 458 800 l 1
351 800 m 1
 362 765 l 1
 399 765 l 1
 369 744 l 1
 380 710 l 1
 351 731 l 1
 322 710 l 1
 333 744 l 1
 303 765 l 1
 340 765 l 1
 351 800 l 1
245 800 m 1
 256 765 l 1
 293 765 l 1
 263 744 l 1
 274 710 l 1
 245 731 l 1
 216 710 l 1
 227 744 l 1
 197 765 l 1
 234 765 l 1
 245 800 l 1
138 800 m 1
 149 765 l 1
 186 765 l 1
 156 744 l 1
 167 710 l 1
 138 731 l 1
 109 710 l 1
 120 744 l 1
 90 765 l 1
 127 765 l 1
 138 800 l 1
EndSplineSet
EndChar

StartChar: seven
Encoding: 55 55 48
Width: 600
VWidth: 0
UnlinkRmOvrlpSave: 1
Flags: W
HStem: 210 21G<168.471 189.619 192.381 213.529> 210 21G<168.471 189.619 192.381 213.529> 613 20G<398.714 411.286> 780 20G<131.714 144.286 238.714 251.286 344.714 357.286 451.714 464.286>
LayerCount: 2
Back
Fore
SplineSet
191 300 m 1x70
 202 265 l 1
 239 265 l 1
 209 244 l 1
 220 210 l 1
 191 231 l 1
 162 210 l 1
 173 244 l 1
 143 265 l 1
 180 265 l 1
 191 300 l 1x70
245 383 m 1
 256 348 l 1
 293 348 l 1
 263 327 l 1
 274 293 l 1
 245 314 l 1
 216 293 l 1
 227 327 l 1
 197 348 l 1
 234 348 l 1
 245 383 l 1
298 467 m 1
 309 432 l 1
 346 432 l 1
 316 411 l 1
 327 377 l 1
 298 398 l 1
 269 377 l 1
 280 411 l 1
 250 432 l 1
 287 432 l 1
 298 467 l 1
351 550 m 1
 362 515 l 1
 399 515 l 1
 369 494 l 1
 380 460 l 1
 351 481 l 1
 322 460 l 1
 333 494 l 1
 303 515 l 1
 340 515 l 1
 351 550 l 1
405 633 m 1
 416 598 l 1
 453 598 l 1
 423 577 l 1
 434 543 l 1
 405 564 l 1
 376 543 l 1
 387 577 l 1
 357 598 l 1
 394 598 l 1
 405 633 l 1
458 717 m 1
 469 682 l 1
 506 682 l 1
 476 661 l 1
 487 627 l 1
 458 648 l 1
 429 627 l 1
 440 661 l 1
 410 682 l 1
 447 682 l 1
 458 717 l 1
458 800 m 1
 469 765 l 1
 506 765 l 1
 476 744 l 1
 487 710 l 1
 458 731 l 1
 429 710 l 1
 440 744 l 1
 410 765 l 1
 447 765 l 1
 458 800 l 1
351 800 m 1
 362 765 l 1
 399 765 l 1
 369 744 l 1
 380 710 l 1
 351 731 l 1
 322 710 l 1
 333 744 l 1
 303 765 l 1
 340 765 l 1
 351 800 l 1
245 800 m 1
 256 765 l 1
 293 765 l 1
 263 744 l 1
 274 710 l 1
 245 731 l 1
 216 710 l 1
 227 744 l 1
 197 765 l 1
 234 765 l 1
 245 800 l 1
138 800 m 1
 149 765 l 1
 186 765 l 1
 156 744 l 1
 167 710 l 1
 138 731 l 1
 109 710 l 1
 120 744 l 1
 90 765 l 1
 127 765 l 1
 138 800 l 1
EndSplineSet
EndChar

StartChar: semicolon
Encoding: 59 59 49
Width: 600
VWidth: 0
UnlinkRmOvrlpSave: 1
Flags: W
HStem: 210 21G<115.471 136.619 139.381 160.529> 210 21G<115.471 136.619 139.381 160.529> 780 20G<184.714 197.286>
VStem: 90 202
LayerCount: 2
Back
Fore
SplineSet
138 300 m 1x70
 149 265 l 1
 186 265 l 1
 156 244 l 1
 167 210 l 1
 138 231 l 1
 109 210 l 1
 120 244 l 1
 90 265 l 1
 127 265 l 1
 138 300 l 1x70
191 383 m 1
 202 348 l 1
 239 348 l 1
 209 327 l 1
 220 293 l 1
 191 314 l 1
 162 293 l 1
 173 327 l 1
 143 348 l 1
 180 348 l 1
 191 383 l 1
244 467 m 1
 255 432 l 1
 292 432 l 1
 262 411 l 1
 273 377 l 1
 244 398 l 1
 215 377 l 1
 226 411 l 1
 196 432 l 1
 233 432 l 1
 244 467 l 1
138 467 m 1
 149 432 l 1
 186 432 l 1
 156 411 l 1
 167 377 l 1
 138 398 l 1
 109 377 l 1
 120 411 l 1
 90 432 l 1
 127 432 l 1
 138 467 l 1
244 550 m 1
 255 515 l 1
 292 515 l 1
 262 494 l 1
 273 460 l 1
 244 481 l 1
 215 460 l 1
 226 494 l 1
 196 515 l 1
 233 515 l 1
 244 550 l 1
138 550 m 1
 149 515 l 1
 186 515 l 1
 156 494 l 1
 167 460 l 1
 138 481 l 1
 109 460 l 1
 120 494 l 1
 90 515 l 1
 127 515 l 1
 138 550 l 1
244 717 m 1
 255 682 l 1
 292 682 l 1
 262 661 l 1
 273 627 l 1
 244 648 l 1
 215 627 l 1
 226 661 l 1
 196 682 l 1
 233 682 l 1
 244 717 l 1
138 717 m 1
 149 682 l 1
 186 682 l 1
 156 661 l 1
 167 627 l 1
 138 648 l 1
 109 627 l 1
 120 661 l 1
 90 682 l 1
 127 682 l 1
 138 717 l 1
191 800 m 1
 202 765 l 1
 239 765 l 1
 209 744 l 1
 220 710 l 1
 191 731 l 1
 162 710 l 1
 173 744 l 1
 143 765 l 1
 180 765 l 1
 191 800 l 1
EndSplineSet
EndChar

StartChar: question
Encoding: 63 63 50
Width: 600
VWidth: 0
UnlinkRmOvrlpSave: 1
Flags: W
HStem: 210 21G<275.471 296.619 299.381 320.529> 210 21G<275.471 296.619 299.381 320.529> 613 20G<291.714 304.286 398.714 411.286> 780 20G<184.714 197.286 291.714 304.286 398.714 411.286>
LayerCount: 2
Back
Fore
SplineSet
298 300 m 1x70
 309 265 l 1
 346 265 l 1
 316 244 l 1
 327 210 l 1
 298 231 l 1
 269 210 l 1
 280 244 l 1
 250 265 l 1
 287 265 l 1
 298 300 l 1x70
298 467 m 1
 309 432 l 1
 346 432 l 1
 316 411 l 1
 327 377 l 1
 298 398 l 1
 269 377 l 1
 280 411 l 1
 250 432 l 1
 287 432 l 1
 298 467 l 1
298 550 m 1
 309 515 l 1
 346 515 l 1
 316 494 l 1
 327 460 l 1
 298 481 l 1
 269 460 l 1
 280 494 l 1
 250 515 l 1
 287 515 l 1
 298 550 l 1
405 633 m 1
 416 598 l 1
 453 598 l 1
 423 577 l 1
 434 543 l 1
 405 564 l 1
 376 543 l 1
 387 577 l 1
 357 598 l 1
 394 598 l 1
 405 633 l 1
298 633 m 1
 309 598 l 1
 346 598 l 1
 316 577 l 1
 327 543 l 1
 298 564 l 1
 269 543 l 1
 280 577 l 1
 250 598 l 1
 287 598 l 1
 298 633 l 1
458 717 m 1
 469 682 l 1
 506 682 l 1
 476 661 l 1
 487 627 l 1
 458 648 l 1
 429 627 l 1
 440 661 l 1
 410 682 l 1
 447 682 l 1
 458 717 l 1
138 717 m 1
 149 682 l 1
 186 682 l 1
 156 661 l 1
 167 627 l 1
 138 648 l 1
 109 627 l 1
 120 661 l 1
 90 682 l 1
 127 682 l 1
 138 717 l 1
405 800 m 1
 416 765 l 1
 453 765 l 1
 423 744 l 1
 434 710 l 1
 405 731 l 1
 376 710 l 1
 387 744 l 1
 357 765 l 1
 394 765 l 1
 405 800 l 1
298 800 m 1
 309 765 l 1
 346 765 l 1
 316 744 l 1
 327 710 l 1
 298 731 l 1
 269 710 l 1
 280 744 l 1
 250 765 l 1
 287 765 l 1
 298 800 l 1
191 800 m 1
 202 765 l 1
 239 765 l 1
 209 744 l 1
 220 710 l 1
 191 731 l 1
 162 710 l 1
 173 744 l 1
 143 765 l 1
 180 765 l 1
 191 800 l 1
EndSplineSet
EndChar

StartChar: Agrave
Encoding: 192 192 51
Width: 600
VWidth: 0
UnlinkRmOvrlpSave: 1
Flags: W
HStem: 210 21G<115.471 136.619 139.381 160.529 435.471 456.619 459.381 480.529> 210 21G<115.471 136.619 139.381 160.529 435.471 456.619 459.381 480.529> 613 20G<291.714 304.286> 780 20G<291.714 304.286>
LayerCount: 2
Back
Fore
SplineSet
458 300 m 1x70
 469 265 l 1
 506 265 l 1
 476 244 l 1
 487 210 l 1
 458 231 l 1
 429 210 l 1
 440 244 l 1
 410 265 l 1
 447 265 l 1
 458 300 l 1x70
138 300 m 1
 149 265 l 1
 186 265 l 1
 156 244 l 1
 167 210 l 1
 138 231 l 1
 109 210 l 1
 120 244 l 1
 90 265 l 1
 127 265 l 1
 138 300 l 1
458 383 m 1
 469 348 l 1
 506 348 l 1
 476 327 l 1
 487 293 l 1
 458 314 l 1
 429 293 l 1
 440 327 l 1
 410 348 l 1
 447 348 l 1
 458 383 l 1
351 383 m 1
 362 348 l 1
 399 348 l 1
 369 327 l 1
 380 293 l 1
 351 314 l 1
 322 293 l 1
 333 327 l 1
 303 348 l 1
 340 348 l 1
 351 383 l 1
245 383 m 1
 256 348 l 1
 293 348 l 1
 263 327 l 1
 274 293 l 1
 245 314 l 1
 216 293 l 1
 227 327 l 1
 197 348 l 1
 234 348 l 1
 245 383 l 1
138 383 m 1
 149 348 l 1
 186 348 l 1
 156 327 l 1
 167 293 l 1
 138 314 l 1
 109 293 l 1
 120 327 l 1
 90 348 l 1
 127 348 l 1
 138 383 l 1
405 467 m 1
 416 432 l 1
 453 432 l 1
 423 411 l 1
 434 377 l 1
 405 398 l 1
 376 377 l 1
 387 411 l 1
 357 432 l 1
 394 432 l 1
 405 467 l 1
191 467 m 1
 202 432 l 1
 239 432 l 1
 209 411 l 1
 220 377 l 1
 191 398 l 1
 162 377 l 1
 173 411 l 1
 143 432 l 1
 180 432 l 1
 191 467 l 1
351 550 m 1
 362 515 l 1
 399 515 l 1
 369 494 l 1
 380 460 l 1
 351 481 l 1
 322 460 l 1
 333 494 l 1
 303 515 l 1
 340 515 l 1
 351 550 l 1
245 550 m 1
 256 515 l 1
 293 515 l 1
 263 494 l 1
 274 460 l 1
 245 481 l 1
 216 460 l 1
 227 494 l 1
 197 515 l 1
 234 515 l 1
 245 550 l 1
298 633 m 1
 309 598 l 1
 346 598 l 1
 316 577 l 1
 327 543 l 1
 298 564 l 1
 269 543 l 1
 280 577 l 1
 250 598 l 1
 287 598 l 1
 298 633 l 1
351 717 m 1
 362 682 l 1
 399 682 l 1
 369 661 l 1
 380 627 l 1
 351 648 l 1
 322 627 l 1
 333 661 l 1
 303 682 l 1
 340 682 l 1
 351 717 l 1
298 800 m 1
 309 765 l 1
 346 765 l 1
 316 744 l 1
 327 710 l 1
 298 731 l 1
 269 710 l 1
 280 744 l 1
 250 765 l 1
 287 765 l 1
 298 800 l 1
EndSplineSet
EndChar

StartChar: C
Encoding: 67 67 52
Width: 600
VWidth: 0
UnlinkRmOvrlpSave: 1
Flags: W
HStem: 210 21G<168.471 189.619 192.381 213.529 275.471 296.619 299.381 320.529 382.471 403.619 406.381 427.529> 210 21G<168.471 189.619 192.381 213.529 275.471 296.619 299.381 320.529 382.471 403.619 406.381 427.529> 613 20G<131.714 144.286> 780 20G<184.714 197.286 291.714 304.286 398.714 411.286>
LayerCount: 2
Back
Fore
SplineSet
405 300 m 1x70
 416 265 l 1
 453 265 l 1
 423 244 l 1
 434 210 l 1
 405 231 l 1
 376 210 l 1
 387 244 l 1
 357 265 l 1
 394 265 l 1
 405 300 l 1x70
298 300 m 1
 309 265 l 1
 346 265 l 1
 316 244 l 1
 327 210 l 1
 298 231 l 1
 269 210 l 1
 280 244 l 1
 250 265 l 1
 287 265 l 1
 298 300 l 1
191 300 m 1
 202 265 l 1
 239 265 l 1
 209 244 l 1
 220 210 l 1
 191 231 l 1
 162 210 l 1
 173 244 l 1
 143 265 l 1
 180 265 l 1
 191 300 l 1
458 383 m 1
 469 348 l 1
 506 348 l 1
 476 327 l 1
 487 293 l 1
 458 314 l 1
 429 293 l 1
 440 327 l 1
 410 348 l 1
 447 348 l 1
 458 383 l 1
138 383 m 1
 149 348 l 1
 186 348 l 1
 156 327 l 1
 167 293 l 1
 138 314 l 1
 109 293 l 1
 120 327 l 1
 90 348 l 1
 127 348 l 1
 138 383 l 1
138 467 m 1
 149 432 l 1
 186 432 l 1
 156 411 l 1
 167 377 l 1
 138 398 l 1
 109 377 l 1
 120 411 l 1
 90 432 l 1
 127 432 l 1
 138 467 l 1
138 550 m 1
 149 515 l 1
 186 515 l 1
 156 494 l 1
 167 460 l 1
 138 481 l 1
 109 460 l 1
 120 494 l 1
 90 515 l 1
 127 515 l 1
 138 550 l 1
138 633 m 1
 149 598 l 1
 186 598 l 1
 156 577 l 1
 167 543 l 1
 138 564 l 1
 109 543 l 1
 120 577 l 1
 90 598 l 1
 127 598 l 1
 138 633 l 1
458 717 m 1
 469 682 l 1
 506 682 l 1
 476 661 l 1
 487 627 l 1
 458 648 l 1
 429 627 l 1
 440 661 l 1
 410 682 l 1
 447 682 l 1
 458 717 l 1
138 717 m 1
 149 682 l 1
 186 682 l 1
 156 661 l 1
 167 627 l 1
 138 648 l 1
 109 627 l 1
 120 661 l 1
 90 682 l 1
 127 682 l 1
 138 717 l 1
405 800 m 1
 416 765 l 1
 453 765 l 1
 423 744 l 1
 434 710 l 1
 405 731 l 1
 376 710 l 1
 387 744 l 1
 357 765 l 1
 394 765 l 1
 405 800 l 1
298 800 m 1
 309 765 l 1
 346 765 l 1
 316 744 l 1
 327 710 l 1
 298 731 l 1
 269 710 l 1
 280 744 l 1
 250 765 l 1
 287 765 l 1
 298 800 l 1
191 800 m 1
 202 765 l 1
 239 765 l 1
 209 744 l 1
 220 710 l 1
 191 731 l 1
 162 710 l 1
 173 744 l 1
 143 765 l 1
 180 765 l 1
 191 800 l 1
EndSplineSet
EndChar

StartChar: Adieresis
Encoding: 196 196 53
Width: 600
VWidth: 0
UnlinkRmOvrlpSave: 1
Flags: W
HStem: 210 21G<115.471 136.619 139.381 160.529 435.471 456.619 459.381 480.529> 210 21G<115.471 136.619 139.381 160.529 435.471 456.619 459.381 480.529> 613 20G<238.714 251.286 344.714 357.286> 780 20G<184.714 197.286 398.714 411.286>
LayerCount: 2
Back
Fore
SplineSet
458 300 m 1x70
 469 265 l 1
 506 265 l 1
 476 244 l 1
 487 210 l 1
 458 231 l 1
 429 210 l 1
 440 244 l 1
 410 265 l 1
 447 265 l 1
 458 300 l 1x70
138 300 m 1
 149 265 l 1
 186 265 l 1
 156 244 l 1
 167 210 l 1
 138 231 l 1
 109 210 l 1
 120 244 l 1
 90 265 l 1
 127 265 l 1
 138 300 l 1
458 383 m 1
 469 348 l 1
 506 348 l 1
 476 327 l 1
 487 293 l 1
 458 314 l 1
 429 293 l 1
 440 327 l 1
 410 348 l 1
 447 348 l 1
 458 383 l 1
138 383 m 1
 149 348 l 1
 186 348 l 1
 156 327 l 1
 167 293 l 1
 138 314 l 1
 109 293 l 1
 120 327 l 1
 90 348 l 1
 127 348 l 1
 138 383 l 1
458 467 m 1
 469 432 l 1
 506 432 l 1
 476 411 l 1
 487 377 l 1
 458 398 l 1
 429 377 l 1
 440 411 l 1
 410 432 l 1
 447 432 l 1
 458 467 l 1
351 467 m 1
 362 432 l 1
 399 432 l 1
 369 411 l 1
 380 377 l 1
 351 398 l 1
 322 377 l 1
 333 411 l 1
 303 432 l 1
 340 432 l 1
 351 467 l 1
245 467 m 1
 256 432 l 1
 293 432 l 1
 263 411 l 1
 274 377 l 1
 245 398 l 1
 216 377 l 1
 227 411 l 1
 197 432 l 1
 234 432 l 1
 245 467 l 1
138 467 m 1
 149 432 l 1
 186 432 l 1
 156 411 l 1
 167 377 l 1
 138 398 l 1
 109 377 l 1
 120 411 l 1
 90 432 l 1
 127 432 l 1
 138 467 l 1
405 550 m 1
 416 515 l 1
 453 515 l 1
 423 494 l 1
 434 460 l 1
 405 481 l 1
 376 460 l 1
 387 494 l 1
 357 515 l 1
 394 515 l 1
 405 550 l 1
191 550 m 1
 202 515 l 1
 239 515 l 1
 209 494 l 1
 220 460 l 1
 191 481 l 1
 162 460 l 1
 173 494 l 1
 143 515 l 1
 180 515 l 1
 191 550 l 1
351 633 m 1
 362 598 l 1
 399 598 l 1
 369 577 l 1
 380 543 l 1
 351 564 l 1
 322 543 l 1
 333 577 l 1
 303 598 l 1
 340 598 l 1
 351 633 l 1
245 633 m 1
 256 598 l 1
 293 598 l 1
 263 577 l 1
 274 543 l 1
 245 564 l 1
 216 543 l 1
 227 577 l 1
 197 598 l 1
 234 598 l 1
 245 633 l 1
298 717 m 1
 309 682 l 1
 346 682 l 1
 316 661 l 1
 327 627 l 1
 298 648 l 1
 269 627 l 1
 280 661 l 1
 250 682 l 1
 287 682 l 1
 298 717 l 1
405 800 m 1
 416 765 l 1
 453 765 l 1
 423 744 l 1
 434 710 l 1
 405 731 l 1
 376 710 l 1
 387 744 l 1
 357 765 l 1
 394 765 l 1
 405 800 l 1
191 800 m 1
 202 765 l 1
 239 765 l 1
 209 744 l 1
 220 710 l 1
 191 731 l 1
 162 710 l 1
 173 744 l 1
 143 765 l 1
 180 765 l 1
 191 800 l 1
EndSplineSet
EndChar

StartChar: G
Encoding: 71 71 54
Width: 600
VWidth: 0
UnlinkRmOvrlpSave: 1
Flags: W
HStem: 210 21G<168.471 189.619 192.381 213.529 275.471 296.619 299.381 320.529 382.471 403.619 406.381 427.529> 210 21G<168.471 189.619 192.381 213.529 275.471 296.619 299.381 320.529 382.471 403.619 406.381 427.529> 613 20G<131.714 144.286> 780 20G<184.714 197.286 291.714 304.286 398.714 411.286>
LayerCount: 2
Back
Fore
SplineSet
405 300 m 1x70
 416 265 l 1
 453 265 l 1
 423 244 l 1
 434 210 l 1
 405 231 l 1
 376 210 l 1
 387 244 l 1
 357 265 l 1
 394 265 l 1
 405 300 l 1x70
298 300 m 1
 309 265 l 1
 346 265 l 1
 316 244 l 1
 327 210 l 1
 298 231 l 1
 269 210 l 1
 280 244 l 1
 250 265 l 1
 287 265 l 1
 298 300 l 1
191 300 m 1
 202 265 l 1
 239 265 l 1
 209 244 l 1
 220 210 l 1
 191 231 l 1
 162 210 l 1
 173 244 l 1
 143 265 l 1
 180 265 l 1
 191 300 l 1
458 383 m 1
 469 348 l 1
 506 348 l 1
 476 327 l 1
 487 293 l 1
 458 314 l 1
 429 293 l 1
 440 327 l 1
 410 348 l 1
 447 348 l 1
 458 383 l 1
138 383 m 1
 149 348 l 1
 186 348 l 1
 156 327 l 1
 167 293 l 1
 138 314 l 1
 109 293 l 1
 120 327 l 1
 90 348 l 1
 127 348 l 1
 138 383 l 1
458 467 m 1
 469 432 l 1
 506 432 l 1
 476 411 l 1
 487 377 l 1
 458 398 l 1
 429 377 l 1
 440 411 l 1
 410 432 l 1
 447 432 l 1
 458 467 l 1
138 467 m 1
 149 432 l 1
 186 432 l 1
 156 411 l 1
 167 377 l 1
 138 398 l 1
 109 377 l 1
 120 411 l 1
 90 432 l 1
 127 432 l 1
 138 467 l 1
458 550 m 1
 469 515 l 1
 506 515 l 1
 476 494 l 1
 487 460 l 1
 458 481 l 1
 429 460 l 1
 440 494 l 1
 410 515 l 1
 447 515 l 1
 458 550 l 1
351 550 m 1
 362 515 l 1
 399 515 l 1
 369 494 l 1
 380 460 l 1
 351 481 l 1
 322 460 l 1
 333 494 l 1
 303 515 l 1
 340 515 l 1
 351 550 l 1
138 550 m 1
 149 515 l 1
 186 515 l 1
 156 494 l 1
 167 460 l 1
 138 481 l 1
 109 460 l 1
 120 494 l 1
 90 515 l 1
 127 515 l 1
 138 550 l 1
138 633 m 1
 149 598 l 1
 186 598 l 1
 156 577 l 1
 167 543 l 1
 138 564 l 1
 109 543 l 1
 120 577 l 1
 90 598 l 1
 127 598 l 1
 138 633 l 1
458 717 m 1
 469 682 l 1
 506 682 l 1
 476 661 l 1
 487 627 l 1
 458 648 l 1
 429 627 l 1
 440 661 l 1
 410 682 l 1
 447 682 l 1
 458 717 l 1
138 717 m 1
 149 682 l 1
 186 682 l 1
 156 661 l 1
 167 627 l 1
 138 648 l 1
 109 627 l 1
 120 661 l 1
 90 682 l 1
 127 682 l 1
 138 717 l 1
405 800 m 1
 416 765 l 1
 453 765 l 1
 423 744 l 1
 434 710 l 1
 405 731 l 1
 376 710 l 1
 387 744 l 1
 357 765 l 1
 394 765 l 1
 405 800 l 1
298 800 m 1
 309 765 l 1
 346 765 l 1
 316 744 l 1
 327 710 l 1
 298 731 l 1
 269 710 l 1
 280 744 l 1
 250 765 l 1
 287 765 l 1
 298 800 l 1
191 800 m 1
 202 765 l 1
 239 765 l 1
 209 744 l 1
 220 710 l 1
 191 731 l 1
 162 710 l 1
 173 744 l 1
 143 765 l 1
 180 765 l 1
 191 800 l 1
EndSplineSet
EndChar

StartChar: Egrave
Encoding: 200 200 55
Width: 600
VWidth: 0
UnlinkRmOvrlpSave: 1
Flags: W
HStem: 210 21G<115.471 136.619 139.381 160.529 222.471 243.619 246.381 267.529 328.471 349.619 352.381 373.529 435.471 456.619 459.381 480.529> 210 21G<115.471 136.619 139.381 160.529 222.471 243.619 246.381 267.529 328.471 349.619 352.381 373.529 435.471 456.619 459.381 480.529> 613 20G<131.714 144.286 238.714 251.286 344.714 357.286 451.714 464.286> 780 20G<291.714 304.286>
LayerCount: 2
Back
Fore
SplineSet
458 300 m 1x70
 469 265 l 1
 506 265 l 1
 476 244 l 1
 487 210 l 1
 458 231 l 1
 429 210 l 1
 440 244 l 1
 410 265 l 1
 447 265 l 1
 458 300 l 1x70
351 300 m 1
 362 265 l 1
 399 265 l 1
 369 244 l 1
 380 210 l 1
 351 231 l 1
 322 210 l 1
 333 244 l 1
 303 265 l 1
 340 265 l 1
 351 300 l 1
245 300 m 1
 256 265 l 1
 293 265 l 1
 263 244 l 1
 274 210 l 1
 245 231 l 1
 216 210 l 1
 227 244 l 1
 197 265 l 1
 234 265 l 1
 245 300 l 1
138 300 m 1
 149 265 l 1
 186 265 l 1
 156 244 l 1
 167 210 l 1
 138 231 l 1
 109 210 l 1
 120 244 l 1
 90 265 l 1
 127 265 l 1
 138 300 l 1
138 383 m 1
 149 348 l 1
 186 348 l 1
 156 327 l 1
 167 293 l 1
 138 314 l 1
 109 293 l 1
 120 327 l 1
 90 348 l 1
 127 348 l 1
 138 383 l 1
351 467 m 1
 362 432 l 1
 399 432 l 1
 369 411 l 1
 380 377 l 1
 351 398 l 1
 322 377 l 1
 333 411 l 1
 303 432 l 1
 340 432 l 1
 351 467 l 1
245 467 m 1
 256 432 l 1
 293 432 l 1
 263 411 l 1
 274 377 l 1
 245 398 l 1
 216 377 l 1
 227 411 l 1
 197 432 l 1
 234 432 l 1
 245 467 l 1
138 467 m 1
 149 432 l 1
 186 432 l 1
 156 411 l 1
 167 377 l 1
 138 398 l 1
 109 377 l 1
 120 411 l 1
 90 432 l 1
 127 432 l 1
 138 467 l 1
138 550 m 1
 149 515 l 1
 186 515 l 1
 156 494 l 1
 167 460 l 1
 138 481 l 1
 109 460 l 1
 120 494 l 1
 90 515 l 1
 127 515 l 1
 138 550 l 1
458 633 m 1
 469 598 l 1
 506 598 l 1
 476 577 l 1
 487 543 l 1
 458 564 l 1
 429 543 l 1
 440 577 l 1
 410 598 l 1
 447 598 l 1
 458 633 l 1
351 633 m 1
 362 598 l 1
 399 598 l 1
 369 577 l 1
 380 543 l 1
 351 564 l 1
 322 543 l 1
 333 577 l 1
 303 598 l 1
 340 598 l 1
 351 633 l 1
245 633 m 1
 256 598 l 1
 293 598 l 1
 263 577 l 1
 274 543 l 1
 245 564 l 1
 216 543 l 1
 227 577 l 1
 197 598 l 1
 234 598 l 1
 245 633 l 1
138 633 m 1
 149 598 l 1
 186 598 l 1
 156 577 l 1
 167 543 l 1
 138 564 l 1
 109 543 l 1
 120 577 l 1
 90 598 l 1
 127 598 l 1
 138 633 l 1
351 717 m 1
 362 682 l 1
 399 682 l 1
 369 661 l 1
 380 627 l 1
 351 648 l 1
 322 627 l 1
 333 661 l 1
 303 682 l 1
 340 682 l 1
 351 717 l 1
298 800 m 1
 309 765 l 1
 346 765 l 1
 316 744 l 1
 327 710 l 1
 298 731 l 1
 269 710 l 1
 280 744 l 1
 250 765 l 1
 287 765 l 1
 298 800 l 1
EndSplineSet
EndChar

StartChar: K
Encoding: 75 75 56
Width: 600
VWidth: 0
UnlinkRmOvrlpSave: 1
Flags: W
HStem: 210 21G<115.471 136.619 139.381 160.529 435.471 456.619 459.381 480.529> 210 21G<115.471 136.619 139.381 160.529 435.471 456.619 459.381 480.529> 613 20G<131.714 144.286 238.714 251.286> 780 20G<131.714 144.286 451.714 464.286>
LayerCount: 2
Back
Fore
SplineSet
458 300 m 1x70
 469 265 l 1
 506 265 l 1
 476 244 l 1
 487 210 l 1
 458 231 l 1
 429 210 l 1
 440 244 l 1
 410 265 l 1
 447 265 l 1
 458 300 l 1x70
138 300 m 1
 149 265 l 1
 186 265 l 1
 156 244 l 1
 167 210 l 1
 138 231 l 1
 109 210 l 1
 120 244 l 1
 90 265 l 1
 127 265 l 1
 138 300 l 1
405 383 m 1
 416 348 l 1
 453 348 l 1
 423 327 l 1
 434 293 l 1
 405 314 l 1
 376 293 l 1
 387 327 l 1
 357 348 l 1
 394 348 l 1
 405 383 l 1
138 383 m 1
 149 348 l 1
 186 348 l 1
 156 327 l 1
 167 293 l 1
 138 314 l 1
 109 293 l 1
 120 327 l 1
 90 348 l 1
 127 348 l 1
 138 383 l 1
351 467 m 1
 362 432 l 1
 399 432 l 1
 369 411 l 1
 380 377 l 1
 351 398 l 1
 322 377 l 1
 333 411 l 1
 303 432 l 1
 340 432 l 1
 351 467 l 1
138 467 m 1
 149 432 l 1
 186 432 l 1
 156 411 l 1
 167 377 l 1
 138 398 l 1
 109 377 l 1
 120 411 l 1
 90 432 l 1
 127 432 l 1
 138 467 l 1
298 550 m 1
 309 515 l 1
 346 515 l 1
 316 494 l 1
 327 460 l 1
 298 481 l 1
 269 460 l 1
 280 494 l 1
 250 515 l 1
 287 515 l 1
 298 550 l 1
138 550 m 1
 149 515 l 1
 186 515 l 1
 156 494 l 1
 167 460 l 1
 138 481 l 1
 109 460 l 1
 120 494 l 1
 90 515 l 1
 127 515 l 1
 138 550 l 1
245 633 m 1
 256 598 l 1
 293 598 l 1
 263 577 l 1
 274 543 l 1
 245 564 l 1
 216 543 l 1
 227 577 l 1
 197 598 l 1
 234 598 l 1
 245 633 l 1
138 633 m 1
 149 598 l 1
 186 598 l 1
 156 577 l 1
 167 543 l 1
 138 564 l 1
 109 543 l 1
 120 577 l 1
 90 598 l 1
 127 598 l 1
 138 633 l 1
351 717 m 1
 362 682 l 1
 399 682 l 1
 369 661 l 1
 380 627 l 1
 351 648 l 1
 322 627 l 1
 333 661 l 1
 303 682 l 1
 340 682 l 1
 351 717 l 1
138 717 m 1
 149 682 l 1
 186 682 l 1
 156 661 l 1
 167 627 l 1
 138 648 l 1
 109 627 l 1
 120 661 l 1
 90 682 l 1
 127 682 l 1
 138 717 l 1
458 800 m 1
 469 765 l 1
 506 765 l 1
 476 744 l 1
 487 710 l 1
 458 731 l 1
 429 710 l 1
 440 744 l 1
 410 765 l 1
 447 765 l 1
 458 800 l 1
138 800 m 1
 149 765 l 1
 186 765 l 1
 156 744 l 1
 167 710 l 1
 138 731 l 1
 109 710 l 1
 120 744 l 1
 90 765 l 1
 127 765 l 1
 138 800 l 1
EndSplineSet
EndChar

StartChar: O
Encoding: 79 79 57
Width: 600
VWidth: 0
UnlinkRmOvrlpSave: 1
Flags: W
HStem: 210 21G<168.471 189.619 192.381 213.529 275.471 296.619 299.381 320.529 382.471 403.619 406.381 427.529> 210 21G<168.471 189.619 192.381 213.529 275.471 296.619 299.381 320.529 382.471 403.619 406.381 427.529> 613 20G<131.714 144.286 451.714 464.286> 780 20G<184.714 197.286 291.714 304.286 398.714 411.286>
LayerCount: 2
Back
Fore
SplineSet
405 300 m 1x70
 416 265 l 1
 453 265 l 1
 423 244 l 1
 434 210 l 1
 405 231 l 1
 376 210 l 1
 387 244 l 1
 357 265 l 1
 394 265 l 1
 405 300 l 1x70
298 300 m 1
 309 265 l 1
 346 265 l 1
 316 244 l 1
 327 210 l 1
 298 231 l 1
 269 210 l 1
 280 244 l 1
 250 265 l 1
 287 265 l 1
 298 300 l 1
191 300 m 1
 202 265 l 1
 239 265 l 1
 209 244 l 1
 220 210 l 1
 191 231 l 1
 162 210 l 1
 173 244 l 1
 143 265 l 1
 180 265 l 1
 191 300 l 1
458 383 m 1
 469 348 l 1
 506 348 l 1
 476 327 l 1
 487 293 l 1
 458 314 l 1
 429 293 l 1
 440 327 l 1
 410 348 l 1
 447 348 l 1
 458 383 l 1
138 383 m 1
 149 348 l 1
 186 348 l 1
 156 327 l 1
 167 293 l 1
 138 314 l 1
 109 293 l 1
 120 327 l 1
 90 348 l 1
 127 348 l 1
 138 383 l 1
458 467 m 1
 469 432 l 1
 506 432 l 1
 476 411 l 1
 487 377 l 1
 458 398 l 1
 429 377 l 1
 440 411 l 1
 410 432 l 1
 447 432 l 1
 458 467 l 1
138 467 m 1
 149 432 l 1
 186 432 l 1
 156 411 l 1
 167 377 l 1
 138 398 l 1
 109 377 l 1
 120 411 l 1
 90 432 l 1
 127 432 l 1
 138 467 l 1
458 550 m 1
 469 515 l 1
 506 515 l 1
 476 494 l 1
 487 460 l 1
 458 481 l 1
 429 460 l 1
 440 494 l 1
 410 515 l 1
 447 515 l 1
 458 550 l 1
138 550 m 1
 149 515 l 1
 186 515 l 1
 156 494 l 1
 167 460 l 1
 138 481 l 1
 109 460 l 1
 120 494 l 1
 90 515 l 1
 127 515 l 1
 138 550 l 1
458 633 m 1
 469 598 l 1
 506 598 l 1
 476 577 l 1
 487 543 l 1
 458 564 l 1
 429 543 l 1
 440 577 l 1
 410 598 l 1
 447 598 l 1
 458 633 l 1
138 633 m 1
 149 598 l 1
 186 598 l 1
 156 577 l 1
 167 543 l 1
 138 564 l 1
 109 543 l 1
 120 577 l 1
 90 598 l 1
 127 598 l 1
 138 633 l 1
458 717 m 1
 469 682 l 1
 506 682 l 1
 476 661 l 1
 487 627 l 1
 458 648 l 1
 429 627 l 1
 440 661 l 1
 410 682 l 1
 447 682 l 1
 458 717 l 1
138 717 m 1
 149 682 l 1
 186 682 l 1
 156 661 l 1
 167 627 l 1
 138 648 l 1
 109 627 l 1
 120 661 l 1
 90 682 l 1
 127 682 l 1
 138 717 l 1
405 800 m 1
 416 765 l 1
 453 765 l 1
 423 744 l 1
 434 710 l 1
 405 731 l 1
 376 710 l 1
 387 744 l 1
 357 765 l 1
 394 765 l 1
 405 800 l 1
298 800 m 1
 309 765 l 1
 346 765 l 1
 316 744 l 1
 327 710 l 1
 298 731 l 1
 269 710 l 1
 280 744 l 1
 250 765 l 1
 287 765 l 1
 298 800 l 1
191 800 m 1
 202 765 l 1
 239 765 l 1
 209 744 l 1
 220 710 l 1
 191 731 l 1
 162 710 l 1
 173 744 l 1
 143 765 l 1
 180 765 l 1
 191 800 l 1
EndSplineSet
EndChar

StartChar: S
Encoding: 83 83 58
Width: 600
VWidth: 0
UnlinkRmOvrlpSave: 1
Flags: W
HStem: 210 21G<168.471 189.619 192.381 213.529 275.471 296.619 299.381 320.529 382.471 403.619 406.381 427.529> 210 21G<168.471 189.619 192.381 213.529 275.471 296.619 299.381 320.529 382.471 403.619 406.381 427.529> 613 20G<131.714 144.286> 780 20G<184.714 197.286 291.714 304.286 398.714 411.286>
LayerCount: 2
Back
Fore
SplineSet
405 300 m 1x70
 416 265 l 1
 453 265 l 1
 423 244 l 1
 434 210 l 1
 405 231 l 1
 376 210 l 1
 387 244 l 1
 357 265 l 1
 394 265 l 1
 405 300 l 1x70
298 300 m 1
 309 265 l 1
 346 265 l 1
 316 244 l 1
 327 210 l 1
 298 231 l 1
 269 210 l 1
 280 244 l 1
 250 265 l 1
 287 265 l 1
 298 300 l 1
191 300 m 1
 202 265 l 1
 239 265 l 1
 209 244 l 1
 220 210 l 1
 191 231 l 1
 162 210 l 1
 173 244 l 1
 143 265 l 1
 180 265 l 1
 191 300 l 1
458 383 m 1
 469 348 l 1
 506 348 l 1
 476 327 l 1
 487 293 l 1
 458 314 l 1
 429 293 l 1
 440 327 l 1
 410 348 l 1
 447 348 l 1
 458 383 l 1
138 383 m 1
 149 348 l 1
 186 348 l 1
 156 327 l 1
 167 293 l 1
 138 314 l 1
 109 293 l 1
 120 327 l 1
 90 348 l 1
 127 348 l 1
 138 383 l 1
458 467 m 1
 469 432 l 1
 506 432 l 1
 476 411 l 1
 487 377 l 1
 458 398 l 1
 429 377 l 1
 440 411 l 1
 410 432 l 1
 447 432 l 1
 458 467 l 1
405 550 m 1
 416 515 l 1
 453 515 l 1
 423 494 l 1
 434 460 l 1
 405 481 l 1
 376 460 l 1
 387 494 l 1
 357 515 l 1
 394 515 l 1
 405 550 l 1
298 550 m 1
 309 515 l 1
 346 515 l 1
 316 494 l 1
 327 460 l 1
 298 481 l 1
 269 460 l 1
 280 494 l 1
 250 515 l 1
 287 515 l 1
 298 550 l 1
191 550 m 1
 202 515 l 1
 239 515 l 1
 209 494 l 1
 220 460 l 1
 191 481 l 1
 162 460 l 1
 173 494 l 1
 143 515 l 1
 180 515 l 1
 191 550 l 1
138 633 m 1
 149 598 l 1
 186 598 l 1
 156 577 l 1
 167 543 l 1
 138 564 l 1
 109 543 l 1
 120 577 l 1
 90 598 l 1
 127 598 l 1
 138 633 l 1
458 717 m 1
 469 682 l 1
 506 682 l 1
 476 661 l 1
 487 627 l 1
 458 648 l 1
 429 627 l 1
 440 661 l 1
 410 682 l 1
 447 682 l 1
 458 717 l 1
138 717 m 1
 149 682 l 1
 186 682 l 1
 156 661 l 1
 167 627 l 1
 138 648 l 1
 109 627 l 1
 120 661 l 1
 90 682 l 1
 127 682 l 1
 138 717 l 1
405 800 m 1
 416 765 l 1
 453 765 l 1
 423 744 l 1
 434 710 l 1
 405 731 l 1
 376 710 l 1
 387 744 l 1
 357 765 l 1
 394 765 l 1
 405 800 l 1
298 800 m 1
 309 765 l 1
 346 765 l 1
 316 744 l 1
 327 710 l 1
 298 731 l 1
 269 710 l 1
 280 744 l 1
 250 765 l 1
 287 765 l 1
 298 800 l 1
191 800 m 1
 202 765 l 1
 239 765 l 1
 209 744 l 1
 220 710 l 1
 191 731 l 1
 162 710 l 1
 173 744 l 1
 143 765 l 1
 180 765 l 1
 191 800 l 1
EndSplineSet
EndChar

StartChar: W
Encoding: 87 87 59
Width: 600
VWidth: 0
UnlinkRmOvrlpSave: 1
Flags: W
HStem: 210 21G<168.471 189.619 192.381 213.529 382.471 403.619 406.381 427.529> 210 21G<168.471 189.619 192.381 213.529 382.471 403.619 406.381 427.529> 613 20G<131.714 144.286 451.714 464.286> 780 20G<131.714 144.286 451.714 464.286>
LayerCount: 2
Back
Fore
SplineSet
405 300 m 1x70
 416 265 l 1
 453 265 l 1
 423 244 l 1
 434 210 l 1
 405 231 l 1
 376 210 l 1
 387 244 l 1
 357 265 l 1
 394 265 l 1
 405 300 l 1x70
191 300 m 1
 202 265 l 1
 239 265 l 1
 209 244 l 1
 220 210 l 1
 191 231 l 1
 162 210 l 1
 173 244 l 1
 143 265 l 1
 180 265 l 1
 191 300 l 1
458 383 m 1
 469 348 l 1
 506 348 l 1
 476 327 l 1
 487 293 l 1
 458 314 l 1
 429 293 l 1
 440 327 l 1
 410 348 l 1
 447 348 l 1
 458 383 l 1
351 383 m 1
 362 348 l 1
 399 348 l 1
 369 327 l 1
 380 293 l 1
 351 314 l 1
 322 293 l 1
 333 327 l 1
 303 348 l 1
 340 348 l 1
 351 383 l 1
245 383 m 1
 256 348 l 1
 293 348 l 1
 263 327 l 1
 274 293 l 1
 245 314 l 1
 216 293 l 1
 227 327 l 1
 197 348 l 1
 234 348 l 1
 245 383 l 1
138 383 m 1
 149 348 l 1
 186 348 l 1
 156 327 l 1
 167 293 l 1
 138 314 l 1
 109 293 l 1
 120 327 l 1
 90 348 l 1
 127 348 l 1
 138 383 l 1
458 467 m 1
 469 432 l 1
 506 432 l 1
 476 411 l 1
 487 377 l 1
 458 398 l 1
 429 377 l 1
 440 411 l 1
 410 432 l 1
 447 432 l 1
 458 467 l 1
298 467 m 1
 309 432 l 1
 346 432 l 1
 316 411 l 1
 327 377 l 1
 298 398 l 1
 269 377 l 1
 280 411 l 1
 250 432 l 1
 287 432 l 1
 298 467 l 1
138 467 m 1
 149 432 l 1
 186 432 l 1
 156 411 l 1
 167 377 l 1
 138 398 l 1
 109 377 l 1
 120 411 l 1
 90 432 l 1
 127 432 l 1
 138 467 l 1
458 550 m 1
 469 515 l 1
 506 515 l 1
 476 494 l 1
 487 460 l 1
 458 481 l 1
 429 460 l 1
 440 494 l 1
 410 515 l 1
 447 515 l 1
 458 550 l 1
298 550 m 1
 309 515 l 1
 346 515 l 1
 316 494 l 1
 327 460 l 1
 298 481 l 1
 269 460 l 1
 280 494 l 1
 250 515 l 1
 287 515 l 1
 298 550 l 1
138 550 m 1
 149 515 l 1
 186 515 l 1
 156 494 l 1
 167 460 l 1
 138 481 l 1
 109 460 l 1
 120 494 l 1
 90 515 l 1
 127 515 l 1
 138 550 l 1
458 633 m 1
 469 598 l 1
 506 598 l 1
 476 577 l 1
 487 543 l 1
 458 564 l 1
 429 543 l 1
 440 577 l 1
 410 598 l 1
 447 598 l 1
 458 633 l 1
138 633 m 1
 149 598 l 1
 186 598 l 1
 156 577 l 1
 167 543 l 1
 138 564 l 1
 109 543 l 1
 120 577 l 1
 90 598 l 1
 127 598 l 1
 138 633 l 1
458 717 m 1
 469 682 l 1
 506 682 l 1
 476 661 l 1
 487 627 l 1
 458 648 l 1
 429 627 l 1
 440 661 l 1
 410 682 l 1
 447 682 l 1
 458 717 l 1
138 717 m 1
 149 682 l 1
 186 682 l 1
 156 661 l 1
 167 627 l 1
 138 648 l 1
 109 627 l 1
 120 661 l 1
 90 682 l 1
 127 682 l 1
 138 717 l 1
458 800 m 1
 469 765 l 1
 506 765 l 1
 476 744 l 1
 487 710 l 1
 458 731 l 1
 429 710 l 1
 440 744 l 1
 410 765 l 1
 447 765 l 1
 458 800 l 1
138 800 m 1
 149 765 l 1
 186 765 l 1
 156 744 l 1
 167 710 l 1
 138 731 l 1
 109 710 l 1
 120 744 l 1
 90 765 l 1
 127 765 l 1
 138 800 l 1
EndSplineSet
EndChar

StartChar: Oslash
Encoding: 216 216 60
Width: 600
VWidth: 0
UnlinkRmOvrlpSave: 1
Flags: W
HStem: 210 21G<222.471 243.619 246.381 267.529 328.471 349.619 352.381 373.529> 210 21G<222.471 243.619 246.381 267.529 328.471 349.619 352.381 373.529> 613 20G<131.714 144.286 344.714 357.286 451.714 464.286> 780 20G<238.714 251.286 344.714 357.286>
LayerCount: 2
Back
Fore
SplineSet
351 300 m 1x70
 362 265 l 1
 399 265 l 1
 369 244 l 1
 380 210 l 1
 351 231 l 1
 322 210 l 1
 333 244 l 1
 303 265 l 1
 340 265 l 1
 351 300 l 1x70
245 300 m 1
 256 265 l 1
 293 265 l 1
 263 244 l 1
 274 210 l 1
 245 231 l 1
 216 210 l 1
 227 244 l 1
 197 265 l 1
 234 265 l 1
 245 300 l 1
405 383 m 1
 416 348 l 1
 453 348 l 1
 423 327 l 1
 434 293 l 1
 405 314 l 1
 376 293 l 1
 387 327 l 1
 357 348 l 1
 394 348 l 1
 405 383 l 1
191 383 m 1
 202 348 l 1
 239 348 l 1
 209 327 l 1
 220 293 l 1
 191 314 l 1
 162 293 l 1
 173 327 l 1
 143 348 l 1
 180 348 l 1
 191 383 l 1
458 467 m 1
 469 432 l 1
 506 432 l 1
 476 411 l 1
 487 377 l 1
 458 398 l 1
 429 377 l 1
 440 411 l 1
 410 432 l 1
 447 432 l 1
 458 467 l 1
245 467 m 1
 256 432 l 1
 293 432 l 1
 263 411 l 1
 274 377 l 1
 245 398 l 1
 216 377 l 1
 227 411 l 1
 197 432 l 1
 234 432 l 1
 245 467 l 1
138 467 m 1
 149 432 l 1
 186 432 l 1
 156 411 l 1
 167 377 l 1
 138 398 l 1
 109 377 l 1
 120 411 l 1
 90 432 l 1
 127 432 l 1
 138 467 l 1
458 550 m 1
 469 515 l 1
 506 515 l 1
 476 494 l 1
 487 460 l 1
 458 481 l 1
 429 460 l 1
 440 494 l 1
 410 515 l 1
 447 515 l 1
 458 550 l 1
298 550 m 1
 309 515 l 1
 346 515 l 1
 316 494 l 1
 327 460 l 1
 298 481 l 1
 269 460 l 1
 280 494 l 1
 250 515 l 1
 287 515 l 1
 298 550 l 1
138 550 m 1
 149 515 l 1
 186 515 l 1
 156 494 l 1
 167 460 l 1
 138 481 l 1
 109 460 l 1
 120 494 l 1
 90 515 l 1
 127 515 l 1
 138 550 l 1
458 633 m 1
 469 598 l 1
 506 598 l 1
 476 577 l 1
 487 543 l 1
 458 564 l 1
 429 543 l 1
 440 577 l 1
 410 598 l 1
 447 598 l 1
 458 633 l 1
351 633 m 1
 362 598 l 1
 399 598 l 1
 369 577 l 1
 380 543 l 1
 351 564 l 1
 322 543 l 1
 333 577 l 1
 303 598 l 1
 340 598 l 1
 351 633 l 1
138 633 m 1
 149 598 l 1
 186 598 l 1
 156 577 l 1
 167 543 l 1
 138 564 l 1
 109 543 l 1
 120 577 l 1
 90 598 l 1
 127 598 l 1
 138 633 l 1
405 717 m 1
 416 682 l 1
 453 682 l 1
 423 661 l 1
 434 627 l 1
 405 648 l 1
 376 627 l 1
 387 661 l 1
 357 682 l 1
 394 682 l 1
 405 717 l 1
191 717 m 1
 202 682 l 1
 239 682 l 1
 209 661 l 1
 220 627 l 1
 191 648 l 1
 162 627 l 1
 173 661 l 1
 143 682 l 1
 180 682 l 1
 191 717 l 1
351 800 m 1
 362 765 l 1
 399 765 l 1
 369 744 l 1
 380 710 l 1
 351 731 l 1
 322 710 l 1
 333 744 l 1
 303 765 l 1
 340 765 l 1
 351 800 l 1
245 800 m 1
 256 765 l 1
 293 765 l 1
 263 744 l 1
 274 710 l 1
 245 731 l 1
 216 710 l 1
 227 744 l 1
 197 765 l 1
 234 765 l 1
 245 800 l 1
EndSplineSet
EndChar

StartChar: bracketleft
Encoding: 91 91 61
Width: 600
VWidth: 0
UnlinkRmOvrlpSave: 1
Flags: W
HStem: 210 21G<115.471 136.619 139.381 160.529 222.471 243.619 246.381 267.529 329.471 350.619 353.381 374.529> 210 21G<115.471 136.619 139.381 160.529 222.471 243.619 246.381 267.529 329.471 350.619 353.381 374.529> 613 20G<131.714 144.286> 780 20G<131.714 144.286 238.714 251.286 345.714 358.286>
VStem: 90 310
LayerCount: 2
Back
Fore
SplineSet
352 300 m 1x78
 363 265 l 1
 400 265 l 1
 370 244 l 1
 381 210 l 1
 352 231 l 1
 323 210 l 1
 334 244 l 1
 304 265 l 1
 341 265 l 1
 352 300 l 1x78
245 300 m 1
 256 265 l 1
 293 265 l 1
 263 244 l 1
 274 210 l 1
 245 231 l 1
 216 210 l 1
 227 244 l 1
 197 265 l 1
 234 265 l 1
 245 300 l 1
138 300 m 1
 149 265 l 1
 186 265 l 1
 156 244 l 1
 167 210 l 1
 138 231 l 1
 109 210 l 1
 120 244 l 1
 90 265 l 1
 127 265 l 1
 138 300 l 1
138 383 m 1
 149 348 l 1
 186 348 l 1
 156 327 l 1
 167 293 l 1
 138 314 l 1
 109 293 l 1
 120 327 l 1
 90 348 l 1
 127 348 l 1
 138 383 l 1
138 467 m 1
 149 432 l 1
 186 432 l 1
 156 411 l 1
 167 377 l 1
 138 398 l 1
 109 377 l 1
 120 411 l 1
 90 432 l 1
 127 432 l 1
 138 467 l 1
138 550 m 1
 149 515 l 1
 186 515 l 1
 156 494 l 1
 167 460 l 1
 138 481 l 1
 109 460 l 1
 120 494 l 1
 90 515 l 1
 127 515 l 1
 138 550 l 1
138 633 m 1
 149 598 l 1
 186 598 l 1
 156 577 l 1
 167 543 l 1
 138 564 l 1
 109 543 l 1
 120 577 l 1
 90 598 l 1
 127 598 l 1
 138 633 l 1
138 717 m 1
 149 682 l 1
 186 682 l 1
 156 661 l 1
 167 627 l 1
 138 648 l 1
 109 627 l 1
 120 661 l 1
 90 682 l 1
 127 682 l 1
 138 717 l 1
352 800 m 1
 363 765 l 1
 400 765 l 1
 370 744 l 1
 381 710 l 1
 352 731 l 1
 323 710 l 1
 334 744 l 1
 304 765 l 1
 341 765 l 1
 352 800 l 1
245 800 m 1
 256 765 l 1
 293 765 l 1
 263 744 l 1
 274 710 l 1
 245 731 l 1
 216 710 l 1
 227 744 l 1
 197 765 l 1
 234 765 l 1
 245 800 l 1
138 800 m 1
 149 765 l 1
 186 765 l 1
 156 744 l 1
 167 710 l 1
 138 731 l 1
 109 710 l 1
 120 744 l 1
 90 765 l 1
 127 765 l 1
 138 800 l 1
EndSplineSet
EndChar

StartChar: Udieresis
Encoding: 220 220 62
Width: 600
VWidth: 0
UnlinkRmOvrlpSave: 1
Flags: W
HStem: 210 21G<168.471 189.619 192.381 213.529 275.471 296.619 299.381 320.529 382.471 403.619 406.381 427.529> 210 21G<168.471 189.619 192.381 213.529 275.471 296.619 299.381 320.529 382.471 403.619 406.381 427.529> 613 20G<131.714 144.286 451.714 464.286> 780 20G<131.714 144.286 451.714 464.286>
LayerCount: 2
Back
Fore
SplineSet
405 300 m 1x70
 416 265 l 1
 453 265 l 1
 423 244 l 1
 434 210 l 1
 405 231 l 1
 376 210 l 1
 387 244 l 1
 357 265 l 1
 394 265 l 1
 405 300 l 1x70
298 300 m 1
 309 265 l 1
 346 265 l 1
 316 244 l 1
 327 210 l 1
 298 231 l 1
 269 210 l 1
 280 244 l 1
 250 265 l 1
 287 265 l 1
 298 300 l 1
191 300 m 1
 202 265 l 1
 239 265 l 1
 209 244 l 1
 220 210 l 1
 191 231 l 1
 162 210 l 1
 173 244 l 1
 143 265 l 1
 180 265 l 1
 191 300 l 1
458 383 m 1
 469 348 l 1
 506 348 l 1
 476 327 l 1
 487 293 l 1
 458 314 l 1
 429 293 l 1
 440 327 l 1
 410 348 l 1
 447 348 l 1
 458 383 l 1
138 383 m 1
 149 348 l 1
 186 348 l 1
 156 327 l 1
 167 293 l 1
 138 314 l 1
 109 293 l 1
 120 327 l 1
 90 348 l 1
 127 348 l 1
 138 383 l 1
458 467 m 1
 469 432 l 1
 506 432 l 1
 476 411 l 1
 487 377 l 1
 458 398 l 1
 429 377 l 1
 440 411 l 1
 410 432 l 1
 447 432 l 1
 458 467 l 1
138 467 m 1
 149 432 l 1
 186 432 l 1
 156 411 l 1
 167 377 l 1
 138 398 l 1
 109 377 l 1
 120 411 l 1
 90 432 l 1
 127 432 l 1
 138 467 l 1
458 550 m 1
 469 515 l 1
 506 515 l 1
 476 494 l 1
 487 460 l 1
 458 481 l 1
 429 460 l 1
 440 494 l 1
 410 515 l 1
 447 515 l 1
 458 550 l 1
138 550 m 1
 149 515 l 1
 186 515 l 1
 156 494 l 1
 167 460 l 1
 138 481 l 1
 109 460 l 1
 120 494 l 1
 90 515 l 1
 127 515 l 1
 138 550 l 1
458 633 m 1
 469 598 l 1
 506 598 l 1
 476 577 l 1
 487 543 l 1
 458 564 l 1
 429 543 l 1
 440 577 l 1
 410 598 l 1
 447 598 l 1
 458 633 l 1
138 633 m 1
 149 598 l 1
 186 598 l 1
 156 577 l 1
 167 543 l 1
 138 564 l 1
 109 543 l 1
 120 577 l 1
 90 598 l 1
 127 598 l 1
 138 633 l 1
458 800 m 1
 469 765 l 1
 506 765 l 1
 476 744 l 1
 487 710 l 1
 458 731 l 1
 429 710 l 1
 440 744 l 1
 410 765 l 1
 447 765 l 1
 458 800 l 1
138 800 m 1
 149 765 l 1
 186 765 l 1
 156 744 l 1
 167 710 l 1
 138 731 l 1
 109 710 l 1
 120 744 l 1
 90 765 l 1
 127 765 l 1
 138 800 l 1
EndSplineSet
EndChar

StartChar: underscore
Encoding: 95 95 63
Width: 600
VWidth: 0
UnlinkRmOvrlpSave: 1
Flags: W
HStem: 210 90
LayerCount: 2
Back
Fore
SplineSet
458 300 m 1
 469 265 l 1
 506 265 l 1
 476 244 l 1
 487 210 l 1
 458 231 l 1
 429 210 l 1
 440 244 l 1
 410 265 l 1
 447 265 l 1
 458 300 l 1
351 300 m 1
 362 265 l 1
 399 265 l 1
 369 244 l 1
 380 210 l 1
 351 231 l 1
 322 210 l 1
 333 244 l 1
 303 265 l 1
 340 265 l 1
 351 300 l 1
245 300 m 1
 256 265 l 1
 293 265 l 1
 263 244 l 1
 274 210 l 1
 245 231 l 1
 216 210 l 1
 227 244 l 1
 197 265 l 1
 234 265 l 1
 245 300 l 1
138 300 m 1
 149 265 l 1
 186 265 l 1
 156 244 l 1
 167 210 l 1
 138 231 l 1
 109 210 l 1
 120 244 l 1
 90 265 l 1
 127 265 l 1
 138 300 l 1
EndSplineSet
EndChar

StartChar: glyph64
Encoding: 567 567 64
Width: 600
VWidth: 0
UnlinkRmOvrlpSave: 1
Flags: W
HStem: 210 21G<168.471 189.619 192.381 213.529 275.471 296.619 299.381 320.529 382.471 403.619 406.381 427.529> 210 21G<168.471 189.619 192.381 213.529 275.471 296.619 299.381 320.529 382.471 403.619 406.381 427.529> 613 20G<451.714 464.286>
LayerCount: 2
Back
Fore
SplineSet
405 300 m 1x60
 416 265 l 1
 453 265 l 1
 423 244 l 1
 434 210 l 1
 405 231 l 1
 376 210 l 1
 387 244 l 1
 357 265 l 1
 394 265 l 1
 405 300 l 1x60
298 300 m 1
 309 265 l 1
 346 265 l 1
 316 244 l 1
 327 210 l 1
 298 231 l 1
 269 210 l 1
 280 244 l 1
 250 265 l 1
 287 265 l 1
 298 300 l 1
191 300 m 1
 202 265 l 1
 239 265 l 1
 209 244 l 1
 220 210 l 1
 191 231 l 1
 162 210 l 1
 173 244 l 1
 143 265 l 1
 180 265 l 1
 191 300 l 1
458 383 m 1
 469 348 l 1
 506 348 l 1
 476 327 l 1
 487 293 l 1
 458 314 l 1
 429 293 l 1
 440 327 l 1
 410 348 l 1
 447 348 l 1
 458 383 l 1
138 383 m 1
 149 348 l 1
 186 348 l 1
 156 327 l 1
 167 293 l 1
 138 314 l 1
 109 293 l 1
 120 327 l 1
 90 348 l 1
 127 348 l 1
 138 383 l 1
458 467 m 1
 469 432 l 1
 506 432 l 1
 476 411 l 1
 487 377 l 1
 458 398 l 1
 429 377 l 1
 440 411 l 1
 410 432 l 1
 447 432 l 1
 458 467 l 1
458 550 m 1
 469 515 l 1
 506 515 l 1
 476 494 l 1
 487 460 l 1
 458 481 l 1
 429 460 l 1
 440 494 l 1
 410 515 l 1
 447 515 l 1
 458 550 l 1
458 633 m 1
 469 598 l 1
 506 598 l 1
 476 577 l 1
 487 543 l 1
 458 564 l 1
 429 543 l 1
 440 577 l 1
 410 598 l 1
 447 598 l 1
 458 633 l 1
EndSplineSet
EndChar

StartChar: agrave
Encoding: 224 224 65
Width: 600
VWidth: 0
UnlinkRmOvrlpSave: 1
Flags: W
HStem: 210 21G<168.471 189.619 192.381 213.529 275.471 296.619 299.381 320.529 382.471 403.619 406.381 427.529> 210 21G<168.471 189.619 192.381 213.529 275.471 296.619 299.381 320.529 382.471 403.619 406.381 427.529> 613 20G<184.714 197.286 291.714 304.286 398.714 411.286> 780 20G<291.714 304.286>
LayerCount: 2
Back
Fore
SplineSet
405 300 m 1x70
 416 265 l 1
 453 265 l 1
 423 244 l 1
 434 210 l 1
 405 231 l 1
 376 210 l 1
 387 244 l 1
 357 265 l 1
 394 265 l 1
 405 300 l 1x70
298 300 m 1
 309 265 l 1
 346 265 l 1
 316 244 l 1
 327 210 l 1
 298 231 l 1
 269 210 l 1
 280 244 l 1
 250 265 l 1
 287 265 l 1
 298 300 l 1
191 300 m 1
 202 265 l 1
 239 265 l 1
 209 244 l 1
 220 210 l 1
 191 231 l 1
 162 210 l 1
 173 244 l 1
 143 265 l 1
 180 265 l 1
 191 300 l 1
458 383 m 1
 469 348 l 1
 506 348 l 1
 476 327 l 1
 487 293 l 1
 458 314 l 1
 429 293 l 1
 440 327 l 1
 410 348 l 1
 447 348 l 1
 458 383 l 1
138 383 m 1
 149 348 l 1
 186 348 l 1
 156 327 l 1
 167 293 l 1
 138 314 l 1
 109 293 l 1
 120 327 l 1
 90 348 l 1
 127 348 l 1
 138 383 l 1
405 467 m 1
 416 432 l 1
 453 432 l 1
 423 411 l 1
 434 377 l 1
 405 398 l 1
 376 377 l 1
 387 411 l 1
 357 432 l 1
 394 432 l 1
 405 467 l 1
298 467 m 1
 309 432 l 1
 346 432 l 1
 316 411 l 1
 327 377 l 1
 298 398 l 1
 269 377 l 1
 280 411 l 1
 250 432 l 1
 287 432 l 1
 298 467 l 1
191 467 m 1
 202 432 l 1
 239 432 l 1
 209 411 l 1
 220 377 l 1
 191 398 l 1
 162 377 l 1
 173 411 l 1
 143 432 l 1
 180 432 l 1
 191 467 l 1
458 550 m 1
 469 515 l 1
 506 515 l 1
 476 494 l 1
 487 460 l 1
 458 481 l 1
 429 460 l 1
 440 494 l 1
 410 515 l 1
 447 515 l 1
 458 550 l 1
405 633 m 1
 416 598 l 1
 453 598 l 1
 423 577 l 1
 434 543 l 1
 405 564 l 1
 376 543 l 1
 387 577 l 1
 357 598 l 1
 394 598 l 1
 405 633 l 1
298 633 m 1
 309 598 l 1
 346 598 l 1
 316 577 l 1
 327 543 l 1
 298 564 l 1
 269 543 l 1
 280 577 l 1
 250 598 l 1
 287 598 l 1
 298 633 l 1
191 633 m 1
 202 598 l 1
 239 598 l 1
 209 577 l 1
 220 543 l 1
 191 564 l 1
 162 543 l 1
 173 577 l 1
 143 598 l 1
 180 598 l 1
 191 633 l 1
351 717 m 1
 362 682 l 1
 399 682 l 1
 369 661 l 1
 380 627 l 1
 351 648 l 1
 322 627 l 1
 333 661 l 1
 303 682 l 1
 340 682 l 1
 351 717 l 1
298 800 m 1
 309 765 l 1
 346 765 l 1
 316 744 l 1
 327 710 l 1
 298 731 l 1
 269 710 l 1
 280 744 l 1
 250 765 l 1
 287 765 l 1
 298 800 l 1
EndSplineSet
EndChar

StartChar: c
Encoding: 99 99 66
Width: 600
VWidth: 0
UnlinkRmOvrlpSave: 1
Flags: W
HStem: 210 21G<168.471 189.619 192.381 213.529 275.471 296.619 299.381 320.529 382.471 403.619 406.381 427.529> 210 21G<168.471 189.619 192.381 213.529 275.471 296.619 299.381 320.529 382.471 403.619 406.381 427.529> 613 20G<184.714 197.286 291.714 304.286 398.714 411.286>
LayerCount: 2
Back
Fore
SplineSet
405 300 m 1x60
 416 265 l 1
 453 265 l 1
 423 244 l 1
 434 210 l 1
 405 231 l 1
 376 210 l 1
 387 244 l 1
 357 265 l 1
 394 265 l 1
 405 300 l 1x60
298 300 m 1
 309 265 l 1
 346 265 l 1
 316 244 l 1
 327 210 l 1
 298 231 l 1
 269 210 l 1
 280 244 l 1
 250 265 l 1
 287 265 l 1
 298 300 l 1
191 300 m 1
 202 265 l 1
 239 265 l 1
 209 244 l 1
 220 210 l 1
 191 231 l 1
 162 210 l 1
 173 244 l 1
 143 265 l 1
 180 265 l 1
 191 300 l 1
138 383 m 1
 149 348 l 1
 186 348 l 1
 156 327 l 1
 167 293 l 1
 138 314 l 1
 109 293 l 1
 120 327 l 1
 90 348 l 1
 127 348 l 1
 138 383 l 1
138 467 m 1
 149 432 l 1
 186 432 l 1
 156 411 l 1
 167 377 l 1
 138 398 l 1
 109 377 l 1
 120 411 l 1
 90 432 l 1
 127 432 l 1
 138 467 l 1
458 550 m 1
 469 515 l 1
 506 515 l 1
 476 494 l 1
 487 460 l 1
 458 481 l 1
 429 460 l 1
 440 494 l 1
 410 515 l 1
 447 515 l 1
 458 550 l 1
138 550 m 1
 149 515 l 1
 186 515 l 1
 156 494 l 1
 167 460 l 1
 138 481 l 1
 109 460 l 1
 120 494 l 1
 90 515 l 1
 127 515 l 1
 138 550 l 1
405 633 m 1
 416 598 l 1
 453 598 l 1
 423 577 l 1
 434 543 l 1
 405 564 l 1
 376 543 l 1
 387 577 l 1
 357 598 l 1
 394 598 l 1
 405 633 l 1
298 633 m 1
 309 598 l 1
 346 598 l 1
 316 577 l 1
 327 543 l 1
 298 564 l 1
 269 543 l 1
 280 577 l 1
 250 598 l 1
 287 598 l 1
 298 633 l 1
191 633 m 1
 202 598 l 1
 239 598 l 1
 209 577 l 1
 220 543 l 1
 191 564 l 1
 162 543 l 1
 173 577 l 1
 143 598 l 1
 180 598 l 1
 191 633 l 1
EndSplineSet
EndChar

StartChar: adieresis
Encoding: 228 228 67
Width: 600
VWidth: 0
UnlinkRmOvrlpSave: 1
Flags: W
HStem: 210 21G<168.471 189.619 192.381 213.529 275.471 296.619 299.381 320.529 382.471 403.619 406.381 427.529> 210 21G<168.471 189.619 192.381 213.529 275.471 296.619 299.381 320.529 382.471 403.619 406.381 427.529> 613 20G<184.714 197.286 291.714 304.286 398.714 411.286> 780 20G<184.714 197.286 398.714 411.286>
LayerCount: 2
Back
Fore
SplineSet
405 300 m 1x70
 416 265 l 1
 453 265 l 1
 423 244 l 1
 434 210 l 1
 405 231 l 1
 376 210 l 1
 387 244 l 1
 357 265 l 1
 394 265 l 1
 405 300 l 1x70
298 300 m 1
 309 265 l 1
 346 265 l 1
 316 244 l 1
 327 210 l 1
 298 231 l 1
 269 210 l 1
 280 244 l 1
 250 265 l 1
 287 265 l 1
 298 300 l 1
191 300 m 1
 202 265 l 1
 239 265 l 1
 209 244 l 1
 220 210 l 1
 191 231 l 1
 162 210 l 1
 173 244 l 1
 143 265 l 1
 180 265 l 1
 191 300 l 1
458 383 m 1
 469 348 l 1
 506 348 l 1
 476 327 l 1
 487 293 l 1
 458 314 l 1
 429 293 l 1
 440 327 l 1
 410 348 l 1
 447 348 l 1
 458 383 l 1
138 383 m 1
 149 348 l 1
 186 348 l 1
 156 327 l 1
 167 293 l 1
 138 314 l 1
 109 293 l 1
 120 327 l 1
 90 348 l 1
 127 348 l 1
 138 383 l 1
405 467 m 1
 416 432 l 1
 453 432 l 1
 423 411 l 1
 434 377 l 1
 405 398 l 1
 376 377 l 1
 387 411 l 1
 357 432 l 1
 394 432 l 1
 405 467 l 1
298 467 m 1
 309 432 l 1
 346 432 l 1
 316 411 l 1
 327 377 l 1
 298 398 l 1
 269 377 l 1
 280 411 l 1
 250 432 l 1
 287 432 l 1
 298 467 l 1
191 467 m 1
 202 432 l 1
 239 432 l 1
 209 411 l 1
 220 377 l 1
 191 398 l 1
 162 377 l 1
 173 411 l 1
 143 432 l 1
 180 432 l 1
 191 467 l 1
458 550 m 1
 469 515 l 1
 506 515 l 1
 476 494 l 1
 487 460 l 1
 458 481 l 1
 429 460 l 1
 440 494 l 1
 410 515 l 1
 447 515 l 1
 458 550 l 1
405 633 m 1
 416 598 l 1
 453 598 l 1
 423 577 l 1
 434 543 l 1
 405 564 l 1
 376 543 l 1
 387 577 l 1
 357 598 l 1
 394 598 l 1
 405 633 l 1
298 633 m 1
 309 598 l 1
 346 598 l 1
 316 577 l 1
 327 543 l 1
 298 564 l 1
 269 543 l 1
 280 577 l 1
 250 598 l 1
 287 598 l 1
 298 633 l 1
191 633 m 1
 202 598 l 1
 239 598 l 1
 209 577 l 1
 220 543 l 1
 191 564 l 1
 162 543 l 1
 173 577 l 1
 143 598 l 1
 180 598 l 1
 191 633 l 1
405 800 m 1
 416 765 l 1
 453 765 l 1
 423 744 l 1
 434 710 l 1
 405 731 l 1
 376 710 l 1
 387 744 l 1
 357 765 l 1
 394 765 l 1
 405 800 l 1
191 800 m 1
 202 765 l 1
 239 765 l 1
 209 744 l 1
 220 710 l 1
 191 731 l 1
 162 710 l 1
 173 744 l 1
 143 765 l 1
 180 765 l 1
 191 800 l 1
EndSplineSet
EndChar

StartChar: g
Encoding: 103 103 68
Width: 600
VWidth: 0
UnlinkRmOvrlpSave: 1
Flags: W
HStem: 210 21G<115.471 136.619 139.381 160.529 222.471 243.619 246.381 267.529 328.471 349.619 352.381 373.529 435.471 456.619 459.381 480.529> 210 21G<115.471 136.619 139.381 160.529 222.471 243.619 246.381 267.529 328.471 349.619 352.381 373.529 435.471 456.619 459.381 480.529> 613 20G<184.714 197.286 291.714 304.286 398.714 411.286>
LayerCount: 2
Back
Fore
SplineSet
458 300 m 1x60
 469 265 l 1
 506 265 l 1
 476 244 l 1
 487 210 l 1
 458 231 l 1
 429 210 l 1
 440 244 l 1
 410 265 l 1
 447 265 l 1
 458 300 l 1x60
351 300 m 1
 362 265 l 1
 399 265 l 1
 369 244 l 1
 380 210 l 1
 351 231 l 1
 322 210 l 1
 333 244 l 1
 303 265 l 1
 340 265 l 1
 351 300 l 1
245 300 m 1
 256 265 l 1
 293 265 l 1
 263 244 l 1
 274 210 l 1
 245 231 l 1
 216 210 l 1
 227 244 l 1
 197 265 l 1
 234 265 l 1
 245 300 l 1
138 300 m 1
 149 265 l 1
 186 265 l 1
 156 244 l 1
 167 210 l 1
 138 231 l 1
 109 210 l 1
 120 244 l 1
 90 265 l 1
 127 265 l 1
 138 300 l 1
458 383 m 1
 469 348 l 1
 506 348 l 1
 476 327 l 1
 487 293 l 1
 458 314 l 1
 429 293 l 1
 440 327 l 1
 410 348 l 1
 447 348 l 1
 458 383 l 1
405 467 m 1
 416 432 l 1
 453 432 l 1
 423 411 l 1
 434 377 l 1
 405 398 l 1
 376 377 l 1
 387 411 l 1
 357 432 l 1
 394 432 l 1
 405 467 l 1
298 467 m 1
 309 432 l 1
 346 432 l 1
 316 411 l 1
 327 377 l 1
 298 398 l 1
 269 377 l 1
 280 411 l 1
 250 432 l 1
 287 432 l 1
 298 467 l 1
191 467 m 1
 202 432 l 1
 239 432 l 1
 209 411 l 1
 220 377 l 1
 191 398 l 1
 162 377 l 1
 173 411 l 1
 143 432 l 1
 180 432 l 1
 191 467 l 1
458 550 m 1
 469 515 l 1
 506 515 l 1
 476 494 l 1
 487 460 l 1
 458 481 l 1
 429 460 l 1
 440 494 l 1
 410 515 l 1
 447 515 l 1
 458 550 l 1
138 550 m 1
 149 515 l 1
 186 515 l 1
 156 494 l 1
 167 460 l 1
 138 481 l 1
 109 460 l 1
 120 494 l 1
 90 515 l 1
 127 515 l 1
 138 550 l 1
405 633 m 1
 416 598 l 1
 453 598 l 1
 423 577 l 1
 434 543 l 1
 405 564 l 1
 376 543 l 1
 387 577 l 1
 357 598 l 1
 394 598 l 1
 405 633 l 1
298 633 m 1
 309 598 l 1
 346 598 l 1
 316 577 l 1
 327 543 l 1
 298 564 l 1
 269 543 l 1
 280 577 l 1
 250 598 l 1
 287 598 l 1
 298 633 l 1
191 633 m 1
 202 598 l 1
 239 598 l 1
 209 577 l 1
 220 543 l 1
 191 564 l 1
 162 543 l 1
 173 577 l 1
 143 598 l 1
 180 598 l 1
 191 633 l 1
458 717 m 1
 469 682 l 1
 506 682 l 1
 476 661 l 1
 487 627 l 1
 458 648 l 1
 429 627 l 1
 440 661 l 1
 410 682 l 1
 447 682 l 1
 458 717 l 1
EndSplineSet
EndChar

StartChar: egrave
Encoding: 232 232 69
Width: 600
VWidth: 0
UnlinkRmOvrlpSave: 1
Flags: W
HStem: 210 21G<168.471 189.619 192.381 213.529 275.471 296.619 299.381 320.529 382.471 403.619 406.381 427.529> 210 21G<168.471 189.619 192.381 213.529 275.471 296.619 299.381 320.529 382.471 403.619 406.381 427.529> 613 20G<184.714 197.286 291.714 304.286 398.714 411.286> 780 20G<291.714 304.286>
LayerCount: 2
Back
Fore
SplineSet
405 300 m 1x70
 416 265 l 1
 453 265 l 1
 423 244 l 1
 434 210 l 1
 405 231 l 1
 376 210 l 1
 387 244 l 1
 357 265 l 1
 394 265 l 1
 405 300 l 1x70
298 300 m 1
 309 265 l 1
 346 265 l 1
 316 244 l 1
 327 210 l 1
 298 231 l 1
 269 210 l 1
 280 244 l 1
 250 265 l 1
 287 265 l 1
 298 300 l 1
191 300 m 1
 202 265 l 1
 239 265 l 1
 209 244 l 1
 220 210 l 1
 191 231 l 1
 162 210 l 1
 173 244 l 1
 143 265 l 1
 180 265 l 1
 191 300 l 1
138 383 m 1
 149 348 l 1
 186 348 l 1
 156 327 l 1
 167 293 l 1
 138 314 l 1
 109 293 l 1
 120 327 l 1
 90 348 l 1
 127 348 l 1
 138 383 l 1
458 467 m 1
 469 432 l 1
 506 432 l 1
 476 411 l 1
 487 377 l 1
 458 398 l 1
 429 377 l 1
 440 411 l 1
 410 432 l 1
 447 432 l 1
 458 467 l 1
351 467 m 1
 362 432 l 1
 399 432 l 1
 369 411 l 1
 380 377 l 1
 351 398 l 1
 322 377 l 1
 333 411 l 1
 303 432 l 1
 340 432 l 1
 351 467 l 1
245 467 m 1
 256 432 l 1
 293 432 l 1
 263 411 l 1
 274 377 l 1
 245 398 l 1
 216 377 l 1
 227 411 l 1
 197 432 l 1
 234 432 l 1
 245 467 l 1
138 467 m 1
 149 432 l 1
 186 432 l 1
 156 411 l 1
 167 377 l 1
 138 398 l 1
 109 377 l 1
 120 411 l 1
 90 432 l 1
 127 432 l 1
 138 467 l 1
458 550 m 1
 469 515 l 1
 506 515 l 1
 476 494 l 1
 487 460 l 1
 458 481 l 1
 429 460 l 1
 440 494 l 1
 410 515 l 1
 447 515 l 1
 458 550 l 1
138 550 m 1
 149 515 l 1
 186 515 l 1
 156 494 l 1
 167 460 l 1
 138 481 l 1
 109 460 l 1
 120 494 l 1
 90 515 l 1
 127 515 l 1
 138 550 l 1
405 633 m 1
 416 598 l 1
 453 598 l 1
 423 577 l 1
 434 543 l 1
 405 564 l 1
 376 543 l 1
 387 577 l 1
 357 598 l 1
 394 598 l 1
 405 633 l 1
298 633 m 1
 309 598 l 1
 346 598 l 1
 316 577 l 1
 327 543 l 1
 298 564 l 1
 269 543 l 1
 280 577 l 1
 250 598 l 1
 287 598 l 1
 298 633 l 1
191 633 m 1
 202 598 l 1
 239 598 l 1
 209 577 l 1
 220 543 l 1
 191 564 l 1
 162 543 l 1
 173 577 l 1
 143 598 l 1
 180 598 l 1
 191 633 l 1
351 717 m 1
 362 682 l 1
 399 682 l 1
 369 661 l 1
 380 627 l 1
 351 648 l 1
 322 627 l 1
 333 661 l 1
 303 682 l 1
 340 682 l 1
 351 717 l 1
298 800 m 1
 309 765 l 1
 346 765 l 1
 316 744 l 1
 327 710 l 1
 298 731 l 1
 269 710 l 1
 280 744 l 1
 250 765 l 1
 287 765 l 1
 298 800 l 1
EndSplineSet
EndChar

StartChar: k
Encoding: 107 107 70
Width: 600
VWidth: 0
UnlinkRmOvrlpSave: 1
Flags: W
HStem: 210 21G<115.471 136.619 139.381 160.529 435.471 456.619 459.381 480.529> 210 21G<115.471 136.619 139.381 160.529 435.471 456.619 459.381 480.529> 613 20G<131.714 144.286 344.714 357.286> 780 20G<131.714 144.286>
LayerCount: 2
Back
Fore
SplineSet
458 300 m 1x70
 469 265 l 1
 506 265 l 1
 476 244 l 1
 487 210 l 1
 458 231 l 1
 429 210 l 1
 440 244 l 1
 410 265 l 1
 447 265 l 1
 458 300 l 1x70
138 300 m 1
 149 265 l 1
 186 265 l 1
 156 244 l 1
 167 210 l 1
 138 231 l 1
 109 210 l 1
 120 244 l 1
 90 265 l 1
 127 265 l 1
 138 300 l 1
351 383 m 1
 362 348 l 1
 399 348 l 1
 369 327 l 1
 380 293 l 1
 351 314 l 1
 322 293 l 1
 333 327 l 1
 303 348 l 1
 340 348 l 1
 351 383 l 1
138 383 m 1
 149 348 l 1
 186 348 l 1
 156 327 l 1
 167 293 l 1
 138 314 l 1
 109 293 l 1
 120 327 l 1
 90 348 l 1
 127 348 l 1
 138 383 l 1
245 467 m 1
 256 432 l 1
 293 432 l 1
 263 411 l 1
 274 377 l 1
 245 398 l 1
 216 377 l 1
 227 411 l 1
 197 432 l 1
 234 432 l 1
 245 467 l 1
138 467 m 1
 149 432 l 1
 186 432 l 1
 156 411 l 1
 167 377 l 1
 138 398 l 1
 109 377 l 1
 120 411 l 1
 90 432 l 1
 127 432 l 1
 138 467 l 1
298 550 m 1
 309 515 l 1
 346 515 l 1
 316 494 l 1
 327 460 l 1
 298 481 l 1
 269 460 l 1
 280 494 l 1
 250 515 l 1
 287 515 l 1
 298 550 l 1
138 550 m 1
 149 515 l 1
 186 515 l 1
 156 494 l 1
 167 460 l 1
 138 481 l 1
 109 460 l 1
 120 494 l 1
 90 515 l 1
 127 515 l 1
 138 550 l 1
351 633 m 1
 362 598 l 1
 399 598 l 1
 369 577 l 1
 380 543 l 1
 351 564 l 1
 322 543 l 1
 333 577 l 1
 303 598 l 1
 340 598 l 1
 351 633 l 1
138 633 m 1
 149 598 l 1
 186 598 l 1
 156 577 l 1
 167 543 l 1
 138 564 l 1
 109 543 l 1
 120 577 l 1
 90 598 l 1
 127 598 l 1
 138 633 l 1
138 717 m 1
 149 682 l 1
 186 682 l 1
 156 661 l 1
 167 627 l 1
 138 648 l 1
 109 627 l 1
 120 661 l 1
 90 682 l 1
 127 682 l 1
 138 717 l 1
138 800 m 1
 149 765 l 1
 186 765 l 1
 156 744 l 1
 167 710 l 1
 138 731 l 1
 109 710 l 1
 120 744 l 1
 90 765 l 1
 127 765 l 1
 138 800 l 1
EndSplineSet
EndChar

StartChar: o
Encoding: 111 111 71
Width: 600
VWidth: 0
UnlinkRmOvrlpSave: 1
Flags: W
HStem: 210 21G<168.471 189.619 192.381 213.529 275.471 296.619 299.381 320.529 382.471 403.619 406.381 427.529> 210 21G<168.471 189.619 192.381 213.529 275.471 296.619 299.381 320.529 382.471 403.619 406.381 427.529> 613 20G<184.714 197.286 291.714 304.286 398.714 411.286>
LayerCount: 2
Back
Fore
SplineSet
405 300 m 1x60
 416 265 l 1
 453 265 l 1
 423 244 l 1
 434 210 l 1
 405 231 l 1
 376 210 l 1
 387 244 l 1
 357 265 l 1
 394 265 l 1
 405 300 l 1x60
298 300 m 1
 309 265 l 1
 346 265 l 1
 316 244 l 1
 327 210 l 1
 298 231 l 1
 269 210 l 1
 280 244 l 1
 250 265 l 1
 287 265 l 1
 298 300 l 1
191 300 m 1
 202 265 l 1
 239 265 l 1
 209 244 l 1
 220 210 l 1
 191 231 l 1
 162 210 l 1
 173 244 l 1
 143 265 l 1
 180 265 l 1
 191 300 l 1
458 383 m 1
 469 348 l 1
 506 348 l 1
 476 327 l 1
 487 293 l 1
 458 314 l 1
 429 293 l 1
 440 327 l 1
 410 348 l 1
 447 348 l 1
 458 383 l 1
138 383 m 1
 149 348 l 1
 186 348 l 1
 156 327 l 1
 167 293 l 1
 138 314 l 1
 109 293 l 1
 120 327 l 1
 90 348 l 1
 127 348 l 1
 138 383 l 1
458 467 m 1
 469 432 l 1
 506 432 l 1
 476 411 l 1
 487 377 l 1
 458 398 l 1
 429 377 l 1
 440 411 l 1
 410 432 l 1
 447 432 l 1
 458 467 l 1
138 467 m 1
 149 432 l 1
 186 432 l 1
 156 411 l 1
 167 377 l 1
 138 398 l 1
 109 377 l 1
 120 411 l 1
 90 432 l 1
 127 432 l 1
 138 467 l 1
458 550 m 1
 469 515 l 1
 506 515 l 1
 476 494 l 1
 487 460 l 1
 458 481 l 1
 429 460 l 1
 440 494 l 1
 410 515 l 1
 447 515 l 1
 458 550 l 1
138 550 m 1
 149 515 l 1
 186 515 l 1
 156 494 l 1
 167 460 l 1
 138 481 l 1
 109 460 l 1
 120 494 l 1
 90 515 l 1
 127 515 l 1
 138 550 l 1
405 633 m 1
 416 598 l 1
 453 598 l 1
 423 577 l 1
 434 543 l 1
 405 564 l 1
 376 543 l 1
 387 577 l 1
 357 598 l 1
 394 598 l 1
 405 633 l 1
298 633 m 1
 309 598 l 1
 346 598 l 1
 316 577 l 1
 327 543 l 1
 298 564 l 1
 269 543 l 1
 280 577 l 1
 250 598 l 1
 287 598 l 1
 298 633 l 1
191 633 m 1
 202 598 l 1
 239 598 l 1
 209 577 l 1
 220 543 l 1
 191 564 l 1
 162 543 l 1
 173 577 l 1
 143 598 l 1
 180 598 l 1
 191 633 l 1
EndSplineSet
EndChar

StartChar: s
Encoding: 115 115 72
Width: 600
VWidth: 0
UnlinkRmOvrlpSave: 1
Flags: W
HStem: 210 21G<168.471 189.619 192.381 213.529 275.471 296.619 299.381 320.529 382.471 403.619 406.381 427.529> 210 21G<168.471 189.619 192.381 213.529 275.471 296.619 299.381 320.529 382.471 403.619 406.381 427.529> 613 20G<184.714 197.286 291.714 304.286 398.714 411.286>
LayerCount: 2
Back
Fore
SplineSet
405 300 m 1x60
 416 265 l 1
 453 265 l 1
 423 244 l 1
 434 210 l 1
 405 231 l 1
 376 210 l 1
 387 244 l 1
 357 265 l 1
 394 265 l 1
 405 300 l 1x60
298 300 m 1
 309 265 l 1
 346 265 l 1
 316 244 l 1
 327 210 l 1
 298 231 l 1
 269 210 l 1
 280 244 l 1
 250 265 l 1
 287 265 l 1
 298 300 l 1
191 300 m 1
 202 265 l 1
 239 265 l 1
 209 244 l 1
 220 210 l 1
 191 231 l 1
 162 210 l 1
 173 244 l 1
 143 265 l 1
 180 265 l 1
 191 300 l 1
458 383 m 1
 469 348 l 1
 506 348 l 1
 476 327 l 1
 487 293 l 1
 458 314 l 1
 429 293 l 1
 440 327 l 1
 410 348 l 1
 447 348 l 1
 458 383 l 1
405 467 m 1
 416 432 l 1
 453 432 l 1
 423 411 l 1
 434 377 l 1
 405 398 l 1
 376 377 l 1
 387 411 l 1
 357 432 l 1
 394 432 l 1
 405 467 l 1
298 467 m 1
 309 432 l 1
 346 432 l 1
 316 411 l 1
 327 377 l 1
 298 398 l 1
 269 377 l 1
 280 411 l 1
 250 432 l 1
 287 432 l 1
 298 467 l 1
191 467 m 1
 202 432 l 1
 239 432 l 1
 209 411 l 1
 220 377 l 1
 191 398 l 1
 162 377 l 1
 173 411 l 1
 143 432 l 1
 180 432 l 1
 191 467 l 1
138 550 m 1
 149 515 l 1
 186 515 l 1
 156 494 l 1
 167 460 l 1
 138 481 l 1
 109 460 l 1
 120 494 l 1
 90 515 l 1
 127 515 l 1
 138 550 l 1
405 633 m 1
 416 598 l 1
 453 598 l 1
 423 577 l 1
 434 543 l 1
 405 564 l 1
 376 543 l 1
 387 577 l 1
 357 598 l 1
 394 598 l 1
 405 633 l 1
298 633 m 1
 309 598 l 1
 346 598 l 1
 316 577 l 1
 327 543 l 1
 298 564 l 1
 269 543 l 1
 280 577 l 1
 250 598 l 1
 287 598 l 1
 298 633 l 1
191 633 m 1
 202 598 l 1
 239 598 l 1
 209 577 l 1
 220 543 l 1
 191 564 l 1
 162 543 l 1
 173 577 l 1
 143 598 l 1
 180 598 l 1
 191 633 l 1
EndSplineSet
EndChar

StartChar: glyph73
Encoding: 373 373 73
Width: 600
VWidth: 0
UnlinkRmOvrlpSave: 1
Flags: W
HStem: 210 21G<168.471 189.619 192.381 213.529 382.471 403.619 406.381 427.529> 210 21G<168.471 189.619 192.381 213.529 382.471 403.619 406.381 427.529> 780 20G<238.714 251.286 344.714 357.286>
LayerCount: 2
Back
Fore
SplineSet
405 300 m 1x60
 416 265 l 1
 453 265 l 1
 423 244 l 1
 434 210 l 1
 405 231 l 1
 376 210 l 1
 387 244 l 1
 357 265 l 1
 394 265 l 1
 405 300 l 1x60
191 300 m 1
 202 265 l 1
 239 265 l 1
 209 244 l 1
 220 210 l 1
 191 231 l 1
 162 210 l 1
 173 244 l 1
 143 265 l 1
 180 265 l 1
 191 300 l 1
458 383 m 1
 469 348 l 1
 506 348 l 1
 476 327 l 1
 487 293 l 1
 458 314 l 1
 429 293 l 1
 440 327 l 1
 410 348 l 1
 447 348 l 1
 458 383 l 1
351 383 m 1
 362 348 l 1
 399 348 l 1
 369 327 l 1
 380 293 l 1
 351 314 l 1
 322 293 l 1
 333 327 l 1
 303 348 l 1
 340 348 l 1
 351 383 l 1
245 383 m 1
 256 348 l 1
 293 348 l 1
 263 327 l 1
 274 293 l 1
 245 314 l 1
 216 293 l 1
 227 327 l 1
 197 348 l 1
 234 348 l 1
 245 383 l 1
138 383 m 1
 149 348 l 1
 186 348 l 1
 156 327 l 1
 167 293 l 1
 138 314 l 1
 109 293 l 1
 120 327 l 1
 90 348 l 1
 127 348 l 1
 138 383 l 1
458 467 m 1
 469 432 l 1
 506 432 l 1
 476 411 l 1
 487 377 l 1
 458 398 l 1
 429 377 l 1
 440 411 l 1
 410 432 l 1
 447 432 l 1
 458 467 l 1
298 467 m 1
 309 432 l 1
 346 432 l 1
 316 411 l 1
 327 377 l 1
 298 398 l 1
 269 377 l 1
 280 411 l 1
 250 432 l 1
 287 432 l 1
 298 467 l 1
138 467 m 1
 149 432 l 1
 186 432 l 1
 156 411 l 1
 167 377 l 1
 138 398 l 1
 109 377 l 1
 120 411 l 1
 90 432 l 1
 127 432 l 1
 138 467 l 1
458 550 m 1
 469 515 l 1
 506 515 l 1
 476 494 l 1
 487 460 l 1
 458 481 l 1
 429 460 l 1
 440 494 l 1
 410 515 l 1
 447 515 l 1
 458 550 l 1
138 550 m 1
 149 515 l 1
 186 515 l 1
 156 494 l 1
 167 460 l 1
 138 481 l 1
 109 460 l 1
 120 494 l 1
 90 515 l 1
 127 515 l 1
 138 550 l 1
405 717 m 1
 416 682 l 1
 453 682 l 1
 423 661 l 1
 434 627 l 1
 405 648 l 1
 376 627 l 1
 387 661 l 1
 357 682 l 1
 394 682 l 1
 405 717 l 1
191 717 m 1
 202 682 l 1
 239 682 l 1
 209 661 l 1
 220 627 l 1
 191 648 l 1
 162 627 l 1
 173 661 l 1
 143 682 l 1
 180 682 l 1
 191 717 l 1
351 800 m 1
 362 765 l 1
 399 765 l 1
 369 744 l 1
 380 710 l 1
 351 731 l 1
 322 710 l 1
 333 744 l 1
 303 765 l 1
 340 765 l 1
 351 800 l 1
245 800 m 1
 256 765 l 1
 293 765 l 1
 263 744 l 1
 274 710 l 1
 245 731 l 1
 216 710 l 1
 227 744 l 1
 197 765 l 1
 234 765 l 1
 245 800 l 1
EndSplineSet
EndChar

StartChar: w
Encoding: 119 119 74
Width: 600
VWidth: 0
UnlinkRmOvrlpSave: 1
Flags: W
HStem: 210 21G<168.471 189.619 192.381 213.529 382.471 403.619 406.381 427.529> 210 21G<168.471 189.619 192.381 213.529 382.471 403.619 406.381 427.529> 613 20G<131.714 144.286 451.714 464.286>
LayerCount: 2
Back
Fore
SplineSet
405 300 m 1x60
 416 265 l 1
 453 265 l 1
 423 244 l 1
 434 210 l 1
 405 231 l 1
 376 210 l 1
 387 244 l 1
 357 265 l 1
 394 265 l 1
 405 300 l 1x60
191 300 m 1
 202 265 l 1
 239 265 l 1
 209 244 l 1
 220 210 l 1
 191 231 l 1
 162 210 l 1
 173 244 l 1
 143 265 l 1
 180 265 l 1
 191 300 l 1
458 383 m 1
 469 348 l 1
 506 348 l 1
 476 327 l 1
 487 293 l 1
 458 314 l 1
 429 293 l 1
 440 327 l 1
 410 348 l 1
 447 348 l 1
 458 383 l 1
351 383 m 1
 362 348 l 1
 399 348 l 1
 369 327 l 1
 380 293 l 1
 351 314 l 1
 322 293 l 1
 333 327 l 1
 303 348 l 1
 340 348 l 1
 351 383 l 1
245 383 m 1
 256 348 l 1
 293 348 l 1
 263 327 l 1
 274 293 l 1
 245 314 l 1
 216 293 l 1
 227 327 l 1
 197 348 l 1
 234 348 l 1
 245 383 l 1
138 383 m 1
 149 348 l 1
 186 348 l 1
 156 327 l 1
 167 293 l 1
 138 314 l 1
 109 293 l 1
 120 327 l 1
 90 348 l 1
 127 348 l 1
 138 383 l 1
458 467 m 1
 469 432 l 1
 506 432 l 1
 476 411 l 1
 487 377 l 1
 458 398 l 1
 429 377 l 1
 440 411 l 1
 410 432 l 1
 447 432 l 1
 458 467 l 1
298 467 m 1
 309 432 l 1
 346 432 l 1
 316 411 l 1
 327 377 l 1
 298 398 l 1
 269 377 l 1
 280 411 l 1
 250 432 l 1
 287 432 l 1
 298 467 l 1
138 467 m 1
 149 432 l 1
 186 432 l 1
 156 411 l 1
 167 377 l 1
 138 398 l 1
 109 377 l 1
 120 411 l 1
 90 432 l 1
 127 432 l 1
 138 467 l 1
458 550 m 1
 469 515 l 1
 506 515 l 1
 476 494 l 1
 487 460 l 1
 458 481 l 1
 429 460 l 1
 440 494 l 1
 410 515 l 1
 447 515 l 1
 458 550 l 1
138 550 m 1
 149 515 l 1
 186 515 l 1
 156 494 l 1
 167 460 l 1
 138 481 l 1
 109 460 l 1
 120 494 l 1
 90 515 l 1
 127 515 l 1
 138 550 l 1
458 633 m 1
 469 598 l 1
 506 598 l 1
 476 577 l 1
 487 543 l 1
 458 564 l 1
 429 543 l 1
 440 577 l 1
 410 598 l 1
 447 598 l 1
 458 633 l 1
138 633 m 1
 149 598 l 1
 186 598 l 1
 156 577 l 1
 167 543 l 1
 138 564 l 1
 109 543 l 1
 120 577 l 1
 90 598 l 1
 127 598 l 1
 138 633 l 1
EndSplineSet
EndChar

StartChar: oslash
Encoding: 248 248 75
Width: 600
VWidth: 0
UnlinkRmOvrlpSave: 1
Flags: W
HStem: 210 21G<168.471 189.619 192.381 213.529 275.471 296.619 299.381 320.529 382.471 403.619 406.381 427.529> 210 21G<168.471 189.619 192.381 213.529 275.471 296.619 299.381 320.529 382.471 403.619 406.381 427.529> 613 20G<184.714 197.286 291.714 304.286 398.714 411.286>
LayerCount: 2
Back
Fore
SplineSet
405 300 m 1x60
 416 265 l 1
 453 265 l 1
 423 244 l 1
 434 210 l 1
 405 231 l 1
 376 210 l 1
 387 244 l 1
 357 265 l 1
 394 265 l 1
 405 300 l 1x60
298 300 m 1
 309 265 l 1
 346 265 l 1
 316 244 l 1
 327 210 l 1
 298 231 l 1
 269 210 l 1
 280 244 l 1
 250 265 l 1
 287 265 l 1
 298 300 l 1
191 300 m 1
 202 265 l 1
 239 265 l 1
 209 244 l 1
 220 210 l 1
 191 231 l 1
 162 210 l 1
 173 244 l 1
 143 265 l 1
 180 265 l 1
 191 300 l 1
458 383 m 1
 469 348 l 1
 506 348 l 1
 476 327 l 1
 487 293 l 1
 458 314 l 1
 429 293 l 1
 440 327 l 1
 410 348 l 1
 447 348 l 1
 458 383 l 1
245 383 m 1
 256 348 l 1
 293 348 l 1
 263 327 l 1
 274 293 l 1
 245 314 l 1
 216 293 l 1
 227 327 l 1
 197 348 l 1
 234 348 l 1
 245 383 l 1
138 383 m 1
 149 348 l 1
 186 348 l 1
 156 327 l 1
 167 293 l 1
 138 314 l 1
 109 293 l 1
 120 327 l 1
 90 348 l 1
 127 348 l 1
 138 383 l 1
458 467 m 1
 469 432 l 1
 506 432 l 1
 476 411 l 1
 487 377 l 1
 458 398 l 1
 429 377 l 1
 440 411 l 1
 410 432 l 1
 447 432 l 1
 458 467 l 1
298 467 m 1
 309 432 l 1
 346 432 l 1
 316 411 l 1
 327 377 l 1
 298 398 l 1
 269 377 l 1
 280 411 l 1
 250 432 l 1
 287 432 l 1
 298 467 l 1
138 467 m 1
 149 432 l 1
 186 432 l 1
 156 411 l 1
 167 377 l 1
 138 398 l 1
 109 377 l 1
 120 411 l 1
 90 432 l 1
 127 432 l 1
 138 467 l 1
458 550 m 1
 469 515 l 1
 506 515 l 1
 476 494 l 1
 487 460 l 1
 458 481 l 1
 429 460 l 1
 440 494 l 1
 410 515 l 1
 447 515 l 1
 458 550 l 1
351 550 m 1
 362 515 l 1
 399 515 l 1
 369 494 l 1
 380 460 l 1
 351 481 l 1
 322 460 l 1
 333 494 l 1
 303 515 l 1
 340 515 l 1
 351 550 l 1
138 550 m 1
 149 515 l 1
 186 515 l 1
 156 494 l 1
 167 460 l 1
 138 481 l 1
 109 460 l 1
 120 494 l 1
 90 515 l 1
 127 515 l 1
 138 550 l 1
405 633 m 1
 416 598 l 1
 453 598 l 1
 423 577 l 1
 434 543 l 1
 405 564 l 1
 376 543 l 1
 387 577 l 1
 357 598 l 1
 394 598 l 1
 405 633 l 1
298 633 m 1
 309 598 l 1
 346 598 l 1
 316 577 l 1
 327 543 l 1
 298 564 l 1
 269 543 l 1
 280 577 l 1
 250 598 l 1
 287 598 l 1
 298 633 l 1
191 633 m 1
 202 598 l 1
 239 598 l 1
 209 577 l 1
 220 543 l 1
 191 564 l 1
 162 543 l 1
 173 577 l 1
 143 598 l 1
 180 598 l 1
 191 633 l 1
EndSplineSet
EndChar

StartChar: braceleft
Encoding: 123 123 76
Width: 600
VWidth: 0
UnlinkRmOvrlpSave: 1
Flags: W
HStem: 210 21G<328.471 349.619 352.381 373.529 435.471 456.619 459.381 480.529> 210 21G<328.471 349.619 352.381 373.529 435.471 456.619 459.381 480.529> 613 20G<291.714 304.286> 780 20G<344.714 357.286 451.714 464.286>
LayerCount: 2
Back
Fore
SplineSet
458 300 m 1x70
 469 265 l 1
 506 265 l 1
 476 244 l 1
 487 210 l 1
 458 231 l 1
 429 210 l 1
 440 244 l 1
 410 265 l 1
 447 265 l 1
 458 300 l 1x70
351 300 m 1
 362 265 l 1
 399 265 l 1
 369 244 l 1
 380 210 l 1
 351 231 l 1
 322 210 l 1
 333 244 l 1
 303 265 l 1
 340 265 l 1
 351 300 l 1
298 383 m 1
 309 348 l 1
 346 348 l 1
 316 327 l 1
 327 293 l 1
 298 314 l 1
 269 293 l 1
 280 327 l 1
 250 348 l 1
 287 348 l 1
 298 383 l 1
298 467 m 1
 309 432 l 1
 346 432 l 1
 316 411 l 1
 327 377 l 1
 298 398 l 1
 269 377 l 1
 280 411 l 1
 250 432 l 1
 287 432 l 1
 298 467 l 1
245 550 m 1
 256 515 l 1
 293 515 l 1
 263 494 l 1
 274 460 l 1
 245 481 l 1
 216 460 l 1
 227 494 l 1
 197 515 l 1
 234 515 l 1
 245 550 l 1
138 550 m 1
 149 515 l 1
 186 515 l 1
 156 494 l 1
 167 460 l 1
 138 481 l 1
 109 460 l 1
 120 494 l 1
 90 515 l 1
 127 515 l 1
 138 550 l 1
298 633 m 1
 309 598 l 1
 346 598 l 1
 316 577 l 1
 327 543 l 1
 298 564 l 1
 269 543 l 1
 280 577 l 1
 250 598 l 1
 287 598 l 1
 298 633 l 1
298 717 m 1
 309 682 l 1
 346 682 l 1
 316 661 l 1
 327 627 l 1
 298 648 l 1
 269 627 l 1
 280 661 l 1
 250 682 l 1
 287 682 l 1
 298 717 l 1
458 800 m 1
 469 765 l 1
 506 765 l 1
 476 744 l 1
 487 710 l 1
 458 731 l 1
 429 710 l 1
 440 744 l 1
 410 765 l 1
 447 765 l 1
 458 800 l 1
351 800 m 1
 362 765 l 1
 399 765 l 1
 369 744 l 1
 380 710 l 1
 351 731 l 1
 322 710 l 1
 333 744 l 1
 303 765 l 1
 340 765 l 1
 351 800 l 1
EndSplineSet
EndChar

StartChar: udieresis
Encoding: 252 252 77
Width: 600
VWidth: 0
UnlinkRmOvrlpSave: 1
Flags: W
HStem: 210 21G<222.471 243.619 246.381 267.529 328.471 349.619 352.381 373.529 435.471 456.619 459.381 480.529> 210 21G<222.471 243.619 246.381 267.529 328.471 349.619 352.381 373.529 435.471 456.619 459.381 480.529> 613 20G<131.714 144.286 451.714 464.286> 780 20G<184.714 197.286 398.714 411.286>
LayerCount: 2
Back
Fore
SplineSet
458 300 m 1x70
 469 265 l 1
 506 265 l 1
 476 244 l 1
 487 210 l 1
 458 231 l 1
 429 210 l 1
 440 244 l 1
 410 265 l 1
 447 265 l 1
 458 300 l 1x70
351 300 m 1
 362 265 l 1
 399 265 l 1
 369 244 l 1
 380 210 l 1
 351 231 l 1
 322 210 l 1
 333 244 l 1
 303 265 l 1
 340 265 l 1
 351 300 l 1
245 300 m 1
 256 265 l 1
 293 265 l 1
 263 244 l 1
 274 210 l 1
 245 231 l 1
 216 210 l 1
 227 244 l 1
 197 265 l 1
 234 265 l 1
 245 300 l 1
458 383 m 1
 469 348 l 1
 506 348 l 1
 476 327 l 1
 487 293 l 1
 458 314 l 1
 429 293 l 1
 440 327 l 1
 410 348 l 1
 447 348 l 1
 458 383 l 1
138 383 m 1
 149 348 l 1
 186 348 l 1
 156 327 l 1
 167 293 l 1
 138 314 l 1
 109 293 l 1
 120 327 l 1
 90 348 l 1
 127 348 l 1
 138 383 l 1
458 467 m 1
 469 432 l 1
 506 432 l 1
 476 411 l 1
 487 377 l 1
 458 398 l 1
 429 377 l 1
 440 411 l 1
 410 432 l 1
 447 432 l 1
 458 467 l 1
138 467 m 1
 149 432 l 1
 186 432 l 1
 156 411 l 1
 167 377 l 1
 138 398 l 1
 109 377 l 1
 120 411 l 1
 90 432 l 1
 127 432 l 1
 138 467 l 1
458 550 m 1
 469 515 l 1
 506 515 l 1
 476 494 l 1
 487 460 l 1
 458 481 l 1
 429 460 l 1
 440 494 l 1
 410 515 l 1
 447 515 l 1
 458 550 l 1
138 550 m 1
 149 515 l 1
 186 515 l 1
 156 494 l 1
 167 460 l 1
 138 481 l 1
 109 460 l 1
 120 494 l 1
 90 515 l 1
 127 515 l 1
 138 550 l 1
458 633 m 1
 469 598 l 1
 506 598 l 1
 476 577 l 1
 487 543 l 1
 458 564 l 1
 429 543 l 1
 440 577 l 1
 410 598 l 1
 447 598 l 1
 458 633 l 1
138 633 m 1
 149 598 l 1
 186 598 l 1
 156 577 l 1
 167 543 l 1
 138 564 l 1
 109 543 l 1
 120 577 l 1
 90 598 l 1
 127 598 l 1
 138 633 l 1
405 800 m 1
 416 765 l 1
 453 765 l 1
 423 744 l 1
 434 710 l 1
 405 731 l 1
 376 710 l 1
 387 744 l 1
 357 765 l 1
 394 765 l 1
 405 800 l 1
191 800 m 1
 202 765 l 1
 239 765 l 1
 209 744 l 1
 220 710 l 1
 191 731 l 1
 162 710 l 1
 173 744 l 1
 143 765 l 1
 180 765 l 1
 191 800 l 1
EndSplineSet
EndChar

StartChar: glyph78
Encoding: 776 776 78
Width: 600
VWidth: 0
UnlinkRmOvrlpSave: 1
Flags: W
HStem: 710 90
VStem: 90 310
LayerCount: 2
Back
Fore
SplineSet
352 800 m 1
 363 765 l 1
 400 765 l 1
 370 744 l 1
 381 710 l 1
 352 731 l 1
 323 710 l 1
 334 744 l 1
 304 765 l 1
 341 765 l 1
 352 800 l 1
138 800 m 1
 149 765 l 1
 186 765 l 1
 156 744 l 1
 167 710 l 1
 138 731 l 1
 109 710 l 1
 120 744 l 1
 90 765 l 1
 127 765 l 1
 138 800 l 1
EndSplineSet
EndChar

StartChar: glyph79
Encoding: 9786 9786 79
Width: 600
VWidth: 0
UnlinkRmOvrlpSave: 1
Flags: W
LayerCount: 2
Back
Fore
SplineSet
405 383 m 1
 416 348 l 1
 453 348 l 1
 423 327 l 1
 434 293 l 1
 405 314 l 1
 376 293 l 1
 387 327 l 1
 357 348 l 1
 394 348 l 1
 405 383 l 1
298 383 m 1
 309 348 l 1
 346 348 l 1
 316 327 l 1
 327 293 l 1
 298 314 l 1
 269 293 l 1
 280 327 l 1
 250 348 l 1
 287 348 l 1
 298 383 l 1
191 383 m 1
 202 348 l 1
 239 348 l 1
 209 327 l 1
 220 293 l 1
 191 314 l 1
 162 293 l 1
 173 327 l 1
 143 348 l 1
 180 348 l 1
 191 383 l 1
458 467 m 1
 469 432 l 1
 506 432 l 1
 476 411 l 1
 487 377 l 1
 458 398 l 1
 429 377 l 1
 440 411 l 1
 410 432 l 1
 447 432 l 1
 458 467 l 1
138 467 m 1
 149 432 l 1
 186 432 l 1
 156 411 l 1
 167 377 l 1
 138 398 l 1
 109 377 l 1
 120 411 l 1
 90 432 l 1
 127 432 l 1
 138 467 l 1
405 717 m 1
 416 682 l 1
 453 682 l 1
 423 661 l 1
 434 627 l 1
 405 648 l 1
 376 627 l 1
 387 661 l 1
 357 682 l 1
 394 682 l 1
 405 717 l 1
191 717 m 1
 202 682 l 1
 239 682 l 1
 209 661 l 1
 220 627 l 1
 191 648 l 1
 162 627 l 1
 173 661 l 1
 143 682 l 1
 180 682 l 1
 191 717 l 1
EndSplineSet
EndChar

StartChar: glyph80
Encoding: 8595 8595 80
Width: 600
VWidth: 0
UnlinkRmOvrlpSave: 1
Flags: W
HStem: 210 21G<275.471 296.619 299.381 320.529> 210 21G<275.471 296.619 299.381 320.529> 613 20G<291.714 304.286> 780 20G<291.714 304.286>
LayerCount: 2
Back
Fore
SplineSet
298 300 m 1x70
 309 265 l 1
 346 265 l 1
 316 244 l 1
 327 210 l 1
 298 231 l 1
 269 210 l 1
 280 244 l 1
 250 265 l 1
 287 265 l 1
 298 300 l 1x70
405 383 m 1
 416 348 l 1
 453 348 l 1
 423 327 l 1
 434 293 l 1
 405 314 l 1
 376 293 l 1
 387 327 l 1
 357 348 l 1
 394 348 l 1
 405 383 l 1
298 383 m 1
 309 348 l 1
 346 348 l 1
 316 327 l 1
 327 293 l 1
 298 314 l 1
 269 293 l 1
 280 327 l 1
 250 348 l 1
 287 348 l 1
 298 383 l 1
191 383 m 1
 202 348 l 1
 239 348 l 1
 209 327 l 1
 220 293 l 1
 191 314 l 1
 162 293 l 1
 173 327 l 1
 143 348 l 1
 180 348 l 1
 191 383 l 1
458 467 m 1
 469 432 l 1
 506 432 l 1
 476 411 l 1
 487 377 l 1
 458 398 l 1
 429 377 l 1
 440 411 l 1
 410 432 l 1
 447 432 l 1
 458 467 l 1
298 467 m 1
 309 432 l 1
 346 432 l 1
 316 411 l 1
 327 377 l 1
 298 398 l 1
 269 377 l 1
 280 411 l 1
 250 432 l 1
 287 432 l 1
 298 467 l 1
138 467 m 1
 149 432 l 1
 186 432 l 1
 156 411 l 1
 167 377 l 1
 138 398 l 1
 109 377 l 1
 120 411 l 1
 90 432 l 1
 127 432 l 1
 138 467 l 1
298 550 m 1
 309 515 l 1
 346 515 l 1
 316 494 l 1
 327 460 l 1
 298 481 l 1
 269 460 l 1
 280 494 l 1
 250 515 l 1
 287 515 l 1
 298 550 l 1
298 633 m 1
 309 598 l 1
 346 598 l 1
 316 577 l 1
 327 543 l 1
 298 564 l 1
 269 543 l 1
 280 577 l 1
 250 598 l 1
 287 598 l 1
 298 633 l 1
298 717 m 1
 309 682 l 1
 346 682 l 1
 316 661 l 1
 327 627 l 1
 298 648 l 1
 269 627 l 1
 280 661 l 1
 250 682 l 1
 287 682 l 1
 298 717 l 1
298 800 m 1
 309 765 l 1
 346 765 l 1
 316 744 l 1
 327 710 l 1
 298 731 l 1
 269 710 l 1
 280 744 l 1
 250 765 l 1
 287 765 l 1
 298 800 l 1
EndSplineSet
EndChar

StartChar: quotedbl
Encoding: 34 34 81
Width: 600
VWidth: 0
UnlinkRmOvrlpSave: 1
Flags: W
HStem: 543 257 613 20G<131.714 144.286 237.714 250.286>
VStem: 90 202
LayerCount: 2
Back
Fore
SplineSet
244 633 m 1x60
 255 598 l 1
 292 598 l 1
 262 577 l 1
 273 543 l 1
 244 564 l 1
 215 543 l 1xa0
 226 577 l 1
 196 598 l 1
 233 598 l 1
 244 633 l 1x60
138 633 m 1x60
 149 598 l 1
 186 598 l 1
 156 577 l 1
 167 543 l 1
 138 564 l 1
 109 543 l 1xa0
 120 577 l 1
 90 598 l 1
 127 598 l 1
 138 633 l 1x60
244 717 m 1
 255 682 l 1
 292 682 l 1
 262 661 l 1
 273 627 l 1
 244 648 l 1
 215 627 l 1
 226 661 l 1
 196 682 l 1
 233 682 l 1
 244 717 l 1
138 717 m 1
 149 682 l 1
 186 682 l 1
 156 661 l 1
 167 627 l 1
 138 648 l 1
 109 627 l 1
 120 661 l 1
 90 682 l 1
 127 682 l 1
 138 717 l 1
244 800 m 1
 255 765 l 1
 292 765 l 1
 262 744 l 1
 273 710 l 1
 244 731 l 1
 215 710 l 1
 226 744 l 1
 196 765 l 1
 233 765 l 1
 244 800 l 1
138 800 m 1
 149 765 l 1
 186 765 l 1
 156 744 l 1
 167 710 l 1
 138 731 l 1
 109 710 l 1
 120 744 l 1
 90 765 l 1
 127 765 l 1
 138 800 l 1
EndSplineSet
EndChar

StartChar: ampersand
Encoding: 38 38 82
Width: 600
VWidth: 0
UnlinkRmOvrlpSave: 1
Flags: W
HStem: 210 21G<168.471 189.619 192.381 213.529 275.471 296.619 299.381 320.529 382.471 403.619 406.381 427.529> 210 21G<168.471 189.619 192.381 213.529 275.471 296.619 299.381 320.529 382.471 403.619 406.381 427.529> 613 20G<184.714 197.286 291.714 304.286> 780 20G<184.714 197.286 291.714 304.286>
LayerCount: 2
Back
Fore
SplineSet
405 300 m 1x70
 416 265 l 1
 453 265 l 1
 423 244 l 1
 434 210 l 1
 405 231 l 1
 376 210 l 1
 387 244 l 1
 357 265 l 1
 394 265 l 1
 405 300 l 1x70
298 300 m 1
 309 265 l 1
 346 265 l 1
 316 244 l 1
 327 210 l 1
 298 231 l 1
 269 210 l 1
 280 244 l 1
 250 265 l 1
 287 265 l 1
 298 300 l 1
191 300 m 1
 202 265 l 1
 239 265 l 1
 209 244 l 1
 220 210 l 1
 191 231 l 1
 162 210 l 1
 173 244 l 1
 143 265 l 1
 180 265 l 1
 191 300 l 1
351 383 m 1
 362 348 l 1
 399 348 l 1
 369 327 l 1
 380 293 l 1
 351 314 l 1
 322 293 l 1
 333 327 l 1
 303 348 l 1
 340 348 l 1
 351 383 l 1
138 383 m 1
 149 348 l 1
 186 348 l 1
 156 327 l 1
 167 293 l 1
 138 314 l 1
 109 293 l 1
 120 327 l 1
 90 348 l 1
 127 348 l 1
 138 383 l 1
405 467 m 1
 416 432 l 1
 453 432 l 1
 423 411 l 1
 434 377 l 1
 405 398 l 1
 376 377 l 1
 387 411 l 1
 357 432 l 1
 394 432 l 1
 405 467 l 1
298 467 m 1
 309 432 l 1
 346 432 l 1
 316 411 l 1
 327 377 l 1
 298 398 l 1
 269 377 l 1
 280 411 l 1
 250 432 l 1
 287 432 l 1
 298 467 l 1
191 467 m 1
 202 432 l 1
 239 432 l 1
 209 411 l 1
 220 377 l 1
 191 398 l 1
 162 377 l 1
 173 411 l 1
 143 432 l 1
 180 432 l 1
 191 467 l 1
245 550 m 1
 256 515 l 1
 293 515 l 1
 263 494 l 1
 274 460 l 1
 245 481 l 1
 216 460 l 1
 227 494 l 1
 197 515 l 1
 234 515 l 1
 245 550 l 1
298 633 m 1
 309 598 l 1
 346 598 l 1
 316 577 l 1
 327 543 l 1
 298 564 l 1
 269 543 l 1
 280 577 l 1
 250 598 l 1
 287 598 l 1
 298 633 l 1
191 633 m 1
 202 598 l 1
 239 598 l 1
 209 577 l 1
 220 543 l 1
 191 564 l 1
 162 543 l 1
 173 577 l 1
 143 598 l 1
 180 598 l 1
 191 633 l 1
351 717 m 1
 362 682 l 1
 399 682 l 1
 369 661 l 1
 380 627 l 1
 351 648 l 1
 322 627 l 1
 333 661 l 1
 303 682 l 1
 340 682 l 1
 351 717 l 1
138 717 m 1
 149 682 l 1
 186 682 l 1
 156 661 l 1
 167 627 l 1
 138 648 l 1
 109 627 l 1
 120 661 l 1
 90 682 l 1
 127 682 l 1
 138 717 l 1
298 800 m 1
 309 765 l 1
 346 765 l 1
 316 744 l 1
 327 710 l 1
 298 731 l 1
 269 710 l 1
 280 744 l 1
 250 765 l 1
 287 765 l 1
 298 800 l 1
191 800 m 1
 202 765 l 1
 239 765 l 1
 209 744 l 1
 220 710 l 1
 191 731 l 1
 162 710 l 1
 173 744 l 1
 143 765 l 1
 180 765 l 1
 191 800 l 1
EndSplineSet
EndChar

StartChar: asterisk
Encoding: 42 42 83
Width: 600
VWidth: 0
UnlinkRmOvrlpSave: 1
Flags: W
HStem: 210 21G<275.471 296.619 299.381 320.529> 210 21G<275.471 296.619 299.381 320.529> 613 20G<184.714 197.286 291.714 304.286 398.714 411.286> 780 20G<291.714 304.286>
LayerCount: 2
Back
Fore
SplineSet
298 300 m 1x70
 309 265 l 1
 346 265 l 1
 316 244 l 1
 327 210 l 1
 298 231 l 1
 269 210 l 1
 280 244 l 1
 250 265 l 1
 287 265 l 1
 298 300 l 1x70
458 383 m 1
 469 348 l 1
 506 348 l 1
 476 327 l 1
 487 293 l 1
 458 314 l 1
 429 293 l 1
 440 327 l 1
 410 348 l 1
 447 348 l 1
 458 383 l 1
298 383 m 1
 309 348 l 1
 346 348 l 1
 316 327 l 1
 327 293 l 1
 298 314 l 1
 269 293 l 1
 280 327 l 1
 250 348 l 1
 287 348 l 1
 298 383 l 1
138 383 m 1
 149 348 l 1
 186 348 l 1
 156 327 l 1
 167 293 l 1
 138 314 l 1
 109 293 l 1
 120 327 l 1
 90 348 l 1
 127 348 l 1
 138 383 l 1
405 467 m 1
 416 432 l 1
 453 432 l 1
 423 411 l 1
 434 377 l 1
 405 398 l 1
 376 377 l 1
 387 411 l 1
 357 432 l 1
 394 432 l 1
 405 467 l 1
298 467 m 1
 309 432 l 1
 346 432 l 1
 316 411 l 1
 327 377 l 1
 298 398 l 1
 269 377 l 1
 280 411 l 1
 250 432 l 1
 287 432 l 1
 298 467 l 1
191 467 m 1
 202 432 l 1
 239 432 l 1
 209 411 l 1
 220 377 l 1
 191 398 l 1
 162 377 l 1
 173 411 l 1
 143 432 l 1
 180 432 l 1
 191 467 l 1
351 550 m 1
 362 515 l 1
 399 515 l 1
 369 494 l 1
 380 460 l 1
 351 481 l 1
 322 460 l 1
 333 494 l 1
 303 515 l 1
 340 515 l 1
 351 550 l 1
245 550 m 1
 256 515 l 1
 293 515 l 1
 263 494 l 1
 274 460 l 1
 245 481 l 1
 216 460 l 1
 227 494 l 1
 197 515 l 1
 234 515 l 1
 245 550 l 1
405 633 m 1
 416 598 l 1
 453 598 l 1
 423 577 l 1
 434 543 l 1
 405 564 l 1
 376 543 l 1
 387 577 l 1
 357 598 l 1
 394 598 l 1
 405 633 l 1
298 633 m 1
 309 598 l 1
 346 598 l 1
 316 577 l 1
 327 543 l 1
 298 564 l 1
 269 543 l 1
 280 577 l 1
 250 598 l 1
 287 598 l 1
 298 633 l 1
191 633 m 1
 202 598 l 1
 239 598 l 1
 209 577 l 1
 220 543 l 1
 191 564 l 1
 162 543 l 1
 173 577 l 1
 143 598 l 1
 180 598 l 1
 191 633 l 1
458 717 m 1
 469 682 l 1
 506 682 l 1
 476 661 l 1
 487 627 l 1
 458 648 l 1
 429 627 l 1
 440 661 l 1
 410 682 l 1
 447 682 l 1
 458 717 l 1
298 717 m 1
 309 682 l 1
 346 682 l 1
 316 661 l 1
 327 627 l 1
 298 648 l 1
 269 627 l 1
 280 661 l 1
 250 682 l 1
 287 682 l 1
 298 717 l 1
138 717 m 1
 149 682 l 1
 186 682 l 1
 156 661 l 1
 167 627 l 1
 138 648 l 1
 109 627 l 1
 120 661 l 1
 90 682 l 1
 127 682 l 1
 138 717 l 1
298 800 m 1
 309 765 l 1
 346 765 l 1
 316 744 l 1
 327 710 l 1
 298 731 l 1
 269 710 l 1
 280 744 l 1
 250 765 l 1
 287 765 l 1
 298 800 l 1
EndSplineSet
EndChar

StartChar: period
Encoding: 46 46 84
Width: 600
VWidth: 0
UnlinkRmOvrlpSave: 1
Flags: W
HStem: 210 257
VStem: 90 202
LayerCount: 2
Back
Fore
SplineSet
191 300 m 1
 202 265 l 1
 239 265 l 1
 209 244 l 1
 220 210 l 1
 191 231 l 1
 162 210 l 1
 173 244 l 1
 143 265 l 1
 180 265 l 1
 191 300 l 1
244 383 m 1
 255 348 l 1
 292 348 l 1
 262 327 l 1
 273 293 l 1
 244 314 l 1
 215 293 l 1
 226 327 l 1
 196 348 l 1
 233 348 l 1
 244 383 l 1
138 383 m 1
 149 348 l 1
 186 348 l 1
 156 327 l 1
 167 293 l 1
 138 314 l 1
 109 293 l 1
 120 327 l 1
 90 348 l 1
 127 348 l 1
 138 383 l 1
191 467 m 1
 202 432 l 1
 239 432 l 1
 209 411 l 1
 220 377 l 1
 191 398 l 1
 162 377 l 1
 173 411 l 1
 143 432 l 1
 180 432 l 1
 191 467 l 1
EndSplineSet
EndChar

StartChar: plusminus
Encoding: 177 177 85
Width: 600
VWidth: 0
UnlinkRmOvrlpSave: 1
Flags: W
HStem: 613 20G<131.714 144.286 238.714 251.286 344.714 357.286 451.714 464.286> 780 20G<291.714 304.286>
LayerCount: 2
Back
Fore
SplineSet
458 383 m 1
 469 348 l 1
 506 348 l 1
 476 327 l 1
 487 293 l 1
 458 314 l 1
 429 293 l 1
 440 327 l 1
 410 348 l 1
 447 348 l 1
 458 383 l 1
351 383 m 1
 362 348 l 1
 399 348 l 1
 369 327 l 1
 380 293 l 1
 351 314 l 1
 322 293 l 1
 333 327 l 1
 303 348 l 1
 340 348 l 1
 351 383 l 1
245 383 m 1
 256 348 l 1
 293 348 l 1
 263 327 l 1
 274 293 l 1
 245 314 l 1
 216 293 l 1
 227 327 l 1
 197 348 l 1
 234 348 l 1
 245 383 l 1
138 383 m 1
 149 348 l 1
 186 348 l 1
 156 327 l 1
 167 293 l 1
 138 314 l 1
 109 293 l 1
 120 327 l 1
 90 348 l 1
 127 348 l 1
 138 383 l 1
298 550 m 1
 309 515 l 1
 346 515 l 1
 316 494 l 1
 327 460 l 1
 298 481 l 1
 269 460 l 1
 280 494 l 1
 250 515 l 1
 287 515 l 1
 298 550 l 1
458 633 m 1
 469 598 l 1
 506 598 l 1
 476 577 l 1
 487 543 l 1
 458 564 l 1
 429 543 l 1
 440 577 l 1
 410 598 l 1
 447 598 l 1
 458 633 l 1
351 633 m 1
 362 598 l 1
 399 598 l 1
 369 577 l 1
 380 543 l 1
 351 564 l 1
 322 543 l 1
 333 577 l 1
 303 598 l 1
 340 598 l 1
 351 633 l 1
245 633 m 1
 256 598 l 1
 293 598 l 1
 263 577 l 1
 274 543 l 1
 245 564 l 1
 216 543 l 1
 227 577 l 1
 197 598 l 1
 234 598 l 1
 245 633 l 1
138 633 m 1
 149 598 l 1
 186 598 l 1
 156 577 l 1
 167 543 l 1
 138 564 l 1
 109 543 l 1
 120 577 l 1
 90 598 l 1
 127 598 l 1
 138 633 l 1
298 717 m 1
 309 682 l 1
 346 682 l 1
 316 661 l 1
 327 627 l 1
 298 648 l 1
 269 627 l 1
 280 661 l 1
 250 682 l 1
 287 682 l 1
 298 717 l 1
298 800 m 1
 309 765 l 1
 346 765 l 1
 316 744 l 1
 327 710 l 1
 298 731 l 1
 269 710 l 1
 280 744 l 1
 250 765 l 1
 287 765 l 1
 298 800 l 1
EndSplineSet
EndChar

StartChar: two
Encoding: 50 50 86
Width: 600
VWidth: 0
UnlinkRmOvrlpSave: 1
Flags: W
HStem: 210 21G<115.471 136.619 139.381 160.529 222.471 243.619 246.381 267.529 328.471 349.619 352.381 373.529 435.471 456.619 459.381 480.529> 210 21G<115.471 136.619 139.381 160.529 222.471 243.619 246.381 267.529 328.471 349.619 352.381 373.529 435.471 456.619 459.381 480.529> 613 20G<451.714 464.286> 780 20G<184.714 197.286 291.714 304.286 398.714 411.286>
LayerCount: 2
Back
Fore
SplineSet
458 300 m 1x70
 469 265 l 1
 506 265 l 1
 476 244 l 1
 487 210 l 1
 458 231 l 1
 429 210 l 1
 440 244 l 1
 410 265 l 1
 447 265 l 1
 458 300 l 1x70
351 300 m 1
 362 265 l 1
 399 265 l 1
 369 244 l 1
 380 210 l 1
 351 231 l 1
 322 210 l 1
 333 244 l 1
 303 265 l 1
 340 265 l 1
 351 300 l 1
245 300 m 1
 256 265 l 1
 293 265 l 1
 263 244 l 1
 274 210 l 1
 245 231 l 1
 216 210 l 1
 227 244 l 1
 197 265 l 1
 234 265 l 1
 245 300 l 1
138 300 m 1
 149 265 l 1
 186 265 l 1
 156 244 l 1
 167 210 l 1
 138 231 l 1
 109 210 l 1
 120 244 l 1
 90 265 l 1
 127 265 l 1
 138 300 l 1
191 383 m 1
 202 348 l 1
 239 348 l 1
 209 327 l 1
 220 293 l 1
 191 314 l 1
 162 293 l 1
 173 327 l 1
 143 348 l 1
 180 348 l 1
 191 383 l 1
298 467 m 1
 309 432 l 1
 346 432 l 1
 316 411 l 1
 327 377 l 1
 298 398 l 1
 269 377 l 1
 280 411 l 1
 250 432 l 1
 287 432 l 1
 298 467 l 1
405 550 m 1
 416 515 l 1
 453 515 l 1
 423 494 l 1
 434 460 l 1
 405 481 l 1
 376 460 l 1
 387 494 l 1
 357 515 l 1
 394 515 l 1
 405 550 l 1
458 633 m 1
 469 598 l 1
 506 598 l 1
 476 577 l 1
 487 543 l 1
 458 564 l 1
 429 543 l 1
 440 577 l 1
 410 598 l 1
 447 598 l 1
 458 633 l 1
458 717 m 1
 469 682 l 1
 506 682 l 1
 476 661 l 1
 487 627 l 1
 458 648 l 1
 429 627 l 1
 440 661 l 1
 410 682 l 1
 447 682 l 1
 458 717 l 1
138 717 m 1
 149 682 l 1
 186 682 l 1
 156 661 l 1
 167 627 l 1
 138 648 l 1
 109 627 l 1
 120 661 l 1
 90 682 l 1
 127 682 l 1
 138 717 l 1
405 800 m 1
 416 765 l 1
 453 765 l 1
 423 744 l 1
 434 710 l 1
 405 731 l 1
 376 710 l 1
 387 744 l 1
 357 765 l 1
 394 765 l 1
 405 800 l 1
298 800 m 1
 309 765 l 1
 346 765 l 1
 316 744 l 1
 327 710 l 1
 298 731 l 1
 269 710 l 1
 280 744 l 1
 250 765 l 1
 287 765 l 1
 298 800 l 1
191 800 m 1
 202 765 l 1
 239 765 l 1
 209 744 l 1
 220 710 l 1
 191 731 l 1
 162 710 l 1
 173 744 l 1
 143 765 l 1
 180 765 l 1
 191 800 l 1
EndSplineSet
EndChar

StartChar: mu
Encoding: 181 181 87
Width: 600
VWidth: 0
UnlinkRmOvrlpSave: 1
Flags: W
HStem: 210 21G<115.471 136.619 139.381 160.529> 210 21G<115.471 136.619 139.381 160.529> 613 20G<131.714 144.286 398.714 411.286>
LayerCount: 2
Back
Fore
SplineSet
138 300 m 1x60
 149 265 l 1
 186 265 l 1
 156 244 l 1
 167 210 l 1
 138 231 l 1
 109 210 l 1
 120 244 l 1
 90 265 l 1
 127 265 l 1
 138 300 l 1x60
138 383 m 1
 149 348 l 1
 186 348 l 1
 156 327 l 1
 167 293 l 1
 138 314 l 1
 109 293 l 1
 120 327 l 1
 90 348 l 1
 127 348 l 1
 138 383 l 1
458 467 m 1
 469 432 l 1
 506 432 l 1
 476 411 l 1
 487 377 l 1
 458 398 l 1
 429 377 l 1
 440 411 l 1
 410 432 l 1
 447 432 l 1
 458 467 l 1
351 467 m 1
 362 432 l 1
 399 432 l 1
 369 411 l 1
 380 377 l 1
 351 398 l 1
 322 377 l 1
 333 411 l 1
 303 432 l 1
 340 432 l 1
 351 467 l 1
245 467 m 1
 256 432 l 1
 293 432 l 1
 263 411 l 1
 274 377 l 1
 245 398 l 1
 216 377 l 1
 227 411 l 1
 197 432 l 1
 234 432 l 1
 245 467 l 1
138 467 m 1
 149 432 l 1
 186 432 l 1
 156 411 l 1
 167 377 l 1
 138 398 l 1
 109 377 l 1
 120 411 l 1
 90 432 l 1
 127 432 l 1
 138 467 l 1
405 550 m 1
 416 515 l 1
 453 515 l 1
 423 494 l 1
 434 460 l 1
 405 481 l 1
 376 460 l 1
 387 494 l 1
 357 515 l 1
 394 515 l 1
 405 550 l 1
138 550 m 1
 149 515 l 1
 186 515 l 1
 156 494 l 1
 167 460 l 1
 138 481 l 1
 109 460 l 1
 120 494 l 1
 90 515 l 1
 127 515 l 1
 138 550 l 1
405 633 m 1
 416 598 l 1
 453 598 l 1
 423 577 l 1
 434 543 l 1
 405 564 l 1
 376 543 l 1
 387 577 l 1
 357 598 l 1
 394 598 l 1
 405 633 l 1
138 633 m 1
 149 598 l 1
 186 598 l 1
 156 577 l 1
 167 543 l 1
 138 564 l 1
 109 543 l 1
 120 577 l 1
 90 598 l 1
 127 598 l 1
 138 633 l 1
EndSplineSet
EndChar

StartChar: six
Encoding: 54 54 88
Width: 600
VWidth: 0
UnlinkRmOvrlpSave: 1
Flags: W
HStem: 210 21G<168.471 189.619 192.381 213.529 275.471 296.619 299.381 320.529 382.471 403.619 406.381 427.529> 210 21G<168.471 189.619 192.381 213.529 275.471 296.619 299.381 320.529 382.471 403.619 406.381 427.529> 613 20G<238.714 251.286> 780 20G<344.714 357.286>
LayerCount: 2
Back
Fore
SplineSet
405 300 m 1x70
 416 265 l 1
 453 265 l 1
 423 244 l 1
 434 210 l 1
 405 231 l 1
 376 210 l 1
 387 244 l 1
 357 265 l 1
 394 265 l 1
 405 300 l 1x70
298 300 m 1
 309 265 l 1
 346 265 l 1
 316 244 l 1
 327 210 l 1
 298 231 l 1
 269 210 l 1
 280 244 l 1
 250 265 l 1
 287 265 l 1
 298 300 l 1
191 300 m 1
 202 265 l 1
 239 265 l 1
 209 244 l 1
 220 210 l 1
 191 231 l 1
 162 210 l 1
 173 244 l 1
 143 265 l 1
 180 265 l 1
 191 300 l 1
458 383 m 1
 469 348 l 1
 506 348 l 1
 476 327 l 1
 487 293 l 1
 458 314 l 1
 429 293 l 1
 440 327 l 1
 410 348 l 1
 447 348 l 1
 458 383 l 1
138 383 m 1
 149 348 l 1
 186 348 l 1
 156 327 l 1
 167 293 l 1
 138 314 l 1
 109 293 l 1
 120 327 l 1
 90 348 l 1
 127 348 l 1
 138 383 l 1
458 467 m 1
 469 432 l 1
 506 432 l 1
 476 411 l 1
 487 377 l 1
 458 398 l 1
 429 377 l 1
 440 411 l 1
 410 432 l 1
 447 432 l 1
 458 467 l 1
138 467 m 1
 149 432 l 1
 186 432 l 1
 156 411 l 1
 167 377 l 1
 138 398 l 1
 109 377 l 1
 120 411 l 1
 90 432 l 1
 127 432 l 1
 138 467 l 1
405 550 m 1
 416 515 l 1
 453 515 l 1
 423 494 l 1
 434 460 l 1
 405 481 l 1
 376 460 l 1
 387 494 l 1
 357 515 l 1
 394 515 l 1
 405 550 l 1
298 550 m 1
 309 515 l 1
 346 515 l 1
 316 494 l 1
 327 460 l 1
 298 481 l 1
 269 460 l 1
 280 494 l 1
 250 515 l 1
 287 515 l 1
 298 550 l 1
191 550 m 1
 202 515 l 1
 239 515 l 1
 209 494 l 1
 220 460 l 1
 191 481 l 1
 162 460 l 1
 173 494 l 1
 143 515 l 1
 180 515 l 1
 191 550 l 1
245 633 m 1
 256 598 l 1
 293 598 l 1
 263 577 l 1
 274 543 l 1
 245 564 l 1
 216 543 l 1
 227 577 l 1
 197 598 l 1
 234 598 l 1
 245 633 l 1
298 717 m 1
 309 682 l 1
 346 682 l 1
 316 661 l 1
 327 627 l 1
 298 648 l 1
 269 627 l 1
 280 661 l 1
 250 682 l 1
 287 682 l 1
 298 717 l 1
351 800 m 1
 362 765 l 1
 399 765 l 1
 369 744 l 1
 380 710 l 1
 351 731 l 1
 322 710 l 1
 333 744 l 1
 303 765 l 1
 340 765 l 1
 351 800 l 1
EndSplineSet
EndChar

StartChar: colon
Encoding: 58 58 89
Width: 600
VWidth: 0
UnlinkRmOvrlpSave: 1
Flags: W
HStem: 210 21G<168.471 189.619 192.381 213.529> 210 21G<168.471 189.619 192.381 213.529> 613 20G<184.714 197.286> 780 20G<184.714 197.286>
VStem: 90 202
LayerCount: 2
Back
Fore
SplineSet
191 300 m 1x78
 202 265 l 1
 239 265 l 1
 209 244 l 1
 220 210 l 1
 191 231 l 1
 162 210 l 1
 173 244 l 1
 143 265 l 1
 180 265 l 1
 191 300 l 1x78
244 383 m 1
 255 348 l 1
 292 348 l 1
 262 327 l 1
 273 293 l 1
 244 314 l 1
 215 293 l 1
 226 327 l 1
 196 348 l 1
 233 348 l 1
 244 383 l 1
138 383 m 1
 149 348 l 1
 186 348 l 1
 156 327 l 1
 167 293 l 1
 138 314 l 1
 109 293 l 1
 120 327 l 1
 90 348 l 1
 127 348 l 1
 138 383 l 1
191 467 m 1
 202 432 l 1
 239 432 l 1
 209 411 l 1
 220 377 l 1
 191 398 l 1
 162 377 l 1
 173 411 l 1
 143 432 l 1
 180 432 l 1
 191 467 l 1
191 633 m 1
 202 598 l 1
 239 598 l 1
 209 577 l 1
 220 543 l 1
 191 564 l 1
 162 543 l 1
 173 577 l 1
 143 598 l 1
 180 598 l 1
 191 633 l 1
244 717 m 1
 255 682 l 1
 292 682 l 1
 262 661 l 1
 273 627 l 1
 244 648 l 1
 215 627 l 1
 226 661 l 1
 196 682 l 1
 233 682 l 1
 244 717 l 1
138 717 m 1
 149 682 l 1
 186 682 l 1
 156 661 l 1
 167 627 l 1
 138 648 l 1
 109 627 l 1
 120 661 l 1
 90 682 l 1
 127 682 l 1
 138 717 l 1
191 800 m 1
 202 765 l 1
 239 765 l 1
 209 744 l 1
 220 710 l 1
 191 731 l 1
 162 710 l 1
 173 744 l 1
 143 765 l 1
 180 765 l 1
 191 800 l 1
EndSplineSet
EndChar

StartChar: greater
Encoding: 62 62 90
Width: 600
VWidth: 0
UnlinkRmOvrlpSave: 1
Flags: W
HStem: 210 21G<115.471 136.619 139.381 160.529> 210 21G<115.471 136.619 139.381 160.529> 613 20G<344.714 357.286> 780 20G<131.714 144.286>
LayerCount: 2
Back
Fore
SplineSet
138 300 m 1x70
 149 265 l 1
 186 265 l 1
 156 244 l 1
 167 210 l 1
 138 231 l 1
 109 210 l 1
 120 244 l 1
 90 265 l 1
 127 265 l 1
 138 300 l 1x70
245 383 m 1
 256 348 l 1
 293 348 l 1
 263 327 l 1
 274 293 l 1
 245 314 l 1
 216 293 l 1
 227 327 l 1
 197 348 l 1
 234 348 l 1
 245 383 l 1
351 467 m 1
 362 432 l 1
 399 432 l 1
 369 411 l 1
 380 377 l 1
 351 398 l 1
 322 377 l 1
 333 411 l 1
 303 432 l 1
 340 432 l 1
 351 467 l 1
458 550 m 1
 469 515 l 1
 506 515 l 1
 476 494 l 1
 487 460 l 1
 458 481 l 1
 429 460 l 1
 440 494 l 1
 410 515 l 1
 447 515 l 1
 458 550 l 1
351 633 m 1
 362 598 l 1
 399 598 l 1
 369 577 l 1
 380 543 l 1
 351 564 l 1
 322 543 l 1
 333 577 l 1
 303 598 l 1
 340 598 l 1
 351 633 l 1
245 717 m 1
 256 682 l 1
 293 682 l 1
 263 661 l 1
 274 627 l 1
 245 648 l 1
 216 627 l 1
 227 661 l 1
 197 682 l 1
 234 682 l 1
 245 717 l 1
138 800 m 1
 149 765 l 1
 186 765 l 1
 156 744 l 1
 167 710 l 1
 138 731 l 1
 109 710 l 1
 120 744 l 1
 90 765 l 1
 127 765 l 1
 138 800 l 1
EndSplineSet
EndChar

StartChar: Aacute
Encoding: 193 193 91
Width: 600
VWidth: 0
UnlinkRmOvrlpSave: 1
Flags: W
HStem: 210 21G<115.471 136.619 139.381 160.529 435.471 456.619 459.381 480.529> 210 21G<115.471 136.619 139.381 160.529 435.471 456.619 459.381 480.529> 613 20G<291.714 304.286> 780 20G<344.714 357.286>
LayerCount: 2
Back
Fore
SplineSet
458 300 m 1x70
 469 265 l 1
 506 265 l 1
 476 244 l 1
 487 210 l 1
 458 231 l 1
 429 210 l 1
 440 244 l 1
 410 265 l 1
 447 265 l 1
 458 300 l 1x70
138 300 m 1
 149 265 l 1
 186 265 l 1
 156 244 l 1
 167 210 l 1
 138 231 l 1
 109 210 l 1
 120 244 l 1
 90 265 l 1
 127 265 l 1
 138 300 l 1
458 383 m 1
 469 348 l 1
 506 348 l 1
 476 327 l 1
 487 293 l 1
 458 314 l 1
 429 293 l 1
 440 327 l 1
 410 348 l 1
 447 348 l 1
 458 383 l 1
351 383 m 1
 362 348 l 1
 399 348 l 1
 369 327 l 1
 380 293 l 1
 351 314 l 1
 322 293 l 1
 333 327 l 1
 303 348 l 1
 340 348 l 1
 351 383 l 1
245 383 m 1
 256 348 l 1
 293 348 l 1
 263 327 l 1
 274 293 l 1
 245 314 l 1
 216 293 l 1
 227 327 l 1
 197 348 l 1
 234 348 l 1
 245 383 l 1
138 383 m 1
 149 348 l 1
 186 348 l 1
 156 327 l 1
 167 293 l 1
 138 314 l 1
 109 293 l 1
 120 327 l 1
 90 348 l 1
 127 348 l 1
 138 383 l 1
405 467 m 1
 416 432 l 1
 453 432 l 1
 423 411 l 1
 434 377 l 1
 405 398 l 1
 376 377 l 1
 387 411 l 1
 357 432 l 1
 394 432 l 1
 405 467 l 1
191 467 m 1
 202 432 l 1
 239 432 l 1
 209 411 l 1
 220 377 l 1
 191 398 l 1
 162 377 l 1
 173 411 l 1
 143 432 l 1
 180 432 l 1
 191 467 l 1
351 550 m 1
 362 515 l 1
 399 515 l 1
 369 494 l 1
 380 460 l 1
 351 481 l 1
 322 460 l 1
 333 494 l 1
 303 515 l 1
 340 515 l 1
 351 550 l 1
245 550 m 1
 256 515 l 1
 293 515 l 1
 263 494 l 1
 274 460 l 1
 245 481 l 1
 216 460 l 1
 227 494 l 1
 197 515 l 1
 234 515 l 1
 245 550 l 1
298 633 m 1
 309 598 l 1
 346 598 l 1
 316 577 l 1
 327 543 l 1
 298 564 l 1
 269 543 l 1
 280 577 l 1
 250 598 l 1
 287 598 l 1
 298 633 l 1
298 717 m 1
 309 682 l 1
 346 682 l 1
 316 661 l 1
 327 627 l 1
 298 648 l 1
 269 627 l 1
 280 661 l 1
 250 682 l 1
 287 682 l 1
 298 717 l 1
351 800 m 1
 362 765 l 1
 399 765 l 1
 369 744 l 1
 380 710 l 1
 351 731 l 1
 322 710 l 1
 333 744 l 1
 303 765 l 1
 340 765 l 1
 351 800 l 1
EndSplineSet
EndChar

StartChar: B
Encoding: 66 66 92
Width: 600
VWidth: 0
UnlinkRmOvrlpSave: 1
Flags: W
HStem: 210 21G<115.471 136.619 139.381 160.529 222.471 243.619 246.381 267.529 328.471 349.619 352.381 373.529> 210 21G<115.471 136.619 139.381 160.529 222.471 243.619 246.381 267.529 328.471 349.619 352.381 373.529> 613 20G<184.714 197.286 451.714 464.286> 780 20G<131.714 144.286 238.714 251.286 344.714 357.286>
LayerCount: 2
Back
Fore
SplineSet
351 300 m 1x70
 362 265 l 1
 399 265 l 1
 369 244 l 1
 380 210 l 1
 351 231 l 1
 322 210 l 1
 333 244 l 1
 303 265 l 1
 340 265 l 1
 351 300 l 1x70
245 300 m 1
 256 265 l 1
 293 265 l 1
 263 244 l 1
 274 210 l 1
 245 231 l 1
 216 210 l 1
 227 244 l 1
 197 265 l 1
 234 265 l 1
 245 300 l 1
138 300 m 1
 149 265 l 1
 186 265 l 1
 156 244 l 1
 167 210 l 1
 138 231 l 1
 109 210 l 1
 120 244 l 1
 90 265 l 1
 127 265 l 1
 138 300 l 1
458 383 m 1
 469 348 l 1
 506 348 l 1
 476 327 l 1
 487 293 l 1
 458 314 l 1
 429 293 l 1
 440 327 l 1
 410 348 l 1
 447 348 l 1
 458 383 l 1
191 383 m 1
 202 348 l 1
 239 348 l 1
 209 327 l 1
 220 293 l 1
 191 314 l 1
 162 293 l 1
 173 327 l 1
 143 348 l 1
 180 348 l 1
 191 383 l 1
458 467 m 1
 469 432 l 1
 506 432 l 1
 476 411 l 1
 487 377 l 1
 458 398 l 1
 429 377 l 1
 440 411 l 1
 410 432 l 1
 447 432 l 1
 458 467 l 1
191 467 m 1
 202 432 l 1
 239 432 l 1
 209 411 l 1
 220 377 l 1
 191 398 l 1
 162 377 l 1
 173 411 l 1
 143 432 l 1
 180 432 l 1
 191 467 l 1
405 550 m 1
 416 515 l 1
 453 515 l 1
 423 494 l 1
 434 460 l 1
 405 481 l 1
 376 460 l 1
 387 494 l 1
 357 515 l 1
 394 515 l 1
 405 550 l 1
298 550 m 1
 309 515 l 1
 346 515 l 1
 316 494 l 1
 327 460 l 1
 298 481 l 1
 269 460 l 1
 280 494 l 1
 250 515 l 1
 287 515 l 1
 298 550 l 1
191 550 m 1
 202 515 l 1
 239 515 l 1
 209 494 l 1
 220 460 l 1
 191 481 l 1
 162 460 l 1
 173 494 l 1
 143 515 l 1
 180 515 l 1
 191 550 l 1
458 633 m 1
 469 598 l 1
 506 598 l 1
 476 577 l 1
 487 543 l 1
 458 564 l 1
 429 543 l 1
 440 577 l 1
 410 598 l 1
 447 598 l 1
 458 633 l 1
191 633 m 1
 202 598 l 1
 239 598 l 1
 209 577 l 1
 220 543 l 1
 191 564 l 1
 162 543 l 1
 173 577 l 1
 143 598 l 1
 180 598 l 1
 191 633 l 1
458 717 m 1
 469 682 l 1
 506 682 l 1
 476 661 l 1
 487 627 l 1
 458 648 l 1
 429 627 l 1
 440 661 l 1
 410 682 l 1
 447 682 l 1
 458 717 l 1
191 717 m 1
 202 682 l 1
 239 682 l 1
 209 661 l 1
 220 627 l 1
 191 648 l 1
 162 627 l 1
 173 661 l 1
 143 682 l 1
 180 682 l 1
 191 717 l 1
351 800 m 1
 362 765 l 1
 399 765 l 1
 369 744 l 1
 380 710 l 1
 351 731 l 1
 322 710 l 1
 333 744 l 1
 303 765 l 1
 340 765 l 1
 351 800 l 1
245 800 m 1
 256 765 l 1
 293 765 l 1
 263 744 l 1
 274 710 l 1
 245 731 l 1
 216 710 l 1
 227 744 l 1
 197 765 l 1
 234 765 l 1
 245 800 l 1
138 800 m 1
 149 765 l 1
 186 765 l 1
 156 744 l 1
 167 710 l 1
 138 731 l 1
 109 710 l 1
 120 744 l 1
 90 765 l 1
 127 765 l 1
 138 800 l 1
EndSplineSet
EndChar

StartChar: Aring
Encoding: 197 197 93
Width: 600
VWidth: 0
UnlinkRmOvrlpSave: 1
Flags: W
HStem: 210 21G<115.471 136.619 139.381 160.529 435.471 456.619 459.381 480.529> 210 21G<115.471 136.619 139.381 160.529 435.471 456.619 459.381 480.529> 613 20G<291.714 304.286> 780 20G<291.714 304.286>
LayerCount: 2
Back
Fore
SplineSet
458 300 m 1x70
 469 265 l 1
 506 265 l 1
 476 244 l 1
 487 210 l 1
 458 231 l 1
 429 210 l 1
 440 244 l 1
 410 265 l 1
 447 265 l 1
 458 300 l 1x70
138 300 m 1
 149 265 l 1
 186 265 l 1
 156 244 l 1
 167 210 l 1
 138 231 l 1
 109 210 l 1
 120 244 l 1
 90 265 l 1
 127 265 l 1
 138 300 l 1
458 383 m 1
 469 348 l 1
 506 348 l 1
 476 327 l 1
 487 293 l 1
 458 314 l 1
 429 293 l 1
 440 327 l 1
 410 348 l 1
 447 348 l 1
 458 383 l 1
351 383 m 1
 362 348 l 1
 399 348 l 1
 369 327 l 1
 380 293 l 1
 351 314 l 1
 322 293 l 1
 333 327 l 1
 303 348 l 1
 340 348 l 1
 351 383 l 1
245 383 m 1
 256 348 l 1
 293 348 l 1
 263 327 l 1
 274 293 l 1
 245 314 l 1
 216 293 l 1
 227 327 l 1
 197 348 l 1
 234 348 l 1
 245 383 l 1
138 383 m 1
 149 348 l 1
 186 348 l 1
 156 327 l 1
 167 293 l 1
 138 314 l 1
 109 293 l 1
 120 327 l 1
 90 348 l 1
 127 348 l 1
 138 383 l 1
405 467 m 1
 416 432 l 1
 453 432 l 1
 423 411 l 1
 434 377 l 1
 405 398 l 1
 376 377 l 1
 387 411 l 1
 357 432 l 1
 394 432 l 1
 405 467 l 1
191 467 m 1
 202 432 l 1
 239 432 l 1
 209 411 l 1
 220 377 l 1
 191 398 l 1
 162 377 l 1
 173 411 l 1
 143 432 l 1
 180 432 l 1
 191 467 l 1
351 550 m 1
 362 515 l 1
 399 515 l 1
 369 494 l 1
 380 460 l 1
 351 481 l 1
 322 460 l 1
 333 494 l 1
 303 515 l 1
 340 515 l 1
 351 550 l 1
245 550 m 1
 256 515 l 1
 293 515 l 1
 263 494 l 1
 274 460 l 1
 245 481 l 1
 216 460 l 1
 227 494 l 1
 197 515 l 1
 234 515 l 1
 245 550 l 1
298 633 m 1
 309 598 l 1
 346 598 l 1
 316 577 l 1
 327 543 l 1
 298 564 l 1
 269 543 l 1
 280 577 l 1
 250 598 l 1
 287 598 l 1
 298 633 l 1
351 717 m 1
 362 682 l 1
 399 682 l 1
 369 661 l 1
 380 627 l 1
 351 648 l 1
 322 627 l 1
 333 661 l 1
 303 682 l 1
 340 682 l 1
 351 717 l 1
245 717 m 1
 256 682 l 1
 293 682 l 1
 263 661 l 1
 274 627 l 1
 245 648 l 1
 216 627 l 1
 227 661 l 1
 197 682 l 1
 234 682 l 1
 245 717 l 1
298 800 m 1
 309 765 l 1
 346 765 l 1
 316 744 l 1
 327 710 l 1
 298 731 l 1
 269 710 l 1
 280 744 l 1
 250 765 l 1
 287 765 l 1
 298 800 l 1
EndSplineSet
EndChar

StartChar: F
Encoding: 70 70 94
Width: 600
VWidth: 0
UnlinkRmOvrlpSave: 1
Flags: W
HStem: 210 21G<115.471 136.619 139.381 160.529> 210 21G<115.471 136.619 139.381 160.529> 613 20G<131.714 144.286> 780 20G<131.714 144.286 238.714 251.286 344.714 357.286 451.714 464.286>
LayerCount: 2
Back
Fore
SplineSet
138 300 m 1x70
 149 265 l 1
 186 265 l 1
 156 244 l 1
 167 210 l 1
 138 231 l 1
 109 210 l 1
 120 244 l 1
 90 265 l 1
 127 265 l 1
 138 300 l 1x70
138 383 m 1
 149 348 l 1
 186 348 l 1
 156 327 l 1
 167 293 l 1
 138 314 l 1
 109 293 l 1
 120 327 l 1
 90 348 l 1
 127 348 l 1
 138 383 l 1
138 467 m 1
 149 432 l 1
 186 432 l 1
 156 411 l 1
 167 377 l 1
 138 398 l 1
 109 377 l 1
 120 411 l 1
 90 432 l 1
 127 432 l 1
 138 467 l 1
351 550 m 1
 362 515 l 1
 399 515 l 1
 369 494 l 1
 380 460 l 1
 351 481 l 1
 322 460 l 1
 333 494 l 1
 303 515 l 1
 340 515 l 1
 351 550 l 1
245 550 m 1
 256 515 l 1
 293 515 l 1
 263 494 l 1
 274 460 l 1
 245 481 l 1
 216 460 l 1
 227 494 l 1
 197 515 l 1
 234 515 l 1
 245 550 l 1
138 550 m 1
 149 515 l 1
 186 515 l 1
 156 494 l 1
 167 460 l 1
 138 481 l 1
 109 460 l 1
 120 494 l 1
 90 515 l 1
 127 515 l 1
 138 550 l 1
138 633 m 1
 149 598 l 1
 186 598 l 1
 156 577 l 1
 167 543 l 1
 138 564 l 1
 109 543 l 1
 120 577 l 1
 90 598 l 1
 127 598 l 1
 138 633 l 1
138 717 m 1
 149 682 l 1
 186 682 l 1
 156 661 l 1
 167 627 l 1
 138 648 l 1
 109 627 l 1
 120 661 l 1
 90 682 l 1
 127 682 l 1
 138 717 l 1
458 800 m 1
 469 765 l 1
 506 765 l 1
 476 744 l 1
 487 710 l 1
 458 731 l 1
 429 710 l 1
 440 744 l 1
 410 765 l 1
 447 765 l 1
 458 800 l 1
351 800 m 1
 362 765 l 1
 399 765 l 1
 369 744 l 1
 380 710 l 1
 351 731 l 1
 322 710 l 1
 333 744 l 1
 303 765 l 1
 340 765 l 1
 351 800 l 1
245 800 m 1
 256 765 l 1
 293 765 l 1
 263 744 l 1
 274 710 l 1
 245 731 l 1
 216 710 l 1
 227 744 l 1
 197 765 l 1
 234 765 l 1
 245 800 l 1
138 800 m 1
 149 765 l 1
 186 765 l 1
 156 744 l 1
 167 710 l 1
 138 731 l 1
 109 710 l 1
 120 744 l 1
 90 765 l 1
 127 765 l 1
 138 800 l 1
EndSplineSet
EndChar

StartChar: Eacute
Encoding: 201 201 95
Width: 600
VWidth: 0
UnlinkRmOvrlpSave: 1
Flags: W
HStem: 210 21G<115.471 136.619 139.381 160.529 222.471 243.619 246.381 267.529 328.471 349.619 352.381 373.529 435.471 456.619 459.381 480.529> 210 21G<115.471 136.619 139.381 160.529 222.471 243.619 246.381 267.529 328.471 349.619 352.381 373.529 435.471 456.619 459.381 480.529> 613 20G<131.714 144.286 238.714 251.286 344.714 357.286 451.714 464.286> 780 20G<344.714 357.286>
LayerCount: 2
Back
Fore
SplineSet
458 300 m 1x70
 469 265 l 1
 506 265 l 1
 476 244 l 1
 487 210 l 1
 458 231 l 1
 429 210 l 1
 440 244 l 1
 410 265 l 1
 447 265 l 1
 458 300 l 1x70
351 300 m 1
 362 265 l 1
 399 265 l 1
 369 244 l 1
 380 210 l 1
 351 231 l 1
 322 210 l 1
 333 244 l 1
 303 265 l 1
 340 265 l 1
 351 300 l 1
245 300 m 1
 256 265 l 1
 293 265 l 1
 263 244 l 1
 274 210 l 1
 245 231 l 1
 216 210 l 1
 227 244 l 1
 197 265 l 1
 234 265 l 1
 245 300 l 1
138 300 m 1
 149 265 l 1
 186 265 l 1
 156 244 l 1
 167 210 l 1
 138 231 l 1
 109 210 l 1
 120 244 l 1
 90 265 l 1
 127 265 l 1
 138 300 l 1
138 383 m 1
 149 348 l 1
 186 348 l 1
 156 327 l 1
 167 293 l 1
 138 314 l 1
 109 293 l 1
 120 327 l 1
 90 348 l 1
 127 348 l 1
 138 383 l 1
351 467 m 1
 362 432 l 1
 399 432 l 1
 369 411 l 1
 380 377 l 1
 351 398 l 1
 322 377 l 1
 333 411 l 1
 303 432 l 1
 340 432 l 1
 351 467 l 1
245 467 m 1
 256 432 l 1
 293 432 l 1
 263 411 l 1
 274 377 l 1
 245 398 l 1
 216 377 l 1
 227 411 l 1
 197 432 l 1
 234 432 l 1
 245 467 l 1
138 467 m 1
 149 432 l 1
 186 432 l 1
 156 411 l 1
 167 377 l 1
 138 398 l 1
 109 377 l 1
 120 411 l 1
 90 432 l 1
 127 432 l 1
 138 467 l 1
138 550 m 1
 149 515 l 1
 186 515 l 1
 156 494 l 1
 167 460 l 1
 138 481 l 1
 109 460 l 1
 120 494 l 1
 90 515 l 1
 127 515 l 1
 138 550 l 1
458 633 m 1
 469 598 l 1
 506 598 l 1
 476 577 l 1
 487 543 l 1
 458 564 l 1
 429 543 l 1
 440 577 l 1
 410 598 l 1
 447 598 l 1
 458 633 l 1
351 633 m 1
 362 598 l 1
 399 598 l 1
 369 577 l 1
 380 543 l 1
 351 564 l 1
 322 543 l 1
 333 577 l 1
 303 598 l 1
 340 598 l 1
 351 633 l 1
245 633 m 1
 256 598 l 1
 293 598 l 1
 263 577 l 1
 274 543 l 1
 245 564 l 1
 216 543 l 1
 227 577 l 1
 197 598 l 1
 234 598 l 1
 245 633 l 1
138 633 m 1
 149 598 l 1
 186 598 l 1
 156 577 l 1
 167 543 l 1
 138 564 l 1
 109 543 l 1
 120 577 l 1
 90 598 l 1
 127 598 l 1
 138 633 l 1
298 717 m 1
 309 682 l 1
 346 682 l 1
 316 661 l 1
 327 627 l 1
 298 648 l 1
 269 627 l 1
 280 661 l 1
 250 682 l 1
 287 682 l 1
 298 717 l 1
351 800 m 1
 362 765 l 1
 399 765 l 1
 369 744 l 1
 380 710 l 1
 351 731 l 1
 322 710 l 1
 333 744 l 1
 303 765 l 1
 340 765 l 1
 351 800 l 1
EndSplineSet
EndChar

StartChar: J
Encoding: 74 74 96
Width: 600
VWidth: 0
UnlinkRmOvrlpSave: 1
Flags: W
HStem: 210 21G<168.471 189.619 192.381 213.529 275.471 296.619 299.381 320.529 382.471 403.619 406.381 427.529> 210 21G<168.471 189.619 192.381 213.529 275.471 296.619 299.381 320.529 382.471 403.619 406.381 427.529> 613 20G<451.714 464.286> 780 20G<451.714 464.286>
LayerCount: 2
Back
Fore
SplineSet
405 300 m 1x70
 416 265 l 1
 453 265 l 1
 423 244 l 1
 434 210 l 1
 405 231 l 1
 376 210 l 1
 387 244 l 1
 357 265 l 1
 394 265 l 1
 405 300 l 1x70
298 300 m 1
 309 265 l 1
 346 265 l 1
 316 244 l 1
 327 210 l 1
 298 231 l 1
 269 210 l 1
 280 244 l 1
 250 265 l 1
 287 265 l 1
 298 300 l 1
191 300 m 1
 202 265 l 1
 239 265 l 1
 209 244 l 1
 220 210 l 1
 191 231 l 1
 162 210 l 1
 173 244 l 1
 143 265 l 1
 180 265 l 1
 191 300 l 1
458 383 m 1
 469 348 l 1
 506 348 l 1
 476 327 l 1
 487 293 l 1
 458 314 l 1
 429 293 l 1
 440 327 l 1
 410 348 l 1
 447 348 l 1
 458 383 l 1
138 383 m 1
 149 348 l 1
 186 348 l 1
 156 327 l 1
 167 293 l 1
 138 314 l 1
 109 293 l 1
 120 327 l 1
 90 348 l 1
 127 348 l 1
 138 383 l 1
458 467 m 1
 469 432 l 1
 506 432 l 1
 476 411 l 1
 487 377 l 1
 458 398 l 1
 429 377 l 1
 440 411 l 1
 410 432 l 1
 447 432 l 1
 458 467 l 1
458 550 m 1
 469 515 l 1
 506 515 l 1
 476 494 l 1
 487 460 l 1
 458 481 l 1
 429 460 l 1
 440 494 l 1
 410 515 l 1
 447 515 l 1
 458 550 l 1
458 633 m 1
 469 598 l 1
 506 598 l 1
 476 577 l 1
 487 543 l 1
 458 564 l 1
 429 543 l 1
 440 577 l 1
 410 598 l 1
 447 598 l 1
 458 633 l 1
458 717 m 1
 469 682 l 1
 506 682 l 1
 476 661 l 1
 487 627 l 1
 458 648 l 1
 429 627 l 1
 440 661 l 1
 410 682 l 1
 447 682 l 1
 458 717 l 1
458 800 m 1
 469 765 l 1
 506 765 l 1
 476 744 l 1
 487 710 l 1
 458 731 l 1
 429 710 l 1
 440 744 l 1
 410 765 l 1
 447 765 l 1
 458 800 l 1
EndSplineSet
EndChar

StartChar: N
Encoding: 78 78 97
Width: 600
VWidth: 0
UnlinkRmOvrlpSave: 1
Flags: W
HStem: 210 21G<115.471 136.619 139.381 160.529 435.471 456.619 459.381 480.529> 210 21G<115.471 136.619 139.381 160.529 435.471 456.619 459.381 480.529> 613 20G<131.714 144.286 238.714 251.286 451.714 464.286> 780 20G<131.714 144.286 451.714 464.286>
LayerCount: 2
Back
Fore
SplineSet
458 300 m 1x70
 469 265 l 1
 506 265 l 1
 476 244 l 1
 487 210 l 1
 458 231 l 1
 429 210 l 1
 440 244 l 1
 410 265 l 1
 447 265 l 1
 458 300 l 1x70
138 300 m 1
 149 265 l 1
 186 265 l 1
 156 244 l 1
 167 210 l 1
 138 231 l 1
 109 210 l 1
 120 244 l 1
 90 265 l 1
 127 265 l 1
 138 300 l 1
405 383 m 1
 416 348 l 1
 453 348 l 1
 423 327 l 1
 434 293 l 1
 405 314 l 1
 376 293 l 1
 387 327 l 1
 357 348 l 1
 394 348 l 1
 405 383 l 1
138 383 m 1
 149 348 l 1
 186 348 l 1
 156 327 l 1
 167 293 l 1
 138 314 l 1
 109 293 l 1
 120 327 l 1
 90 348 l 1
 127 348 l 1
 138 383 l 1
458 467 m 1
 469 432 l 1
 506 432 l 1
 476 411 l 1
 487 377 l 1
 458 398 l 1
 429 377 l 1
 440 411 l 1
 410 432 l 1
 447 432 l 1
 458 467 l 1
351 467 m 1
 362 432 l 1
 399 432 l 1
 369 411 l 1
 380 377 l 1
 351 398 l 1
 322 377 l 1
 333 411 l 1
 303 432 l 1
 340 432 l 1
 351 467 l 1
138 467 m 1
 149 432 l 1
 186 432 l 1
 156 411 l 1
 167 377 l 1
 138 398 l 1
 109 377 l 1
 120 411 l 1
 90 432 l 1
 127 432 l 1
 138 467 l 1
458 550 m 1
 469 515 l 1
 506 515 l 1
 476 494 l 1
 487 460 l 1
 458 481 l 1
 429 460 l 1
 440 494 l 1
 410 515 l 1
 447 515 l 1
 458 550 l 1
298 550 m 1
 309 515 l 1
 346 515 l 1
 316 494 l 1
 327 460 l 1
 298 481 l 1
 269 460 l 1
 280 494 l 1
 250 515 l 1
 287 515 l 1
 298 550 l 1
138 550 m 1
 149 515 l 1
 186 515 l 1
 156 494 l 1
 167 460 l 1
 138 481 l 1
 109 460 l 1
 120 494 l 1
 90 515 l 1
 127 515 l 1
 138 550 l 1
458 633 m 1
 469 598 l 1
 506 598 l 1
 476 577 l 1
 487 543 l 1
 458 564 l 1
 429 543 l 1
 440 577 l 1
 410 598 l 1
 447 598 l 1
 458 633 l 1
245 633 m 1
 256 598 l 1
 293 598 l 1
 263 577 l 1
 274 543 l 1
 245 564 l 1
 216 543 l 1
 227 577 l 1
 197 598 l 1
 234 598 l 1
 245 633 l 1
138 633 m 1
 149 598 l 1
 186 598 l 1
 156 577 l 1
 167 543 l 1
 138 564 l 1
 109 543 l 1
 120 577 l 1
 90 598 l 1
 127 598 l 1
 138 633 l 1
458 717 m 1
 469 682 l 1
 506 682 l 1
 476 661 l 1
 487 627 l 1
 458 648 l 1
 429 627 l 1
 440 661 l 1
 410 682 l 1
 447 682 l 1
 458 717 l 1
191 717 m 1
 202 682 l 1
 239 682 l 1
 209 661 l 1
 220 627 l 1
 191 648 l 1
 162 627 l 1
 173 661 l 1
 143 682 l 1
 180 682 l 1
 191 717 l 1
458 800 m 1
 469 765 l 1
 506 765 l 1
 476 744 l 1
 487 710 l 1
 458 731 l 1
 429 710 l 1
 440 744 l 1
 410 765 l 1
 447 765 l 1
 458 800 l 1
138 800 m 1
 149 765 l 1
 186 765 l 1
 156 744 l 1
 167 710 l 1
 138 731 l 1
 109 710 l 1
 120 744 l 1
 90 765 l 1
 127 765 l 1
 138 800 l 1
EndSplineSet
EndChar

StartChar: R
Encoding: 82 82 98
Width: 600
VWidth: 0
UnlinkRmOvrlpSave: 1
Flags: W
HStem: 210 21G<115.471 136.619 139.381 160.529 435.471 456.619 459.381 480.529> 210 21G<115.471 136.619 139.381 160.529 435.471 456.619 459.381 480.529> 613 20G<131.714 144.286 451.714 464.286> 780 20G<131.714 144.286 238.714 251.286 344.714 357.286>
LayerCount: 2
Back
Fore
SplineSet
458 300 m 1x70
 469 265 l 1
 506 265 l 1
 476 244 l 1
 487 210 l 1
 458 231 l 1
 429 210 l 1
 440 244 l 1
 410 265 l 1
 447 265 l 1
 458 300 l 1x70
138 300 m 1
 149 265 l 1
 186 265 l 1
 156 244 l 1
 167 210 l 1
 138 231 l 1
 109 210 l 1
 120 244 l 1
 90 265 l 1
 127 265 l 1
 138 300 l 1
405 383 m 1
 416 348 l 1
 453 348 l 1
 423 327 l 1
 434 293 l 1
 405 314 l 1
 376 293 l 1
 387 327 l 1
 357 348 l 1
 394 348 l 1
 405 383 l 1
138 383 m 1
 149 348 l 1
 186 348 l 1
 156 327 l 1
 167 293 l 1
 138 314 l 1
 109 293 l 1
 120 327 l 1
 90 348 l 1
 127 348 l 1
 138 383 l 1
351 467 m 1
 362 432 l 1
 399 432 l 1
 369 411 l 1
 380 377 l 1
 351 398 l 1
 322 377 l 1
 333 411 l 1
 303 432 l 1
 340 432 l 1
 351 467 l 1
138 467 m 1
 149 432 l 1
 186 432 l 1
 156 411 l 1
 167 377 l 1
 138 398 l 1
 109 377 l 1
 120 411 l 1
 90 432 l 1
 127 432 l 1
 138 467 l 1
351 550 m 1
 362 515 l 1
 399 515 l 1
 369 494 l 1
 380 460 l 1
 351 481 l 1
 322 460 l 1
 333 494 l 1
 303 515 l 1
 340 515 l 1
 351 550 l 1
245 550 m 1
 256 515 l 1
 293 515 l 1
 263 494 l 1
 274 460 l 1
 245 481 l 1
 216 460 l 1
 227 494 l 1
 197 515 l 1
 234 515 l 1
 245 550 l 1
138 550 m 1
 149 515 l 1
 186 515 l 1
 156 494 l 1
 167 460 l 1
 138 481 l 1
 109 460 l 1
 120 494 l 1
 90 515 l 1
 127 515 l 1
 138 550 l 1
458 633 m 1
 469 598 l 1
 506 598 l 1
 476 577 l 1
 487 543 l 1
 458 564 l 1
 429 543 l 1
 440 577 l 1
 410 598 l 1
 447 598 l 1
 458 633 l 1
138 633 m 1
 149 598 l 1
 186 598 l 1
 156 577 l 1
 167 543 l 1
 138 564 l 1
 109 543 l 1
 120 577 l 1
 90 598 l 1
 127 598 l 1
 138 633 l 1
458 717 m 1
 469 682 l 1
 506 682 l 1
 476 661 l 1
 487 627 l 1
 458 648 l 1
 429 627 l 1
 440 661 l 1
 410 682 l 1
 447 682 l 1
 458 717 l 1
138 717 m 1
 149 682 l 1
 186 682 l 1
 156 661 l 1
 167 627 l 1
 138 648 l 1
 109 627 l 1
 120 661 l 1
 90 682 l 1
 127 682 l 1
 138 717 l 1
351 800 m 1
 362 765 l 1
 399 765 l 1
 369 744 l 1
 380 710 l 1
 351 731 l 1
 322 710 l 1
 333 744 l 1
 303 765 l 1
 340 765 l 1
 351 800 l 1
245 800 m 1
 256 765 l 1
 293 765 l 1
 263 744 l 1
 274 710 l 1
 245 731 l 1
 216 710 l 1
 227 744 l 1
 197 765 l 1
 234 765 l 1
 245 800 l 1
138 800 m 1
 149 765 l 1
 186 765 l 1
 156 744 l 1
 167 710 l 1
 138 731 l 1
 109 710 l 1
 120 744 l 1
 90 765 l 1
 127 765 l 1
 138 800 l 1
EndSplineSet
EndChar

StartChar: V
Encoding: 86 86 99
Width: 600
VWidth: 0
UnlinkRmOvrlpSave: 1
Flags: W
HStem: 210 21G<275.471 296.619 299.381 320.529> 210 21G<275.471 296.619 299.381 320.529> 613 20G<131.714 144.286 451.714 464.286> 780 20G<131.714 144.286 451.714 464.286>
LayerCount: 2
Back
Fore
SplineSet
298 300 m 1x70
 309 265 l 1
 346 265 l 1
 316 244 l 1
 327 210 l 1
 298 231 l 1
 269 210 l 1
 280 244 l 1
 250 265 l 1
 287 265 l 1
 298 300 l 1x70
351 383 m 1
 362 348 l 1
 399 348 l 1
 369 327 l 1
 380 293 l 1
 351 314 l 1
 322 293 l 1
 333 327 l 1
 303 348 l 1
 340 348 l 1
 351 383 l 1
245 383 m 1
 256 348 l 1
 293 348 l 1
 263 327 l 1
 274 293 l 1
 245 314 l 1
 216 293 l 1
 227 327 l 1
 197 348 l 1
 234 348 l 1
 245 383 l 1
405 467 m 1
 416 432 l 1
 453 432 l 1
 423 411 l 1
 434 377 l 1
 405 398 l 1
 376 377 l 1
 387 411 l 1
 357 432 l 1
 394 432 l 1
 405 467 l 1
191 467 m 1
 202 432 l 1
 239 432 l 1
 209 411 l 1
 220 377 l 1
 191 398 l 1
 162 377 l 1
 173 411 l 1
 143 432 l 1
 180 432 l 1
 191 467 l 1
458 550 m 1
 469 515 l 1
 506 515 l 1
 476 494 l 1
 487 460 l 1
 458 481 l 1
 429 460 l 1
 440 494 l 1
 410 515 l 1
 447 515 l 1
 458 550 l 1
138 550 m 1
 149 515 l 1
 186 515 l 1
 156 494 l 1
 167 460 l 1
 138 481 l 1
 109 460 l 1
 120 494 l 1
 90 515 l 1
 127 515 l 1
 138 550 l 1
458 633 m 1
 469 598 l 1
 506 598 l 1
 476 577 l 1
 487 543 l 1
 458 564 l 1
 429 543 l 1
 440 577 l 1
 410 598 l 1
 447 598 l 1
 458 633 l 1
138 633 m 1
 149 598 l 1
 186 598 l 1
 156 577 l 1
 167 543 l 1
 138 564 l 1
 109 543 l 1
 120 577 l 1
 90 598 l 1
 127 598 l 1
 138 633 l 1
458 717 m 1
 469 682 l 1
 506 682 l 1
 476 661 l 1
 487 627 l 1
 458 648 l 1
 429 627 l 1
 440 661 l 1
 410 682 l 1
 447 682 l 1
 458 717 l 1
138 717 m 1
 149 682 l 1
 186 682 l 1
 156 661 l 1
 167 627 l 1
 138 648 l 1
 109 627 l 1
 120 661 l 1
 90 682 l 1
 127 682 l 1
 138 717 l 1
458 800 m 1
 469 765 l 1
 506 765 l 1
 476 744 l 1
 487 710 l 1
 458 731 l 1
 429 710 l 1
 440 744 l 1
 410 765 l 1
 447 765 l 1
 458 800 l 1
138 800 m 1
 149 765 l 1
 186 765 l 1
 156 744 l 1
 167 710 l 1
 138 731 l 1
 109 710 l 1
 120 744 l 1
 90 765 l 1
 127 765 l 1
 138 800 l 1
EndSplineSet
EndChar

StartChar: Ugrave
Encoding: 217 217 100
Width: 600
VWidth: 0
UnlinkRmOvrlpSave: 1
Flags: W
HStem: 210 21G<168.471 189.619 192.381 213.529 275.471 296.619 299.381 320.529 382.471 403.619 406.381 427.529> 210 21G<168.471 189.619 192.381 213.529 275.471 296.619 299.381 320.529 382.471 403.619 406.381 427.529> 613 20G<131.714 144.286 451.714 464.286> 780 20G<291.714 304.286>
LayerCount: 2
Back
Fore
SplineSet
405 300 m 1x70
 416 265 l 1
 453 265 l 1
 423 244 l 1
 434 210 l 1
 405 231 l 1
 376 210 l 1
 387 244 l 1
 357 265 l 1
 394 265 l 1
 405 300 l 1x70
298 300 m 1
 309 265 l 1
 346 265 l 1
 316 244 l 1
 327 210 l 1
 298 231 l 1
 269 210 l 1
 280 244 l 1
 250 265 l 1
 287 265 l 1
 298 300 l 1
191 300 m 1
 202 265 l 1
 239 265 l 1
 209 244 l 1
 220 210 l 1
 191 231 l 1
 162 210 l 1
 173 244 l 1
 143 265 l 1
 180 265 l 1
 191 300 l 1
458 383 m 1
 469 348 l 1
 506 348 l 1
 476 327 l 1
 487 293 l 1
 458 314 l 1
 429 293 l 1
 440 327 l 1
 410 348 l 1
 447 348 l 1
 458 383 l 1
138 383 m 1
 149 348 l 1
 186 348 l 1
 156 327 l 1
 167 293 l 1
 138 314 l 1
 109 293 l 1
 120 327 l 1
 90 348 l 1
 127 348 l 1
 138 383 l 1
458 467 m 1
 469 432 l 1
 506 432 l 1
 476 411 l 1
 487 377 l 1
 458 398 l 1
 429 377 l 1
 440 411 l 1
 410 432 l 1
 447 432 l 1
 458 467 l 1
138 467 m 1
 149 432 l 1
 186 432 l 1
 156 411 l 1
 167 377 l 1
 138 398 l 1
 109 377 l 1
 120 411 l 1
 90 432 l 1
 127 432 l 1
 138 467 l 1
458 550 m 1
 469 515 l 1
 506 515 l 1
 476 494 l 1
 487 460 l 1
 458 481 l 1
 429 460 l 1
 440 494 l 1
 410 515 l 1
 447 515 l 1
 458 550 l 1
138 550 m 1
 149 515 l 1
 186 515 l 1
 156 494 l 1
 167 460 l 1
 138 481 l 1
 109 460 l 1
 120 494 l 1
 90 515 l 1
 127 515 l 1
 138 550 l 1
458 633 m 1
 469 598 l 1
 506 598 l 1
 476 577 l 1
 487 543 l 1
 458 564 l 1
 429 543 l 1
 440 577 l 1
 410 598 l 1
 447 598 l 1
 458 633 l 1
138 633 m 1
 149 598 l 1
 186 598 l 1
 156 577 l 1
 167 543 l 1
 138 564 l 1
 109 543 l 1
 120 577 l 1
 90 598 l 1
 127 598 l 1
 138 633 l 1
458 717 m 1
 469 682 l 1
 506 682 l 1
 476 661 l 1
 487 627 l 1
 458 648 l 1
 429 627 l 1
 440 661 l 1
 410 682 l 1
 447 682 l 1
 458 717 l 1
351 717 m 1
 362 682 l 1
 399 682 l 1
 369 661 l 1
 380 627 l 1
 351 648 l 1
 322 627 l 1
 333 661 l 1
 303 682 l 1
 340 682 l 1
 351 717 l 1
138 717 m 1
 149 682 l 1
 186 682 l 1
 156 661 l 1
 167 627 l 1
 138 648 l 1
 109 627 l 1
 120 661 l 1
 90 682 l 1
 127 682 l 1
 138 717 l 1
298 800 m 1
 309 765 l 1
 346 765 l 1
 316 744 l 1
 327 710 l 1
 298 731 l 1
 269 710 l 1
 280 744 l 1
 250 765 l 1
 287 765 l 1
 298 800 l 1
EndSplineSet
EndChar

